<svg id="visual" viewBox="0 0 960 160" width="960" height="160" xmlns="http://www.w3.org/2000/svg" xmlns:xlink="http://www.w3.org/1999/xlink" version="1.1"><rect x="0" y="0" width="960" height="160" fill="#FFFFFF"></rect><path d="M0 25L17.8 30.2C35.7 35.3 71.3 45.7 106.8 60.3C142.3 75 177.7 94 213.2 99.3C248.7 104.7 284.3 96.3 320 83.5C355.7 70.7 391.3 53.3 426.8 53.2C462.3 53 497.7 70 533.2 67.5C568.7 65 604.3 43 640 41.5C675.7 40 711.3 59 746.8 61.7C782.3 64.3 817.7 50.7 853.2 50.2C888.7 49.7 924.3 62.3 942.2 68.7L960 75L960 161L942.2 161C924.3 161 888.7 161 853.2 161C817.7 161 782.3 161 746.8 161C711.3 161 675.7 161 640 161C604.3 161 568.7 161 533.2 161C497.7 161 462.3 161 426.8 161C391.3 161 355.7 161 320 161C284.3 161 248.7 161 213.2 161C177.7 161 142.3 161 106.8 161C71.3 161 35.7 161 17.8 161L0 161Z" fill="#4facf7"></path><path d="M0 88L17.8 83.2C35.7 78.3 71.3 68.7 106.8 73.3C142.3 78 177.7 97 213.2 95C248.7 93 284.3 70 320 68.5C355.7 67 391.3 87 426.8 89.2C462.3 91.3 497.7 75.7 533.2 74.5C568.7 73.3 604.3 86.7 640 83.2C675.7 79.7 711.3 59.3 746.8 48.3C782.3 37.3 817.7 35.7 853.2 48.7C888.7 61.7 924.3 89.3 942.2 103.2L960 117L960 161L942.2 161C924.3 161 888.7 161 853.2 161C817.7 161 782.3 161 746.8 161C711.3 161 675.7 161 640 161C604.3 161 568.7 161 533.2 161C497.7 161 462.3 161 426.8 161C391.3 161 355.7 161 320 161C284.3 161 248.7 161 213.2 161C177.7 161 142.3 161 106.8 161C71.3 161 35.7 161 17.8 161L0 161Z" fill="#3472a1"></path><path d="M0 106L17.8 112.5C35.7 119 71.3 132 106.8 127.7C142.3 123.3 177.7 101.7 213.2 90.5C248.7 79.3 284.3 78.7 320 80.7C355.7 82.7 391.3 87.3 426.8 87.7C462.3 88 497.7 84 533.2 88.8C568.7 93.7 604.3 107.3 640 112.2C675.7 117 711.3 113 746.8 108.3C782.3 103.7 817.7 98.3 853.2 92.2C888.7 86 924.3 79 942.2 75.5L960 72L960 161L942.2 161C924.3 161 888.7 161 853.2 161C817.7 161 782.3 161 746.8 161C711.3 161 675.7 161 640 161C604.3 161 568.7 161 533.2 161C497.7 161 462.3 161 426.8 161C391.3 161 355.7 161 320 161C284.3 161 248.7 161 213.2 161C177.7 161 142.3 161 106.8 161C71.3 161 35.7 161 17.8 161L0 161Z" fill="#1d3c53"></path><path d="M0 99L17.8 105.3C35.7 111.7 71.3 124.3 106.8 128C142.3 131.7 177.7 126.3 213.2 124.5C248.7 122.7 284.3 124.3 320 130.5C355.7 136.7 391.3 147.3 426.8 150.2C462.3 153 497.7 148 533.2 140.3C568.7 132.7 604.3 122.3 640 123.5C675.7 124.7 711.3 137.3 746.8 144.2C782.3 151 817.7 152 853.2 149.5C888.7 147 924.3 141 942.2 138L960 135L960 161L942.2 161C924.3 161 888.7 161 853.2 161C817.7 161 782.3 161 746.8 161C711.3 161 675.7 161 640 161C604.3 161 568.7 161 533.2 161C497.7 161 462.3 161 426.8 161C391.3 161 355.7 161 320 161C284.3 161 248.7 161 213.2 161C177.7 161 142.3 161 106.8 161C71.3 161 35.7 161 17.8 161L0 161Z" fill="#000810"></path></svg>