<svg id="visual" viewBox="0 0 960 160" width="960" height="160" xmlns="http://www.w3.org/2000/svg" xmlns:xlink="http://www.w3.org/1999/xlink" version="1.1"><rect x="0" y="0" width="960" height="160" fill="#FFFFFF"></rect><path d="M0 96L17.8 104.8C35.7 113.7 71.3 131.3 106.8 128C142.3 124.7 177.7 100.3 213.2 100.8C248.7 101.3 284.3 126.7 320 129.7C355.7 132.7 391.3 113.3 426.8 108.5C462.3 103.7 497.7 113.3 533.2 117.2C568.7 121 604.3 119 640 112.3C675.7 105.7 711.3 94.3 746.8 101.2C782.3 108 817.7 133 853.2 137.2C888.7 141.3 924.3 124.7 942.2 116.3L960 108L960 0L942.2 0C924.3 0 888.7 0 853.2 0C817.7 0 782.3 0 746.8 0C711.3 0 675.7 0 640 0C604.3 0 568.7 0 533.2 0C497.7 0 462.3 0 426.8 0C391.3 0 355.7 0 320 0C284.3 0 248.7 0 213.2 0C177.7 0 142.3 0 106.8 0C71.3 0 35.7 0 17.8 0L0 0Z" fill="#4facf7"></path><path d="M0 126L17.8 117.5C35.7 109 71.3 92 106.8 81.3C142.3 70.7 177.7 66.3 213.2 70.8C248.7 75.3 284.3 88.7 320 85C355.7 81.3 391.3 60.7 426.8 54.2C462.3 47.7 497.7 55.3 533.2 53.8C568.7 52.3 604.3 41.7 640 37.2C675.7 32.7 711.3 34.3 746.8 37.2C782.3 40 817.7 44 853.2 53.3C888.7 62.7 924.3 77.3 942.2 84.7L960 92L960 0L942.2 0C924.3 0 888.7 0 853.2 0C817.7 0 782.3 0 746.8 0C711.3 0 675.7 0 640 0C604.3 0 568.7 0 533.2 0C497.7 0 462.3 0 426.8 0C391.3 0 355.7 0 320 0C284.3 0 248.7 0 213.2 0C177.7 0 142.3 0 106.8 0C71.3 0 35.7 0 17.8 0L0 0Z" fill="#3472a1"></path><path d="M0 76L17.8 77.7C35.7 79.3 71.3 82.7 106.8 78C142.3 73.3 177.7 60.7 213.2 54.3C248.7 48 284.3 48 320 46.8C355.7 45.7 391.3 43.3 426.8 38.3C462.3 33.3 497.7 25.7 533.2 28.2C568.7 30.7 604.3 43.3 640 54C675.7 64.7 711.3 73.3 746.8 67.2C782.3 61 817.7 40 853.2 37.5C888.7 35 924.3 51 942.2 59L960 67L960 0L942.2 0C924.3 0 888.7 0 853.2 0C817.7 0 782.3 0 746.8 0C711.3 0 675.7 0 640 0C604.3 0 568.7 0 533.2 0C497.7 0 462.3 0 426.8 0C391.3 0 355.7 0 320 0C284.3 0 248.7 0 213.2 0C177.7 0 142.3 0 106.8 0C71.3 0 35.7 0 17.8 0L0 0Z" fill="#1d3c53"></path><path d="M0 6L17.8 6.8C35.7 7.7 71.3 9.3 106.8 15.8C142.3 22.3 177.7 33.7 213.2 37.8C248.7 42 284.3 39 320 31.7C355.7 24.3 391.3 12.7 426.8 12.3C462.3 12 497.7 23 533.2 25.7C568.7 28.3 604.3 22.7 640 19.2C675.7 15.7 711.3 14.3 746.8 18.3C782.3 22.3 817.7 31.7 853.2 33.2C888.7 34.7 924.3 28.3 942.2 25.2L960 22L960 0L942.2 0C924.3 0 888.7 0 853.2 0C817.7 0 782.3 0 746.8 0C711.3 0 675.7 0 640 0C604.3 0 568.7 0 533.2 0C497.7 0 462.3 0 426.8 0C391.3 0 355.7 0 320 0C284.3 0 248.7 0 213.2 0C177.7 0 142.3 0 106.8 0C71.3 0 35.7 0 17.8 0L0 0Z" fill="#000810"></path></svg>