<svg id="visual" viewBox="0 0 960 540" width="960" height="540" xmlns="http://www.w3.org/2000/svg" xmlns:xlink="http://www.w3.org/1999/xlink" version="1.1"><rect x="0" y="0" width="960" height="540" fill="#000810"></rect><defs><linearGradient id="grad1_0" x1="43.8%" y1="0%" x2="100%" y2="100%"><stop offset="14.444444444444446%" stop-color="#fcaf3c" stop-opacity="1"></stop><stop offset="85.55555555555554%" stop-color="#fcaf3c" stop-opacity="1"></stop></linearGradient></defs><defs><linearGradient id="grad1_1" x1="43.8%" y1="0%" x2="100%" y2="100%"><stop offset="14.444444444444446%" stop-color="#fcaf3c" stop-opacity="1"></stop><stop offset="85.55555555555554%" stop-color="#e97359" stop-opacity="1"></stop></linearGradient></defs><defs><linearGradient id="grad1_2" x1="43.8%" y1="0%" x2="100%" y2="100%"><stop offset="14.444444444444446%" stop-color="#b14f6c" stop-opacity="1"></stop><stop offset="85.55555555555554%" stop-color="#e97359" stop-opacity="1"></stop></linearGradient></defs><defs><linearGradient id="grad1_3" x1="43.8%" y1="0%" x2="100%" y2="100%"><stop offset="14.444444444444446%" stop-color="#b14f6c" stop-opacity="1"></stop><stop offset="85.55555555555554%" stop-color="#683c64" stop-opacity="1"></stop></linearGradient></defs><defs><linearGradient id="grad1_4" x1="43.8%" y1="0%" x2="100%" y2="100%"><stop offset="14.444444444444446%" stop-color="#272840" stop-opacity="1"></stop><stop offset="85.55555555555554%" stop-color="#683c64" stop-opacity="1"></stop></linearGradient></defs><defs><linearGradient id="grad1_5" x1="43.8%" y1="0%" x2="100%" y2="100%"><stop offset="14.444444444444446%" stop-color="#272840" stop-opacity="1"></stop><stop offset="85.55555555555554%" stop-color="#000810" stop-opacity="1"></stop></linearGradient></defs><defs><linearGradient id="grad2_0" x1="0%" y1="0%" x2="56.3%" y2="100%"><stop offset="14.444444444444446%" stop-color="#fcaf3c" stop-opacity="1"></stop><stop offset="85.55555555555554%" stop-color="#fcaf3c" stop-opacity="1"></stop></linearGradient></defs><defs><linearGradient id="grad2_1" x1="0%" y1="0%" x2="56.3%" y2="100%"><stop offset="14.444444444444446%" stop-color="#e97359" stop-opacity="1"></stop><stop offset="85.55555555555554%" stop-color="#fcaf3c" stop-opacity="1"></stop></linearGradient></defs><defs><linearGradient id="grad2_2" x1="0%" y1="0%" x2="56.3%" y2="100%"><stop offset="14.444444444444446%" stop-color="#e97359" stop-opacity="1"></stop><stop offset="85.55555555555554%" stop-color="#b14f6c" stop-opacity="1"></stop></linearGradient></defs><defs><linearGradient id="grad2_3" x1="0%" y1="0%" x2="56.3%" y2="100%"><stop offset="14.444444444444446%" stop-color="#683c64" stop-opacity="1"></stop><stop offset="85.55555555555554%" stop-color="#b14f6c" stop-opacity="1"></stop></linearGradient></defs><defs><linearGradient id="grad2_4" x1="0%" y1="0%" x2="56.3%" y2="100%"><stop offset="14.444444444444446%" stop-color="#683c64" stop-opacity="1"></stop><stop offset="85.55555555555554%" stop-color="#272840" stop-opacity="1"></stop></linearGradient></defs><defs><linearGradient id="grad2_5" x1="0%" y1="0%" x2="56.3%" y2="100%"><stop offset="14.444444444444446%" stop-color="#000810" stop-opacity="1"></stop><stop offset="85.55555555555554%" stop-color="#272840" stop-opacity="1"></stop></linearGradient></defs><g transform="translate(960, 0)"><path d="M0 189C-29.4 189 -58.8 189.1 -70 169.1C-81.3 149 -74.4 108.9 -92.6 92.6C-110.9 76.3 -154.4 83.8 -174.6 72.3C-194.9 60.9 -191.9 30.4 -189 0L0 0Z" fill="#131b29"></path><path d="M0 157.5C-24.5 157.5 -49 157.6 -58.4 140.9C-67.7 124.2 -62 90.8 -77.2 77.2C-92.4 63.6 -128.6 69.8 -145.5 60.3C-162.4 50.7 -159.9 25.4 -157.5 0L0 0Z" fill="#443355"></path><path d="M0 126C-19.6 126 -39.2 126.1 -46.7 112.7C-54.2 99.4 -49.6 72.6 -61.8 61.8C-73.9 50.9 -102.9 55.9 -116.4 48.2C-129.9 40.6 -128 20.3 -126 0L0 0Z" fill="#8d456c"></path><path d="M0 94.5C-14.7 94.5 -29.4 94.5 -35 84.5C-40.6 74.5 -37.2 54.5 -46.3 46.3C-55.5 38.2 -77.2 41.9 -87.3 36.2C-97.4 30.4 -96 15.2 -94.5 0L0 0Z" fill="#d15e65"></path><path d="M0 63C-9.8 63 -19.6 63 -23.3 56.4C-27.1 49.7 -24.8 36.3 -30.9 30.9C-37 25.4 -51.5 27.9 -58.2 24.1C-65 20.3 -64 10.1 -63 0L0 0Z" fill="#f88f4b"></path><path d="M0 31.5C-4.9 31.5 -9.8 31.5 -11.7 28.2C-13.5 24.8 -12.4 18.2 -15.4 15.4C-18.5 12.7 -25.7 14 -29.1 12.1C-32.5 10.1 -32 5.1 -31.5 0L0 0Z" fill="#fcaf3c"></path></g><g transform="translate(0, 540)"><path d="M0 -189C28.6 -191.2 57.2 -193.4 72.3 -174.6C87.4 -155.9 89 -116.2 92.6 -92.6C96.2 -69.1 101.9 -61.7 118.3 -49C134.7 -36.2 161.8 -18.1 189 0L0 0Z" fill="#131b29"></path><path d="M0 -157.5C23.8 -159.3 47.7 -161.1 60.3 -145.5C72.9 -129.9 74.2 -96.8 77.2 -77.2C80.2 -57.6 84.9 -51.4 98.5 -40.8C112.2 -30.2 134.9 -15.1 157.5 0L0 0Z" fill="#443355"></path><path d="M0 -126C19.1 -127.5 38.1 -128.9 48.2 -116.4C58.3 -103.9 59.3 -77.4 61.8 -61.8C64.2 -46.1 67.9 -41.2 78.8 -32.7C89.8 -24.2 107.9 -12.1 126 0L0 0Z" fill="#8d456c"></path><path d="M0 -94.5C14.3 -95.6 28.6 -96.7 36.2 -87.3C43.7 -77.9 44.5 -58.1 46.3 -46.3C48.1 -34.5 50.9 -30.9 59.1 -24.5C67.3 -18.1 80.9 -9.1 94.5 0L0 0Z" fill="#d15e65"></path><path d="M0 -63C9.5 -63.7 19.1 -64.5 24.1 -58.2C29.1 -52 29.7 -38.7 30.9 -30.9C32.1 -23 34 -20.6 39.4 -16.3C44.9 -12.1 53.9 -6 63 0L0 0Z" fill="#f88f4b"></path><path d="M0 -31.5C4.8 -31.9 9.5 -32.2 12.1 -29.1C14.6 -26 14.8 -19.4 15.4 -15.4C16 -11.5 17 -10.3 19.7 -8.2C22.4 -6 27 -3 31.5 0L0 0Z" fill="#fcaf3c"></path></g></svg>