<svg id="visual" viewBox="0 0 900 600" width="900" height="600" xmlns="http://www.w3.org/2000/svg" xmlns:xlink="http://www.w3.org/1999/xlink" version="1.1"><rect x="0" y="0" width="900" height="600" fill="#ffffff"></rect><path d="M0 63L11.5 66.8C23 70.7 46 78.3 69 81.8C92 85.3 115 84.7 138.2 82.7C161.3 80.7 184.7 77.3 207.8 75C231 72.7 254 71.3 277 70.5C300 69.7 323 69.3 346 73.7C369 78 392 87 415.2 91C438.3 95 461.7 94 484.8 87.5C508 81 531 69 554 69.5C577 70 600 83 623 84C646 85 669 74 692.2 74.2C715.3 74.3 738.7 85.7 761.8 86.8C785 88 808 79 831 72C854 65 877 60 888.5 57.5L900 55L900 0L888.5 0C877 0 854 0 831 0C808 0 785 0 761.8 0C738.7 0 715.3 0 692.2 0C669 0 646 0 623 0C600 0 577 0 554 0C531 0 508 0 484.8 0C461.7 0 438.3 0 415.2 0C392 0 369 0 346 0C323 0 300 0 277 0C254 0 231 0 207.8 0C184.7 0 161.3 0 138.2 0C115 0 92 0 69 0C46 0 23 0 11.5 0L0 0Z" fill="#d7d7d7"></path><path d="M0 65L11.5 63.2C23 61.3 46 57.7 69 53.3C92 49 115 44 138.2 41.2C161.3 38.3 184.7 37.7 207.8 40.7C231 43.7 254 50.3 277 52.5C300 54.7 323 52.3 346 55.3C369 58.3 392 66.7 415.2 71.5C438.3 76.3 461.7 77.7 484.8 75.8C508 74 531 69 554 67C577 65 600 66 623 67.2C646 68.3 669 69.7 692.2 70C715.3 70.3 738.7 69.7 761.8 67.7C785 65.7 808 62.3 831 56.8C854 51.3 877 43.7 888.5 39.8L900 36L900 0L888.5 0C877 0 854 0 831 0C808 0 785 0 761.8 0C738.7 0 715.3 0 692.2 0C669 0 646 0 623 0C600 0 577 0 554 0C531 0 508 0 484.8 0C461.7 0 438.3 0 415.2 0C392 0 369 0 346 0C323 0 300 0 277 0C254 0 231 0 207.8 0C184.7 0 161.3 0 138.2 0C115 0 92 0 69 0C46 0 23 0 11.5 0L0 0Z" fill="#8a8a8a"></path><path d="M0 38L11.5 37.8C23 37.7 46 37.3 69 36.7C92 36 115 35 138.2 36C161.3 37 184.7 40 207.8 38.5C231 37 254 31 277 28.5C300 26 323 27 346 30C369 33 392 38 415.2 43C438.3 48 461.7 53 484.8 49.5C508 46 531 34 554 34C577 34 600 46 623 48.7C646 51.3 669 44.7 692.2 44.3C715.3 44 738.7 50 761.8 48.2C785 46.3 808 36.7 831 36.7C854 36.7 877 46.3 888.5 51.2L900 56L900 0L888.5 0C877 0 854 0 831 0C808 0 785 0 761.8 0C738.7 0 715.3 0 692.2 0C669 0 646 0 623 0C600 0 577 0 554 0C531 0 508 0 484.8 0C461.7 0 438.3 0 415.2 0C392 0 369 0 346 0C323 0 300 0 277 0C254 0 231 0 207.8 0C184.7 0 161.3 0 138.2 0C115 0 92 0 69 0C46 0 23 0 11.5 0L0 0Z" fill="#444444"></path><path d="M0 18L11.5 19.8C23 21.7 46 25.3 69 28.3C92 31.3 115 33.7 138.2 34.5C161.3 35.3 184.7 34.7 207.8 34.3C231 34 254 34 277 31.3C300 28.7 323 23.3 346 22.7C369 22 392 26 415.2 28.2C438.3 30.3 461.7 30.7 484.8 27.5C508 24.3 531 17.7 554 18C577 18.3 600 25.7 623 25.7C646 25.7 669 18.3 692.2 15.3C715.3 12.3 738.7 13.7 761.8 16.7C785 19.7 808 24.3 831 23.8C854 23.3 877 17.7 888.5 14.8L900 12L900 0L888.5 0C877 0 854 0 831 0C808 0 785 0 761.8 0C738.7 0 715.3 0 692.2 0C669 0 646 0 623 0C600 0 577 0 554 0C531 0 508 0 484.8 0C461.7 0 438.3 0 415.2 0C392 0 369 0 346 0C323 0 300 0 277 0C254 0 231 0 207.8 0C184.7 0 161.3 0 138.2 0C115 0 92 0 69 0C46 0 23 0 11.5 0L0 0Z" fill="#000000"></path></svg>