<svg id="visual" viewBox="0 0 900 600" width="900" height="600" xmlns="http://www.w3.org/2000/svg" xmlns:xlink="http://www.w3.org/1999/xlink" version="1.1"><rect x="0" y="0" width="900" height="600" fill="#ffffff"></rect><path d="M0 517L11.5 517.7C23 518.3 46 519.7 69 524C92 528.3 115 535.7 138.2 531.8C161.3 528 184.7 513 207.8 508.8C231 504.7 254 511.3 277 515.7C300 520 323 522 346 523.7C369 525.3 392 526.7 415.2 530.2C438.3 533.7 461.7 539.3 484.8 534.7C508 530 531 515 554 515.5C577 516 600 532 623 535.2C646 538.3 669 528.7 692.2 523.5C715.3 518.3 738.7 517.7 761.8 517.3C785 517 808 517 831 517.3C854 517.7 877 518.3 888.5 518.7L900 519L900 601L888.5 601C877 601 854 601 831 601C808 601 785 601 761.8 601C738.7 601 715.3 601 692.2 601C669 601 646 601 623 601C600 601 577 601 554 601C531 601 508 601 484.8 601C461.7 601 438.3 601 415.2 601C392 601 369 601 346 601C323 601 300 601 277 601C254 601 231 601 207.8 601C184.7 601 161.3 601 138.2 601C115 601 92 601 69 601C46 601 23 601 11.5 601L0 601Z" fill="#d7d7d7"></path><path d="M0 529L11.5 528.5C23 528 46 527 69 526.7C92 526.3 115 526.7 138.2 530.3C161.3 534 184.7 541 207.8 547C231 553 254 558 277 558.8C300 559.7 323 556.3 346 555.5C369 554.7 392 556.3 415.2 554.8C438.3 553.3 461.7 548.7 484.8 549.3C508 550 531 556 554 553.3C577 550.7 600 539.3 623 538.3C646 537.3 669 546.7 692.2 548.8C715.3 551 738.7 546 761.8 545C785 544 808 547 831 545.3C854 543.7 877 537.3 888.5 534.2L900 531L900 601L888.5 601C877 601 854 601 831 601C808 601 785 601 761.8 601C738.7 601 715.3 601 692.2 601C669 601 646 601 623 601C600 601 577 601 554 601C531 601 508 601 484.8 601C461.7 601 438.3 601 415.2 601C392 601 369 601 346 601C323 601 300 601 277 601C254 601 231 601 207.8 601C184.7 601 161.3 601 138.2 601C115 601 92 601 69 601C46 601 23 601 11.5 601L0 601Z" fill="#8a8a8a"></path><path d="M0 575L11.5 575C23 575 46 575 69 570.7C92 566.3 115 557.7 138.2 554.3C161.3 551 184.7 553 207.8 554.5C231 556 254 557 277 560C300 563 323 568 346 569C369 570 392 567 415.2 567C438.3 567 461.7 570 484.8 569.7C508 569.3 531 565.7 554 565.2C577 564.7 600 567.3 623 565.3C646 563.3 669 556.7 692.2 554.5C715.3 552.3 738.7 554.7 761.8 557.7C785 560.7 808 564.3 831 565.8C854 567.3 877 566.7 888.5 566.3L900 566L900 601L888.5 601C877 601 854 601 831 601C808 601 785 601 761.8 601C738.7 601 715.3 601 692.2 601C669 601 646 601 623 601C600 601 577 601 554 601C531 601 508 601 484.8 601C461.7 601 438.3 601 415.2 601C392 601 369 601 346 601C323 601 300 601 277 601C254 601 231 601 207.8 601C184.7 601 161.3 601 138.2 601C115 601 92 601 69 601C46 601 23 601 11.5 601L0 601Z" fill="#444444"></path><path d="M0 587L11.5 586.2C23 585.3 46 583.7 69 582C92 580.3 115 578.7 138.2 575.3C161.3 572 184.7 567 207.8 566.5C231 566 254 570 277 571.5C300 573 323 572 346 573.5C369 575 392 579 415.2 578.5C438.3 578 461.7 573 484.8 570.7C508 568.3 531 568.7 554 569.5C577 570.3 600 571.7 623 573.8C646 576 669 579 692.2 580.8C715.3 582.7 738.7 583.3 761.8 579.8C785 576.3 808 568.7 831 569C854 569.3 877 577.7 888.5 581.8L900 586L900 601L888.5 601C877 601 854 601 831 601C808 601 785 601 761.8 601C738.7 601 715.3 601 692.2 601C669 601 646 601 623 601C600 601 577 601 554 601C531 601 508 601 484.8 601C461.7 601 438.3 601 415.2 601C392 601 369 601 346 601C323 601 300 601 277 601C254 601 231 601 207.8 601C184.7 601 161.3 601 138.2 601C115 601 92 601 69 601C46 601 23 601 11.5 601L0 601Z" fill="#000000"></path></svg>