<svg id="visual" viewBox="0 0 960 100" width="960" height="100" xmlns="http://www.w3.org/2000/svg" xmlns:xlink="http://www.w3.org/1999/xlink" version="1.1"><rect x="0" y="0" width="960" height="100" fill="#FFFFFF"></rect><path d="M0 25L9.3 33C18.7 41 37.3 57 56.2 60.8C75 64.7 94 56.3 112.8 51.8C131.7 47.3 150.3 46.7 169.2 48C188 49.3 207 52.7 225.8 57.2C244.7 61.7 263.3 67.3 282.2 69.5C301 71.7 320 70.3 338.8 65C357.7 59.7 376.3 50.3 395.2 45.2C414 40 433 39 451.8 43.3C470.7 47.7 489.3 57.3 508.2 57.2C527 57 546 47 564.8 47.5C583.7 48 602.3 59 621.2 63.2C640 67.3 659 64.7 677.8 61.2C696.7 57.7 715.3 53.3 734.2 49.5C753 45.7 772 42.3 790.8 40.2C809.7 38 828.3 37 847.2 42.3C866 47.7 885 59.3 903.8 58.2C922.7 57 941.3 43 950.7 36L960 29L960 101L950.7 101C941.3 101 922.7 101 903.8 101C885 101 866 101 847.2 101C828.3 101 809.7 101 790.8 101C772 101 753 101 734.2 101C715.3 101 696.7 101 677.8 101C659 101 640 101 621.2 101C602.3 101 583.7 101 564.8 101C546 101 527 101 508.2 101C489.3 101 470.7 101 451.8 101C433 101 414 101 395.2 101C376.3 101 357.7 101 338.8 101C320 101 301 101 282.2 101C263.3 101 244.7 101 225.8 101C207 101 188 101 169.2 101C150.3 101 131.7 101 112.8 101C94 101 75 101 56.2 101C37.3 101 18.7 101 9.3 101L0 101Z" fill="#000810" stroke-linecap="round" stroke-linejoin="miter"></path></svg>