<svg id="visual" viewBox="0 0 960 100" width="960" height="100" xmlns="http://www.w3.org/2000/svg" xmlns:xlink="http://www.w3.org/1999/xlink" version="1.1"><rect x="0" y="0" width="960" height="100" fill="#FFFFFF"></rect><path d="M0 44L9.3 47.3C18.7 50.7 37.3 57.3 56.2 54.5C75 51.7 94 39.3 112.8 39.8C131.7 40.3 150.3 53.7 169.2 56.3C188 59 207 51 225.8 44.7C244.7 38.3 263.3 33.7 282.2 31.7C301 29.7 320 30.3 338.8 34C357.7 37.7 376.3 44.3 395.2 47C414 49.7 433 48.3 451.8 46.2C470.7 44 489.3 41 508.2 43.8C527 46.7 546 55.3 564.8 58C583.7 60.7 602.3 57.3 621.2 51.3C640 45.3 659 36.7 677.8 32.8C696.7 29 715.3 30 734.2 36C753 42 772 53 790.8 52C809.7 51 828.3 38 847.2 39.2C866 40.3 885 55.7 903.8 63.2C922.7 70.7 941.3 70.3 950.7 70.2L960 70L960 0L950.7 0C941.3 0 922.7 0 903.8 0C885 0 866 0 847.2 0C828.3 0 809.7 0 790.8 0C772 0 753 0 734.2 0C715.3 0 696.7 0 677.8 0C659 0 640 0 621.2 0C602.3 0 583.7 0 564.8 0C546 0 527 0 508.2 0C489.3 0 470.7 0 451.8 0C433 0 414 0 395.2 0C376.3 0 357.7 0 338.8 0C320 0 301 0 282.2 0C263.3 0 244.7 0 225.8 0C207 0 188 0 169.2 0C150.3 0 131.7 0 112.8 0C94 0 75 0 56.2 0C37.3 0 18.7 0 9.3 0L0 0Z" fill="#000810" stroke-linecap="round" stroke-linejoin="miter"></path></svg>