<svg id="visual" viewBox="0 0 2200 60" width="2200" height="60" xmlns="http://www.w3.org/2000/svg" xmlns:xlink="http://www.w3.org/1999/xlink" version="1.1"><path d="M0 8L16 7.8C32 7.7 64 7.3 95.8 10.8C127.7 14.3 159.3 21.7 191.2 22.5C223 23.3 255 17.7 287 15.5C319 13.3 351 14.7 382.8 15.3C414.7 16 446.3 16 478.2 17.5C510 19 542 22 574 22.5C606 23 638 21 669.8 22.3C701.7 23.7 733.3 28.3 765.2 27.5C797 26.7 829 20.3 861 19.8C893 19.3 925 24.7 956.8 22.5C988.7 20.3 1020.3 10.7 1052.2 11.2C1084 11.7 1116 22.3 1147.8 23C1179.7 23.7 1211.3 14.3 1243.2 12.3C1275 10.3 1307 15.7 1339 19.8C1371 24 1403 27 1434.8 25.5C1466.7 24 1498.3 18 1530.2 16.2C1562 14.3 1594 16.7 1626 17C1658 17.3 1690 15.7 1721.8 15.3C1753.7 15 1785.3 16 1817.2 19.3C1849 22.7 1881 28.3 1913 30.2C1945 32 1977 30 2008.8 25.5C2040.7 21 2072.3 14 2104.2 11C2136 8 2168 9 2184 9.5L2200 10L2200 61L2184 61C2168 61 2136 61 2104.2 61C2072.3 61 2040.7 61 2008.8 61C1977 61 1945 61 1913 61C1881 61 1849 61 1817.2 61C1785.3 61 1753.7 61 1721.8 61C1690 61 1658 61 1626 61C1594 61 1562 61 1530.2 61C1498.3 61 1466.7 61 1434.8 61C1403 61 1371 61 1339 61C1307 61 1275 61 1243.2 61C1211.3 61 1179.7 61 1147.8 61C1116 61 1084 61 1052.2 61C1020.3 61 988.7 61 956.8 61C925 61 893 61 861 61C829 61 797 61 765.2 61C733.3 61 701.7 61 669.8 61C638 61 606 61 574 61C542 61 510 61 478.2 61C446.3 61 414.7 61 382.8 61C351 61 319 61 287 61C255 61 223 61 191.2 61C159.3 61 127.7 61 95.8 61C64 61 32 61 16 61L0 61Z" fill="#3472a1"></path><path d="M0 19L16 20.7C32 22.3 64 25.7 95.8 28.7C127.7 31.7 159.3 34.3 191.2 33.3C223 32.3 255 27.7 287 26.2C319 24.7 351 26.3 382.8 26C414.7 25.7 446.3 23.3 478.2 25.5C510 27.7 542 34.3 574 35.8C606 37.3 638 33.7 669.8 28.7C701.7 23.7 733.3 17.3 765.2 14.7C797 12 829 13 861 15C893 17 925 20 956.8 23C988.7 26 1020.3 29 1052.2 31.3C1084 33.7 1116 35.3 1147.8 34.3C1179.7 33.3 1211.3 29.7 1243.2 28.8C1275 28 1307 30 1339 29.8C1371 29.7 1403 27.3 1434.8 24.7C1466.7 22 1498.3 19 1530.2 19.8C1562 20.7 1594 25.3 1626 29.7C1658 34 1690 38 1721.8 37.8C1753.7 37.7 1785.3 33.3 1817.2 31.2C1849 29 1881 29 1913 27.7C1945 26.3 1977 23.7 2008.8 24.2C2040.7 24.7 2072.3 28.3 2104.2 31.3C2136 34.3 2168 36.7 2184 37.8L2200 39L2200 61L2184 61C2168 61 2136 61 2104.2 61C2072.3 61 2040.7 61 2008.8 61C1977 61 1945 61 1913 61C1881 61 1849 61 1817.2 61C1785.3 61 1753.7 61 1721.8 61C1690 61 1658 61 1626 61C1594 61 1562 61 1530.2 61C1498.3 61 1466.7 61 1434.8 61C1403 61 1371 61 1339 61C1307 61 1275 61 1243.2 61C1211.3 61 1179.7 61 1147.8 61C1116 61 1084 61 1052.2 61C1020.3 61 988.7 61 956.8 61C925 61 893 61 861 61C829 61 797 61 765.2 61C733.3 61 701.7 61 669.8 61C638 61 606 61 574 61C542 61 510 61 478.2 61C446.3 61 414.7 61 382.8 61C351 61 319 61 287 61C255 61 223 61 191.2 61C159.3 61 127.7 61 95.8 61C64 61 32 61 16 61L0 61Z" fill="#365577"></path><path d="M0 47L16 47.2C32 47.3 64 47.7 95.8 46.5C127.7 45.3 159.3 42.7 191.2 39.2C223 35.7 255 31.3 287 32C319 32.7 351 38.3 382.8 38.7C414.7 39 446.3 34 478.2 34C510 34 542 39 574 40.3C606 41.7 638 39.3 669.8 36C701.7 32.7 733.3 28.3 765.2 30.5C797 32.7 829 41.3 861 44.7C893 48 925 46 956.8 44.7C988.7 43.3 1020.3 42.7 1052.2 41.3C1084 40 1116 38 1147.8 38.7C1179.7 39.3 1211.3 42.7 1243.2 41.7C1275 40.7 1307 35.3 1339 32.3C1371 29.3 1403 28.7 1434.8 32C1466.7 35.3 1498.3 42.7 1530.2 42C1562 41.3 1594 32.7 1626 32.5C1658 32.3 1690 40.7 1721.8 44.5C1753.7 48.3 1785.3 47.7 1817.2 45.7C1849 43.7 1881 40.3 1913 39.5C1945 38.7 1977 40.3 2008.8 38.3C2040.7 36.3 2072.3 30.7 2104.2 31.5C2136 32.3 2168 39.7 2184 43.3L2200 47L2200 61L2184 61C2168 61 2136 61 2104.2 61C2072.3 61 2040.7 61 2008.8 61C1977 61 1945 61 1913 61C1881 61 1849 61 1817.2 61C1785.3 61 1753.7 61 1721.8 61C1690 61 1658 61 1626 61C1594 61 1562 61 1530.2 61C1498.3 61 1466.7 61 1434.8 61C1403 61 1371 61 1339 61C1307 61 1275 61 1243.2 61C1211.3 61 1179.7 61 1147.8 61C1116 61 1084 61 1052.2 61C1020.3 61 988.7 61 956.8 61C925 61 893 61 861 61C829 61 797 61 765.2 61C733.3 61 701.7 61 669.8 61C638 61 606 61 574 61C542 61 510 61 478.2 61C446.3 61 414.7 61 382.8 61C351 61 319 61 287 61C255 61 223 61 191.2 61C159.3 61 127.7 61 95.8 61C64 61 32 61 16 61L0 61Z" fill="#2e3b50"></path><path d="M0 54L16 53.5C32 53 64 52 95.8 52C127.7 52 159.3 53 191.2 53C223 53 255 52 287 49.7C319 47.3 351 43.7 382.8 44.5C414.7 45.3 446.3 50.7 478.2 51C510 51.3 542 46.7 574 45.7C606 44.7 638 47.3 669.8 49.2C701.7 51 733.3 52 765.2 51.7C797 51.3 829 49.7 861 48C893 46.3 925 44.7 956.8 43.2C988.7 41.7 1020.3 40.3 1052.2 41.2C1084 42 1116 45 1147.8 46.7C1179.7 48.3 1211.3 48.7 1243.2 48C1275 47.3 1307 45.7 1339 44.8C1371 44 1403 44 1434.8 42.8C1466.7 41.7 1498.3 39.3 1530.2 41.7C1562 44 1594 51 1626 53.7C1658 56.3 1690 54.7 1721.8 50.8C1753.7 47 1785.3 41 1817.2 39.2C1849 37.3 1881 39.7 1913 43.5C1945 47.3 1977 52.7 2008.8 52.3C2040.7 52 2072.3 46 2104.2 45.2C2136 44.3 2168 48.7 2184 50.8L2200 53L2200 61L2184 61C2168 61 2136 61 2104.2 61C2072.3 61 2040.7 61 2008.8 61C1977 61 1945 61 1913 61C1881 61 1849 61 1817.2 61C1785.3 61 1753.7 61 1721.8 61C1690 61 1658 61 1626 61C1594 61 1562 61 1530.2 61C1498.3 61 1466.7 61 1434.8 61C1403 61 1371 61 1339 61C1307 61 1275 61 1243.2 61C1211.3 61 1179.7 61 1147.8 61C1116 61 1084 61 1052.2 61C1020.3 61 988.7 61 956.8 61C925 61 893 61 861 61C829 61 797 61 765.2 61C733.3 61 701.7 61 669.8 61C638 61 606 61 574 61C542 61 510 61 478.2 61C446.3 61 414.7 61 382.8 61C351 61 319 61 287 61C255 61 223 61 191.2 61C159.3 61 127.7 61 95.8 61C64 61 32 61 16 61L0 61Z" fill="#21242b"></path></svg>