<svg id="visual" viewBox="0 0 2200 100" width="2200" height="100" xmlns="http://www.w3.org/2000/svg" xmlns:xlink="http://www.w3.org/1999/xlink" version="1.1"><path d="M0 83L16 78.2C32 73.3 64 63.7 95.8 66.3C127.7 69 159.3 84 191.2 81.3C223 78.7 255 58.3 287 56.5C319 54.7 351 71.3 382.8 75.8C414.7 80.3 446.3 72.7 478.2 66.2C510 59.7 542 54.3 574 56.5C606 58.7 638 68.3 669.8 68C701.7 67.7 733.3 57.3 765.2 55.7C797 54 829 61 861 65C893 69 925 70 956.8 67.7C988.7 65.3 1020.3 59.7 1052.2 54.5C1084 49.3 1116 44.7 1147.8 44.2C1179.7 43.7 1211.3 47.3 1243.2 47.7C1275 48 1307 45 1339 50C1371 55 1403 68 1434.8 67C1466.7 66 1498.3 51 1530.2 44.7C1562 38.3 1594 40.7 1626 40.7C1658 40.7 1690 38.3 1721.8 40C1753.7 41.7 1785.3 47.3 1817.2 52.2C1849 57 1881 61 1913 65.5C1945 70 1977 75 2008.8 69.8C2040.7 64.7 2072.3 49.3 2104.2 49.7C2136 50 2168 66 2184 74L2200 82L2200 0L2184 0C2168 0 2136 0 2104.2 0C2072.3 0 2040.7 0 2008.8 0C1977 0 1945 0 1913 0C1881 0 1849 0 1817.2 0C1785.3 0 1753.7 0 1721.8 0C1690 0 1658 0 1626 0C1594 0 1562 0 1530.2 0C1498.3 0 1466.7 0 1434.8 0C1403 0 1371 0 1339 0C1307 0 1275 0 1243.2 0C1211.3 0 1179.7 0 1147.8 0C1116 0 1084 0 1052.2 0C1020.3 0 988.7 0 956.8 0C925 0 893 0 861 0C829 0 797 0 765.2 0C733.3 0 701.7 0 669.8 0C638 0 606 0 574 0C542 0 510 0 478.2 0C446.3 0 414.7 0 382.8 0C351 0 319 0 287 0C255 0 223 0 191.2 0C159.3 0 127.7 0 95.8 0C64 0 32 0 16 0L0 0Z" fill="#7b8ec2"></path><path d="M0 30L16 35.3C32 40.7 64 51.3 95.8 55C127.7 58.7 159.3 55.3 191.2 53.3C223 51.3 255 50.7 287 49C319 47.3 351 44.7 382.8 39.3C414.7 34 446.3 26 478.2 23.7C510 21.3 542 24.7 574 33.2C606 41.7 638 55.3 669.8 57.5C701.7 59.7 733.3 50.3 765.2 41.7C797 33 829 25 861 30.3C893 35.7 925 54.3 956.8 63.3C988.7 72.3 1020.3 71.7 1052.2 70.5C1084 69.3 1116 67.7 1147.8 63.7C1179.7 59.7 1211.3 53.3 1243.2 49.5C1275 45.7 1307 44.3 1339 46C1371 47.7 1403 52.3 1434.8 52.7C1466.7 53 1498.3 49 1530.2 47.7C1562 46.3 1594 47.7 1626 46.5C1658 45.3 1690 41.7 1721.8 40.2C1753.7 38.7 1785.3 39.3 1817.2 41.5C1849 43.7 1881 47.3 1913 46.5C1945 45.7 1977 40.3 2008.8 38.7C2040.7 37 2072.3 39 2104.2 40.3C2136 41.7 2168 42.3 2184 42.7L2200 43L2200 0L2184 0C2168 0 2136 0 2104.2 0C2072.3 0 2040.7 0 2008.8 0C1977 0 1945 0 1913 0C1881 0 1849 0 1817.2 0C1785.3 0 1753.7 0 1721.8 0C1690 0 1658 0 1626 0C1594 0 1562 0 1530.2 0C1498.3 0 1466.7 0 1434.8 0C1403 0 1371 0 1339 0C1307 0 1275 0 1243.2 0C1211.3 0 1179.7 0 1147.8 0C1116 0 1084 0 1052.2 0C1020.3 0 988.7 0 956.8 0C925 0 893 0 861 0C829 0 797 0 765.2 0C733.3 0 701.7 0 669.8 0C638 0 606 0 574 0C542 0 510 0 478.2 0C446.3 0 414.7 0 382.8 0C351 0 319 0 287 0C255 0 223 0 191.2 0C159.3 0 127.7 0 95.8 0C64 0 32 0 16 0L0 0Z" fill="#4963a8"></path><path d="M0 18L16 21C32 24 64 30 95.8 34.8C127.7 39.7 159.3 43.3 191.2 41.7C223 40 255 33 287 26.5C319 20 351 14 382.8 10.5C414.7 7 446.3 6 478.2 10.8C510 15.7 542 26.3 574 31.7C606 37 638 37 669.8 31C701.7 25 733.3 13 765.2 12C797 11 829 21 861 28.8C893 36.7 925 42.3 956.8 42.8C988.7 43.3 1020.3 38.7 1052.2 35.8C1084 33 1116 32 1147.8 29.3C1179.7 26.7 1211.3 22.3 1243.2 19.2C1275 16 1307 14 1339 12C1371 10 1403 8 1434.8 14C1466.7 20 1498.3 34 1530.2 35.7C1562 37.3 1594 26.7 1626 23.2C1658 19.7 1690 23.3 1721.8 28.3C1753.7 33.3 1785.3 39.7 1817.2 42.8C1849 46 1881 46 1913 40.3C1945 34.7 1977 23.3 2008.8 16C2040.7 8.7 2072.3 5.3 2104.2 5.7C2136 6 2168 10 2184 12L2200 14L2200 0L2184 0C2168 0 2136 0 2104.2 0C2072.3 0 2040.7 0 2008.8 0C1977 0 1945 0 1913 0C1881 0 1849 0 1817.2 0C1785.3 0 1753.7 0 1721.8 0C1690 0 1658 0 1626 0C1594 0 1562 0 1530.2 0C1498.3 0 1466.7 0 1434.8 0C1403 0 1371 0 1339 0C1307 0 1275 0 1243.2 0C1211.3 0 1179.7 0 1147.8 0C1116 0 1084 0 1052.2 0C1020.3 0 988.7 0 956.8 0C925 0 893 0 861 0C829 0 797 0 765.2 0C733.3 0 701.7 0 669.8 0C638 0 606 0 574 0C542 0 510 0 478.2 0C446.3 0 414.7 0 382.8 0C351 0 319 0 287 0C255 0 223 0 191.2 0C159.3 0 127.7 0 95.8 0C64 0 32 0 16 0L0 0Z" fill="#34497b"></path></svg>