<svg id="visual" viewBox="0 0 2200 100" width="2200" height="100" xmlns="http://www.w3.org/2000/svg" xmlns:xlink="http://www.w3.org/1999/xlink" version="1.1"><path d="M0 0L16 7.7C32 15.3 64 30.7 95.8 35.5C127.7 40.3 159.3 34.7 191.2 28.3C223 22 255 15 287 12.5C319 10 351 12 382.8 16.2C414.7 20.3 446.3 26.7 478.2 34.3C510 42 542 51 574 53.3C606 55.7 638 51.3 669.8 50.7C701.7 50 733.3 53 765.2 47.3C797 41.7 829 27.3 861 26C893 24.7 925 36.3 956.8 37.2C988.7 38 1020.3 28 1052.2 29.7C1084 31.3 1116 44.7 1147.8 49.8C1179.7 55 1211.3 52 1243.2 48.8C1275 45.7 1307 42.3 1339 35.7C1371 29 1403 19 1434.8 21.5C1466.7 24 1498.3 39 1530.2 41C1562 43 1594 32 1626 27.3C1658 22.7 1690 24.3 1721.8 22.8C1753.7 21.3 1785.3 16.7 1817.2 20C1849 23.3 1881 34.7 1913 33.7C1945 32.7 1977 19.3 2008.8 17.8C2040.7 16.3 2072.3 26.7 2104.2 29.2C2136 31.7 2168 26.3 2184 23.7L2200 21L2200 101L2184 101C2168 101 2136 101 2104.2 101C2072.3 101 2040.7 101 2008.8 101C1977 101 1945 101 1913 101C1881 101 1849 101 1817.2 101C1785.3 101 1753.7 101 1721.8 101C1690 101 1658 101 1626 101C1594 101 1562 101 1530.2 101C1498.3 101 1466.7 101 1434.8 101C1403 101 1371 101 1339 101C1307 101 1275 101 1243.2 101C1211.3 101 1179.7 101 1147.8 101C1116 101 1084 101 1052.2 101C1020.3 101 988.7 101 956.8 101C925 101 893 101 861 101C829 101 797 101 765.2 101C733.3 101 701.7 101 669.8 101C638 101 606 101 574 101C542 101 510 101 478.2 101C446.3 101 414.7 101 382.8 101C351 101 319 101 287 101C255 101 223 101 191.2 101C159.3 101 127.7 101 95.8 101C64 101 32 101 16 101L0 101Z" fill="#7b8ec2"></path><path d="M0 74L16 68.5C32 63 64 52 95.8 49C127.7 46 159.3 51 191.2 54C223 57 255 58 287 53.8C319 49.7 351 40.3 382.8 42C414.7 43.7 446.3 56.3 478.2 62.2C510 68 542 67 574 63.2C606 59.3 638 52.7 669.8 55.2C701.7 57.7 733.3 69.3 765.2 66C797 62.7 829 44.3 861 36.2C893 28 925 30 956.8 31.3C988.7 32.7 1020.3 33.3 1052.2 37.8C1084 42.3 1116 50.7 1147.8 52.7C1179.7 54.7 1211.3 50.3 1243.2 53.2C1275 56 1307 66 1339 68C1371 70 1403 64 1434.8 57.3C1466.7 50.7 1498.3 43.3 1530.2 44C1562 44.7 1594 53.3 1626 56.8C1658 60.3 1690 58.7 1721.8 60C1753.7 61.3 1785.3 65.7 1817.2 65C1849 64.3 1881 58.7 1913 60.5C1945 62.3 1977 71.7 2008.8 74.2C2040.7 76.7 2072.3 72.3 2104.2 64.8C2136 57.3 2168 46.7 2184 41.3L2200 36L2200 101L2184 101C2168 101 2136 101 2104.2 101C2072.3 101 2040.7 101 2008.8 101C1977 101 1945 101 1913 101C1881 101 1849 101 1817.2 101C1785.3 101 1753.7 101 1721.8 101C1690 101 1658 101 1626 101C1594 101 1562 101 1530.2 101C1498.3 101 1466.7 101 1434.8 101C1403 101 1371 101 1339 101C1307 101 1275 101 1243.2 101C1211.3 101 1179.7 101 1147.8 101C1116 101 1084 101 1052.2 101C1020.3 101 988.7 101 956.8 101C925 101 893 101 861 101C829 101 797 101 765.2 101C733.3 101 701.7 101 669.8 101C638 101 606 101 574 101C542 101 510 101 478.2 101C446.3 101 414.7 101 382.8 101C351 101 319 101 287 101C255 101 223 101 191.2 101C159.3 101 127.7 101 95.8 101C64 101 32 101 16 101L0 101Z" fill="#4963a8"></path><path d="M0 69L16 67.8C32 66.7 64 64.3 95.8 63.8C127.7 63.3 159.3 64.7 191.2 69.7C223 74.7 255 83.3 287 82C319 80.7 351 69.3 382.8 66C414.7 62.7 446.3 67.3 478.2 66.2C510 65 542 58 574 60.8C606 63.7 638 76.3 669.8 81C701.7 85.7 733.3 82.3 765.2 75.8C797 69.3 829 59.7 861 55.2C893 50.7 925 51.3 956.8 54.8C988.7 58.3 1020.3 64.7 1052.2 65.2C1084 65.7 1116 60.3 1147.8 63.8C1179.7 67.3 1211.3 79.7 1243.2 84.3C1275 89 1307 86 1339 83.3C1371 80.7 1403 78.3 1434.8 77.2C1466.7 76 1498.3 76 1530.2 73C1562 70 1594 64 1626 61.3C1658 58.7 1690 59.3 1721.8 60.7C1753.7 62 1785.3 64 1817.2 69.3C1849 74.7 1881 83.3 1913 81C1945 78.7 1977 65.3 2008.8 65.3C2040.7 65.3 2072.3 78.7 2104.2 86.5C2136 94.3 2168 96.7 2184 97.8L2200 99L2200 101L2184 101C2168 101 2136 101 2104.2 101C2072.3 101 2040.7 101 2008.8 101C1977 101 1945 101 1913 101C1881 101 1849 101 1817.2 101C1785.3 101 1753.7 101 1721.8 101C1690 101 1658 101 1626 101C1594 101 1562 101 1530.2 101C1498.3 101 1466.7 101 1434.8 101C1403 101 1371 101 1339 101C1307 101 1275 101 1243.2 101C1211.3 101 1179.7 101 1147.8 101C1116 101 1084 101 1052.2 101C1020.3 101 988.7 101 956.8 101C925 101 893 101 861 101C829 101 797 101 765.2 101C733.3 101 701.7 101 669.8 101C638 101 606 101 574 101C542 101 510 101 478.2 101C446.3 101 414.7 101 382.8 101C351 101 319 101 287 101C255 101 223 101 191.2 101C159.3 101 127.7 101 95.8 101C64 101 32 101 16 101L0 101Z" fill="#34497b"></path></svg>