<svg id="visual" viewBox="0 0 2200 100" width="2200" height="100" xmlns="http://www.w3.org/2000/svg" xmlns:xlink="http://www.w3.org/1999/xlink" version="1.1"><path d="M0 8L16 14.2C32 20.3 64 32.7 95.8 41.5C127.7 50.3 159.3 55.7 191.2 55C223 54.3 255 47.7 287 46.3C319 45 351 49 382.8 48.3C414.7 47.7 446.3 42.3 478.2 40.5C510 38.7 542 40.3 574 34.2C606 28 638 14 669.8 15.5C701.7 17 733.3 34 765.2 42.8C797 51.7 829 52.3 861 52.7C893 53 925 53 956.8 46.3C988.7 39.7 1020.3 26.3 1052.2 26.3C1084 26.3 1116 39.7 1147.8 45.8C1179.7 52 1211.3 51 1243.2 50.8C1275 50.7 1307 51.3 1339 46C1371 40.7 1403 29.3 1434.8 21C1466.7 12.7 1498.3 7.3 1530.2 15C1562 22.7 1594 43.3 1626 45.2C1658 47 1690 30 1721.8 23.2C1753.7 16.3 1785.3 19.7 1817.2 19.7C1849 19.7 1881 16.3 1913 14.2C1945 12 1977 11 2008.8 15.3C2040.7 19.7 2072.3 29.3 2104.2 30.8C2136 32.3 2168 25.7 2184 22.3L2200 19L2200 101L2184 101C2168 101 2136 101 2104.2 101C2072.3 101 2040.7 101 2008.8 101C1977 101 1945 101 1913 101C1881 101 1849 101 1817.2 101C1785.3 101 1753.7 101 1721.8 101C1690 101 1658 101 1626 101C1594 101 1562 101 1530.2 101C1498.3 101 1466.7 101 1434.8 101C1403 101 1371 101 1339 101C1307 101 1275 101 1243.2 101C1211.3 101 1179.7 101 1147.8 101C1116 101 1084 101 1052.2 101C1020.3 101 988.7 101 956.8 101C925 101 893 101 861 101C829 101 797 101 765.2 101C733.3 101 701.7 101 669.8 101C638 101 606 101 574 101C542 101 510 101 478.2 101C446.3 101 414.7 101 382.8 101C351 101 319 101 287 101C255 101 223 101 191.2 101C159.3 101 127.7 101 95.8 101C64 101 32 101 16 101L0 101Z" fill="#4963a8"></path><path d="M0 39L16 38.8C32 38.7 64 38.3 95.8 43.5C127.7 48.7 159.3 59.3 191.2 62.2C223 65 255 60 287 59.8C319 59.7 351 64.3 382.8 67.5C414.7 70.7 446.3 72.3 478.2 68.2C510 64 542 54 574 55C606 56 638 68 669.8 72.2C701.7 76.3 733.3 72.7 765.2 63.7C797 54.7 829 40.3 861 41.2C893 42 925 58 956.8 66.7C988.7 75.3 1020.3 76.7 1052.2 77C1084 77.3 1116 76.7 1147.8 68C1179.7 59.3 1211.3 42.7 1243.2 34.3C1275 26 1307 26 1339 29C1371 32 1403 38 1434.8 44.7C1466.7 51.3 1498.3 58.7 1530.2 62C1562 65.3 1594 64.7 1626 65.2C1658 65.7 1690 67.3 1721.8 64C1753.7 60.7 1785.3 52.3 1817.2 46.2C1849 40 1881 36 1913 35.7C1945 35.3 1977 38.7 2008.8 46C2040.7 53.3 2072.3 64.7 2104.2 66.3C2136 68 2168 60 2184 56L2200 52L2200 101L2184 101C2168 101 2136 101 2104.2 101C2072.3 101 2040.7 101 2008.8 101C1977 101 1945 101 1913 101C1881 101 1849 101 1817.2 101C1785.3 101 1753.7 101 1721.8 101C1690 101 1658 101 1626 101C1594 101 1562 101 1530.2 101C1498.3 101 1466.7 101 1434.8 101C1403 101 1371 101 1339 101C1307 101 1275 101 1243.2 101C1211.3 101 1179.7 101 1147.8 101C1116 101 1084 101 1052.2 101C1020.3 101 988.7 101 956.8 101C925 101 893 101 861 101C829 101 797 101 765.2 101C733.3 101 701.7 101 669.8 101C638 101 606 101 574 101C542 101 510 101 478.2 101C446.3 101 414.7 101 382.8 101C351 101 319 101 287 101C255 101 223 101 191.2 101C159.3 101 127.7 101 95.8 101C64 101 32 101 16 101L0 101Z" fill="#383e62"></path><path d="M0 67L16 70.8C32 74.7 64 82.3 95.8 84C127.7 85.7 159.3 81.3 191.2 76.3C223 71.3 255 65.7 287 67C319 68.3 351 76.7 382.8 79.7C414.7 82.7 446.3 80.3 478.2 79C510 77.7 542 77.3 574 80.8C606 84.3 638 91.7 669.8 90C701.7 88.3 733.3 77.7 765.2 74.7C797 71.7 829 76.3 861 78C893 79.7 925 78.3 956.8 73.8C988.7 69.3 1020.3 61.7 1052.2 57.7C1084 53.7 1116 53.3 1147.8 56C1179.7 58.7 1211.3 64.3 1243.2 71.5C1275 78.7 1307 87.3 1339 89C1371 90.7 1403 85.3 1434.8 80.3C1466.7 75.3 1498.3 70.7 1530.2 65.7C1562 60.7 1594 55.3 1626 52.5C1658 49.7 1690 49.3 1721.8 55.3C1753.7 61.3 1785.3 73.7 1817.2 74.5C1849 75.3 1881 64.7 1913 59.3C1945 54 1977 54 2008.8 53.7C2040.7 53.3 2072.3 52.7 2104.2 56.7C2136 60.7 2168 69.3 2184 73.7L2200 78L2200 101L2184 101C2168 101 2136 101 2104.2 101C2072.3 101 2040.7 101 2008.8 101C1977 101 1945 101 1913 101C1881 101 1849 101 1817.2 101C1785.3 101 1753.7 101 1721.8 101C1690 101 1658 101 1626 101C1594 101 1562 101 1530.2 101C1498.3 101 1466.7 101 1434.8 101C1403 101 1371 101 1339 101C1307 101 1275 101 1243.2 101C1211.3 101 1179.7 101 1147.8 101C1116 101 1084 101 1052.2 101C1020.3 101 988.7 101 956.8 101C925 101 893 101 861 101C829 101 797 101 765.2 101C733.3 101 701.7 101 669.8 101C638 101 606 101 574 101C542 101 510 101 478.2 101C446.3 101 414.7 101 382.8 101C351 101 319 101 287 101C255 101 223 101 191.2 101C159.3 101 127.7 101 95.8 101C64 101 32 101 16 101L0 101Z" fill="#1e1e24"></path></svg>