<svg xmlns="http://www.w3.org/2000/svg" viewBox="0 0 500 500"><g id="freepik--Floor--inject-10"><path id="freepik--floor--inject-10" d="M84.65,261c-91.31,52.73-91.31,138.2,0,190.92S324,504.68,415.35,452s91.31-138.19,0-190.92S176,208.31,84.65,261Z" style="fill:#fafafa"></path></g><g id="freepik--Shadows--inject-10"><path id="freepik--Shadow--inject-10" d="M97.45,416.55c10.61,6.2,10.61,16.25,0,22.44s-27.83,6.2-38.45,0-10.61-16.24,0-22.44S86.83,410.35,97.45,416.55Z" style="fill:#e0e0e0"></path><path id="freepik--shadow--inject-10" d="M244.27,369.89l-16-9.26a3.37,3.37,0,0,0-3.06,0l-55.5,32L88,345.53l-8.54,4.93,81.65,47.14L98.52,433.74a.93.93,0,0,0,0,1.76l16,9.26a3.35,3.35,0,0,0,3.05,0l126.65-73.11A.93.93,0,0,0,244.27,369.89Z" style="fill:#e0e0e0"></path><ellipse id="freepik--shadow--inject-10" cx="397.86" cy="415.61" rx="50.64" ry="29.24" style="fill:#e0e0e0"></ellipse><ellipse id="freepik--shadow--inject-10" cx="284.28" cy="408.95" rx="78.06" ry="45.07" style="fill:#e0e0e0"></ellipse></g><g id="freepik--Symbols--inject-10"><g id="freepik--money-icon--inject-10"><path d="M56.74,254.38l1.19,4.83-6.52,1.6L50.22,256c-4.64.47-9.62-.71-12.19-6.13l7.84-4.28A5,5,0,0,0,52,248.46c2.15-.53,3.39-1.76,2.92-3.69-.76-3.08-4.53-2.34-9-2.47-4.79-.17-9.5-1.23-11.07-7.58-1.4-5.7,1.29-9.82,6.67-12l-1.19-4.83,6.58-1.62L48,221.09c5.32-.45,9.25,1.48,11.55,5.54l-7.44,4.12c-.92-2-2.88-2.93-5.79-2.21-2.74.67-3.43,2.14-3.07,3.59.59,2.39,2.76,2.41,7.45,2.43,5,.07,11.3.24,13.08,7.45C65.25,247.83,62.17,252.11,56.74,254.38Z" style="fill:#f0f0f0"></path><path d="M434.38,144.26l-5.71-.92.56-3.47c-2.75-1-5.83-3.06-6-7.56l0-.54,7.3-.72v.63a2.84,2.84,0,0,0,2.59,2.91q2,.32,2.19-1.08c.2-1.24-.95-1.78-3.16-2.7-.5-.21-1-.43-1.56-.67-3.07-1.44-6.1-3.57-5.32-8.42.65-4,3.31-6.22,7.56-6.32l.56-3.47,5.75.93-.56,3.48c3.4,1.26,5.39,3.66,5.77,7l.06.58-7,.73,0-.62c-.06-1.66-1.44-2.23-2.6-2.42-1.35-.21-2.11.11-2.25,1-.18,1.13.55,1.56,3.73,2.92,3,1.33,7.53,3.34,6.64,8.89-.64,4-3.5,6.28-7.91,6.42ZM430,142.38l3.43.55.53-3.3h.5c2.38,0,6.48-.67,7.26-5.45s-3-6.32-6-7.64-4.76-2-4.41-4.17c.09-.58.62-2.42,3.58-1.94,1.95.32,3.2,1.36,3.5,2.9l4.66-.48c-.5-2.7-2.3-4.57-5.36-5.58l-.47-.15.53-3.31-3.47-.56-.53,3.32h-.5c-2.75,0-6.17.85-6.9,5.34-.62,3.86,1.42,5.66,4.66,7.19l1.52.65c2.17.9,4.22,1.75,3.86,4-.26,1.58-1.57,2.34-3.51,2a4,4,0,0,1-3.52-3.41l-5,.49c.4,3.7,3.25,5.37,5.64,6.11l.48.15Z" style="fill:#f0f0f0"></path><path d="M471.87,286.23l-.74-3c-2.51.17-5.67-.44-7.35-3.95l-.2-.42,5.56-3.06.22.5a2.45,2.45,0,0,0,3.05,1.42,2.23,2.23,0,0,0,1.19-.63,1,1,0,0,0,.18-1c-.27-1.06-1.36-1.1-3.44-1.08h-1.47c-2.92-.1-6.05-.75-7.08-4.87-.84-3.34.56-6.08,3.84-7.59l-.74-2.95,4.89-1.23.74,3a7.06,7.06,0,0,1,7,3.56l.25.44-5.33,3-.23-.49a2.27,2.27,0,0,0-2.89-1c-1.15.29-1.64.81-1.45,1.54.25,1,1.15,1.05,4,1.05s7.11.08,8.3,4.8c.84,3.37-.65,6.19-4.09,7.79l.73,3Zm0-4,.7,2.82,2.91-.73-.7-2.81.39-.17c1.9-.79,4.92-2.74,3.91-6.8s-4.51-4-7.33-4-4.48,0-4.93-1.81c-.12-.48-.33-2.13,2.18-2.75A3.28,3.28,0,0,1,472.8,267l3.54-2c-1.32-2-3.39-2.85-6.16-2.61l-.42,0-.7-2.81-2.95.74.7,2.81-.4.17c-2.19.9-4.61,2.78-3.65,6.59.82,3.28,3.05,4,6.14,4.12h1.43c2,0,3.95,0,4.42,1.83a2.06,2.06,0,0,1-.38,1.86,3.21,3.21,0,0,1-1.72.95,3.44,3.44,0,0,1-4-1.51l-3.79,2.09c1.58,2.81,4.42,3.15,6.56,2.93Z" style="fill:#f0f0f0"></path><path d="M42.75,170.41l-1.26-2.76c-2.44.62-5.66.6-8-2.54l-.28-.38,4.91-4,.31.46a2.45,2.45,0,0,0,3.25.84,2.26,2.26,0,0,0,1.06-.84,1,1,0,0,0,0-1c-.45-1-1.54-.83-3.57-.43-.46.09-.94.19-1.45.27-2.89.43-6.09.36-7.85-3.5-1.43-3.13-.56-6.08,2.39-8.17l-1.26-2.76,4.58-2.1,1.27,2.77a7.07,7.07,0,0,1,7.48,2.24l.33.38L40,152.79l-.31-.44a2.27,2.27,0,0,0-3-.49c-1.08.49-1.47,1.09-1.15,1.78.43,1,1.32.83,4.08.31s7-1.22,9,3.2c1.44,3.16.49,6.21-2.6,8.41l1.26,2.77Zm-.71-4,1.21,2.64L46,167.84l-1.21-2.63.36-.24c1.72-1.13,4.34-3.59,2.6-7.4s-5.17-3.12-7.95-2.63-4.4.82-5.17-.88c-.21-.46-.71-2,1.64-3.11a3.28,3.28,0,0,1,3.91.41l3.12-2.59c-1.65-1.7-3.85-2.18-6.53-1.44l-.41.12-1.2-2.63-2.77,1.26,1.21,2.64-.37.23c-2,1.29-4,3.58-2.39,7.15,1.41,3.07,3.74,3.39,6.8,2.93.49-.08,1-.17,1.4-.26,2-.39,3.88-.76,4.68,1a2,2,0,0,1,0,1.89,3.17,3.17,0,0,1-1.51,1.25,3.46,3.46,0,0,1-4.17-.76l-3.34,2.74c2.07,2.47,4.91,2.29,7,1.68Z" style="fill:#f0f0f0"></path><path d="M226.25,72.41l.54-3c-2.35-.89-5-2.75-5.06-6.64v-.47l6.32-.49v.55a2.46,2.46,0,0,0,2.2,2.55,2.21,2.21,0,0,0,1.34-.08,1,1,0,0,0,.56-.8c.2-1.08-.78-1.57-2.68-2.4-.43-.19-.88-.39-1.34-.61-2.62-1.3-5.2-3.18-4.44-7.36.62-3.39,3-5.31,6.64-5.33l.54-3,5,.9-.55,3a7.05,7.05,0,0,1,4.86,6.11l0,.51-6.09.51v-.54c0-1.44-1.2-2-2.2-2.13-1.16-.22-1.83.06-2,.8-.19,1,.62,1.44,3.17,2.59s6.45,3,5.58,7.8c-.62,3.41-3.14,5.37-6.94,5.41l-.55,3Zm1.68-3.66-.52,2.85,3,.54.51-2.85h.43c2.06.06,5.62-.46,6.37-4.58s-2.46-5.51-5-6.71-4.08-1.84-3.75-3.68c.09-.49.59-2.07,3.13-1.61a3.27,3.27,0,0,1,3,2.57l4-.33c-.38-2.34-1.91-4-4.53-4.92l-.4-.14.52-2.84-3-.55-.52,2.85h-.44c-2.37-.09-5.34.63-6,4.49-.6,3.33,1.12,4.92,3.9,6.29.44.22.88.41,1.3.59,1.86.82,3.61,1.59,3.27,3.49A2,2,0,0,1,232,65.74a3.2,3.2,0,0,1-2,.17,3.44,3.44,0,0,1-3-3l-4.32.33c.28,3.21,2.72,4.7,4.77,5.38Z" style="fill:#f0f0f0"></path><path d="M101.71,57.94l-5.22-1.16.72-3.21c-2.51-1-5.29-3.15-5.22-7.37v-.47l6.78-.27,0,.55a2.7,2.7,0,0,0,2.3,2.9c1.23.28,2,0,2.15-.91.26-1.19-.79-1.76-2.83-2.75-.46-.23-.94-.46-1.42-.72-2.78-1.51-5.48-3.65-4.49-8.12.82-3.68,3.44-5.61,7.41-5.45l.72-3.22,5.25,1.17-.72,3.22a7.61,7.61,0,0,1,5,6.8l0,.51-6.53.29V39.2c0-1.59-1.24-2.21-2.32-2.45-1.29-.28-2,0-2.22.82-.24,1.13.61,1.61,3.36,3s6.83,3.52,5.69,8.63c-.81,3.66-3.62,5.66-7.74,5.53Zm-4-1.92,3.26.73.68-3.07.43,0c2.23.14,6.13-.28,7.13-4.74s-2.44-6.11-5.17-7.52-4.31-2.15-3.88-4.09c.12-.53.7-2.19,3.4-1.59,1.81.41,2.91,1.45,3.09,2.92l4.47-.21c-.31-2.58-1.9-4.46-4.73-5.58l-.4-.16.68-3.07-3.3-.73L102.67,32l-.43,0c-2.58-.19-5.86.46-6.79,4.65-.8,3.6,1,5.41,4,7,.47.25.94.48,1.39.7,2,.95,3.81,1.85,3.37,3.87-.33,1.44-1.58,2.06-3.35,1.67a3.66,3.66,0,0,1-3.08-3.39L93,46.69c.15,3.54,2.76,5.27,5,6.11l.4.15Z" style="fill:#f0f0f0"></path><path d="M474.16,203.74l-1,3.27-4.42-1.36,1-3.28c-2.9-1.37-5.42-3.83-5-7.94l6.14.26a3.43,3.43,0,0,0,2.57,3.86c1.46.45,2.63.16,3-1.14.65-2.09-1.84-3-4.44-4.66-2.76-1.8-5.17-4.1-3.84-8.4,1.19-3.86,4.24-5.34,8.2-4.72l1-3.28,4.46,1.38-1,3.28c3.3,1.62,4.93,4.16,4.85,7.37l-5.86-.21c.17-1.51-.66-2.75-2.63-3.36s-2.78,0-3.08,1c-.5,1.62.77,2.4,3.53,4.08s6.58,4.14,5.07,9C481.5,202.9,478.17,204.33,474.16,203.74Z" style="fill:#f0f0f0"></path><path d="M56.12,89.33l1.57,3.42-4.62,2.12L51.5,91.45c-3.38,1-7.25.84-9.93-2.82l5.21-4.3a3.74,3.74,0,0,0,4.93,1.28c1.53-.7,2.28-1.79,1.65-3.15-1-2.18-3.7-1.1-7-.56-3.58.55-7.24.43-9.3-4.06-1.86-4-.44-7.49,3.25-9.88l-1.57-3.42,4.66-2.14,1.57,3.42c3.89-1.09,7.09-.21,9.38,2.48l-4.95,4.12c-1-1.35-2.56-1.77-4.62-.82S42.49,73.68,43,74.71c.78,1.69,2.39,1.39,5.88.74,3.7-.65,8.43-1.43,10.78,3.68C61.51,83.26,59.83,86.88,56.12,89.33Z" style="fill:#f0f0f0"></path><path d="M457.51,82.11l1.74,4.32-5.83,2.35-1.74-4.32c-4.23,1-9,.6-12.1-4.08l6.7-5a4.65,4.65,0,0,0,6,1.87c1.93-.78,2.92-2.08,2.23-3.8-1.11-2.75-4.51-1.57-8.67-1.11-4.47.47-9,.1-11.25-5.57-2.06-5.1-.11-9.27,4.6-12l-1.74-4.31,5.88-2.37,1.74,4.32c4.87-1.12,8.77.16,11.43,3.62l-6.35,4.79c-1.12-1.72-3.06-2.33-5.66-1.29-2.45,1-2.89,2.44-2.37,3.74.86,2.13,2.87,1.87,7.22,1.27,4.61-.59,10.5-1.27,13.1,5.19C464.54,74.93,462.25,79.3,457.51,82.11Z" style="fill:#f0f0f0"></path></g></g><g id="freepik--Board--inject-10"><g id="freepik--board--inject-10"><polygon points="193.7 353.84 193.7 351.02 143.57 380.01 145.97 381.42 193.7 353.84" style="fill:#37474f"></polygon><path d="M131.2,163a.67.67,0,0,1,.32.73L90,348.06l-1.18,5.23a3.12,3.12,0,0,1-1.66-.33l0,0-2.79-1.61a.67.67,0,0,1-.31-.73l42.63-189.24a.66.66,0,0,1,1-.43Z" style="fill:#37474f"></path><path d="M136.41,160.47,93.57,350.61a1.14,1.14,0,0,1-.53.72l-2.79,1.61a2.82,2.82,0,0,1-1.44.35L90,348.06l41.64-184.83Z" style="fill:#455a64"></path><path d="M141.19,416.71v5.5a3.33,3.33,0,0,1-1.54-.35l0,0-2.59-1.5a1.07,1.07,0,0,1-.62-.89V254.35l4.78,2.76Z" style="fill:#37474f"></path><path d="M146,254.36l0,165v.12a1.08,1.08,0,0,1-.63.83l-2.57,1.5a3.2,3.2,0,0,1-1.57.37V257.11Z" style="fill:#455a64"></path><path d="M203.16,386.44a3.3,3.3,0,0,1-1.49-.43L199,384.47a1.39,1.39,0,0,1-.66-.92L169.88,235l4.78,2.76L202.13,381.1Z" style="fill:#37474f"></path><path d="M207.93,383.66v0a1.14,1.14,0,0,1-.66.91L204.84,386l-.12.07a3.33,3.33,0,0,1-1.56.37l-1-5.34L174.66,237.78l4.79-2.75,28.43,148.42v0Z" style="fill:#455a64"></path><polygon points="144.32 387.86 198.47 356.6 198.47 351.09 144.32 382.35 144.32 387.86" style="fill:#455a64"></polygon><path d="M77.09,303.24v2a3.36,3.36,0,0,0,1.52,2.64l16,9.26a3.35,3.35,0,0,0,3,0L224.35,244a3.36,3.36,0,0,0,1.53-2.64v-2a3.35,3.35,0,0,0-1.53-2.64l-16-9.26a3.35,3.35,0,0,0-3.05,0L78.61,300.6A3.38,3.38,0,0,0,77.09,303.24Z" style="fill:#3472a1"></path><path d="M78.61,302.36l16,9.26a3.35,3.35,0,0,0,3,0l126.65-73.11c.85-.49.85-1.28,0-1.76l-16-9.26a3.35,3.35,0,0,0-3.05,0L78.61,300.6A.93.93,0,0,0,78.61,302.36Z" style="fill:#fff;opacity:0.4"></path><path d="M96.17,312v5.51a3.18,3.18,0,0,1-1.51-.36l-16-9.26a3.38,3.38,0,0,1-1.53-2.65v-2a3.38,3.38,0,0,1,1.22-2.43c-.53.48-.42,1.12.31,1.55l16,9.26A3.21,3.21,0,0,0,96.17,312Z" style="opacity:0.1"></path><path d="M90.76,305.18l-4.46-2.57a6,6,0,0,1-2.71-4.4l-11-190.59a5.21,5.21,0,0,1,2.38-4.4l117.71-68a5.63,5.63,0,0,1,5.09,0l4.46,2.58a6.07,6.07,0,0,1,2.71,4.4l11,190.58a5.2,5.2,0,0,1-2.37,4.4l-117.71,68A5.63,5.63,0,0,1,90.76,305.18Z" style="fill:#e0e0e0"></path><path d="M204.86,41.79c-.27-1.29-1.38-1.75-2.66-1l-117.71,68a4.94,4.94,0,0,0-1.75,1.92l-9.55-5.51A4.9,4.9,0,0,1,75,103.22l117.71-68a5.64,5.64,0,0,1,5.08,0l4.48,2.58A6.11,6.11,0,0,1,204.86,41.79Z" style="fill:#f0f0f0"></path><path d="M82.12,113.13l11,190.59a1.67,1.67,0,0,0,2.72,1.46l117.71-68a5.2,5.2,0,0,0,2.37-4.4l-11-190.58a1.67,1.67,0,0,0-2.71-1.47l-117.72,68A5.23,5.23,0,0,0,82.12,113.13Z" style="fill:#fafafa"></path><path d="M203.36,41.59c.3,0,.37.44.39.71l11,190.58A4.06,4.06,0,0,1,213,236.2l-117.71,68a1.14,1.14,0,0,1-.57.19c-.3,0-.37-.44-.38-.7l-11-190.58a4.08,4.08,0,0,1,1.79-3.32l117.71-68a1.26,1.26,0,0,1,.57-.19m0-1.17a2.38,2.38,0,0,0-1.15.34l-117.72,68a5.23,5.23,0,0,0-2.37,4.4l11,190.59c.07,1.15.7,1.81,1.56,1.81a2.33,2.33,0,0,0,1.16-.35l117.71-68a5.2,5.2,0,0,0,2.37-4.4l-11-190.58c-.07-1.15-.7-1.81-1.56-1.81Z" style="fill:#e0e0e0"></path><path d="M166.64,63.48v5.87a2.34,2.34,0,0,1-1.06,1.85l-35.5,20.53a2.35,2.35,0,0,1-2.13,0l-1.16-.67a2.38,2.38,0,0,1-1.07-1.86V84.93l-9.55-5.51-4.76,2.75V75.06a2.36,2.36,0,0,1,1.07-1.85L148,52.69a2.37,2.37,0,0,1,2.14,0l15.48,8.94A2.35,2.35,0,0,1,166.64,63.48Z" style="fill:#263238"></path><path d="M166.64,63.48v5.87a2.35,2.35,0,0,1-1.07,1.85L130.09,91.73A2.22,2.22,0,0,1,129,92V83.65a2.29,2.29,0,0,0,1.07-.26l35.48-20.53c.52-.3.58-.77.19-1.1A2.35,2.35,0,0,1,166.64,63.48Z" style="fill:#37474f"></path><path d="M112.47,74.44,128,83.38a2.37,2.37,0,0,0,2.14,0l35.49-20.52a.65.65,0,0,0,0-1.23L150.1,52.69a2.37,2.37,0,0,0-2.14,0L112.47,73.21A.65.65,0,0,0,112.47,74.44Z" style="fill:#455a64"></path><polygon points="116.27 202.49 102.18 210.62 101.33 194.8 115.41 186.67 116.27 202.49" style="fill:#3472a1"></polygon><polygon points="136.22 190.97 122.13 199.1 120.89 176.02 134.97 167.88 136.22 190.97" style="fill:#3472a1"></polygon><polygon points="156.17 179.45 142.09 187.58 140.02 149.36 154.1 141.23 156.17 179.45" style="fill:#3472a1"></polygon><polygon points="176.13 167.93 162.04 176.06 160.32 144.35 174.41 136.21 176.13 167.93" style="fill:#3472a1"></polygon><polygon points="196.08 156.41 181.99 164.54 178.43 98.67 192.51 90.54 196.08 156.41" style="fill:#3472a1"></polygon><path d="M192.41,108.74l-2.3-13.14-10,12.11,3.11.26c-8.2,25.6-38.82,66.91-72.64,89.11,33.81-17.33,65-51.73,79-88.58Z" style="fill:#3472a1"></path><path d="M192.41,108.74l-2.3-13.14-10,12.11,3.11.26c-8.2,25.6-38.82,66.91-72.64,89.11,33.81-17.33,65-51.73,79-88.58Z" style="fill:#fff;opacity:0.7000000000000001"></path><path d="M132.4,129.36l-32,18.48c-.86.5-1.59,0-1.65-1.1h0a3.37,3.37,0,0,1,1.43-2.88l32-18.49c.85-.49,1.59,0,1.65,1.1h0A3.38,3.38,0,0,1,132.4,129.36Z" style="fill:#455a64"></path><path d="M99.11,154.46a.61.61,0,0,1-.51-.29.6.6,0,0,1,.22-.81l48.57-28a.59.59,0,0,1,.58,1l-48.56,28A.67.67,0,0,1,99.11,154.46Z" style="fill:#e0e0e0"></path><path d="M125.55,211.18a.61.61,0,0,1-.51-.29.6.6,0,0,1,.22-.81l48.56-28a.6.6,0,0,1,.81.22.59.59,0,0,1-.22.8l-48.56,28A.67.67,0,0,1,125.55,211.18Z" style="fill:#e0e0e0"></path><path d="M99.39,159.6a.6.6,0,0,1-.51-.3.58.58,0,0,1,.22-.8l41-23.67a.58.58,0,1,1,.59,1l-41,23.68A.6.6,0,0,1,99.39,159.6Z" style="fill:#e0e0e0"></path><path d="M125.21,228.48l-20.32,11.73c-.54.31-1,0-1-.7h0a2.14,2.14,0,0,1,.91-1.83L125.07,226c.54-.31,1,0,1.05.7h0A2.16,2.16,0,0,1,125.21,228.48Z" style="fill:#455a64"></path><path d="M104.09,246.34a.37.37,0,0,1-.32-.19.37.37,0,0,1,.14-.51l30.81-17.79a.37.37,0,1,1,.37.65l-30.81,17.79A.41.41,0,0,1,104.09,246.34Z" style="fill:#e0e0e0"></path><path d="M104.27,249.59a.37.37,0,0,1-.19-.69l26-15a.37.37,0,0,1,.51.14.37.37,0,0,1-.13.51l-26,15A.29.29,0,0,1,104.27,249.59Z" style="fill:#e0e0e0"></path><path d="M104.44,252.85a.37.37,0,0,1-.18-.69l30.81-17.79a.37.37,0,1,1,.37.64L104.63,252.8A.32.32,0,0,1,104.44,252.85Z" style="fill:#e0e0e0"></path><path d="M104.62,256.11a.36.36,0,0,1-.32-.18.37.37,0,0,1,.14-.51l26-15a.38.38,0,0,1,.51.14.37.37,0,0,1-.14.5l-26,15A.34.34,0,0,1,104.62,256.11Z" style="fill:#e0e0e0"></path><path d="M104.8,259.37a.37.37,0,0,1-.19-.69l30.81-17.79a.36.36,0,0,1,.51.13.37.37,0,0,1-.14.51L105,259.32A.31.31,0,0,1,104.8,259.37Z" style="fill:#e0e0e0"></path><path d="M105,262.63a.38.38,0,0,1-.32-.19.37.37,0,0,1,.14-.5l26-15a.36.36,0,0,1,.51.13.37.37,0,0,1-.14.51l-26,15A.41.41,0,0,1,105,262.63Z" style="fill:#e0e0e0"></path><path d="M105.35,269.68a.37.37,0,0,1-.18-.7L136,251.2a.36.36,0,0,1,.51.13.37.37,0,0,1-.14.51l-30.81,17.79A.41.41,0,0,1,105.35,269.68Z" style="fill:#e0e0e0"></path><path d="M105.53,272.94a.37.37,0,0,1-.32-.19.38.38,0,0,1,.14-.51l26-15a.37.37,0,0,1,.51.13.37.37,0,0,1-.14.51l-26,15A.45.45,0,0,1,105.53,272.94Z" style="fill:#e0e0e0"></path><path d="M105.71,276.2a.39.39,0,0,1-.33-.19.37.37,0,0,1,.14-.51l30.81-17.79a.37.37,0,0,1,.37.65l-30.81,17.79A.41.41,0,0,1,105.71,276.2Z" style="fill:#e0e0e0"></path><path d="M105.88,279.46a.38.38,0,0,1-.32-.19.37.37,0,0,1,.14-.51l26-15a.37.37,0,0,1,.37.65l-26,15A.41.41,0,0,1,105.88,279.46Z" style="fill:#e0e0e0"></path><path d="M106.06,282.72a.38.38,0,0,1-.19-.7l30.81-17.79a.37.37,0,0,1,.51.14.36.36,0,0,1-.13.51l-30.81,17.79A.45.45,0,0,1,106.06,282.72Z" style="fill:#e0e0e0"></path><path d="M106.24,286a.39.39,0,0,1-.33-.19.37.37,0,0,1,.14-.51l26-15a.37.37,0,0,1,.37.65l-26,15A.32.32,0,0,1,106.24,286Z" style="fill:#e0e0e0"></path><path d="M157.68,229.64l-2-17.15a17,17,0,0,1,4-2l-.28,2.63Z" style="fill:#3472a1"></path><path d="M157.68,229.64l-2-17.15a17,17,0,0,1,4-2l-.28,2.63Z" style="fill:#fff;opacity:0.7000000000000001"></path><path d="M158.23,232.36l.4-3.79,1.91-18.28a9.82,9.82,0,0,1,8.14,1.17,11.69,11.69,0,0,1,4.12,5.16l-5.43,5.87Z" style="fill:#3472a1"></path><path d="M158.23,232.36l.4-3.79,1.91-18.28a9.82,9.82,0,0,1,8.14,1.17,11.69,11.69,0,0,1,4.12,5.16l-5.43,5.87Z" style="fill:#fff;opacity:0.30000000000000004"></path><path d="M146.68,255.71c-7-4.66-7.72-18.38-1.65-30.59a32.92,32.92,0,0,1,9.77-12.05l2.46,20.81s0,0,0,0v0l4.84,19C156.69,257.51,150.94,258.57,146.68,255.71Z" style="fill:#3472a1"></path><path d="M162.94,252.18l-4.41-17.27,11.52,7.71A34.51,34.51,0,0,1,162.94,252.18Z" style="fill:#3472a1"></path><path d="M162.94,252.18l-4.41-17.27,11.52,7.71A34.51,34.51,0,0,1,162.94,252.18Z" style="fill:#fff;opacity:0.5"></path><path d="M170.62,241.48l-12.14-8.13,14.67-15.85C175.55,223.94,174.57,233.22,170.62,241.48Z" style="fill:#3472a1"></path><path d="M170.62,241.48l-12.14-8.13,14.67-15.85C175.55,223.94,174.57,233.22,170.62,241.48Z" style="opacity:0.2"></path><polygon points="182.53 201.8 178.89 203.91 178.63 199.19 182.28 197.09 182.53 201.8" style="fill:#3472a1"></polygon><polygon points="182.53 201.8 178.89 203.91 178.63 199.19 182.28 197.09 182.53 201.8" style="fill:#fff;opacity:0.7000000000000001"></polygon><path d="M185.71,196.29a.57.57,0,0,1-.51-.29.59.59,0,0,1,.21-.8l12.12-7a.58.58,0,0,1,.8.21.59.59,0,0,1-.21.81l-12.12,7A.51.51,0,0,1,185.71,196.29Z" style="fill:#e0e0e0"></path><path d="M185.9,199.85a.61.61,0,0,1-.51-.29.59.59,0,0,1,.22-.81l12.11-7a.58.58,0,1,1,.59,1l-12.12,7A.6.6,0,0,1,185.9,199.85Z" style="fill:#e0e0e0"></path><polygon points="183.06 211.47 179.41 213.58 179.16 208.86 182.8 206.76 183.06 211.47" style="fill:#3472a1"></polygon><polygon points="183.06 211.47 179.41 213.58 179.16 208.86 182.8 206.76 183.06 211.47" style="fill:#fff;opacity:0.30000000000000004"></polygon><path d="M186.23,206a.59.59,0,0,1-.51-.29.58.58,0,0,1,.22-.8l12.11-7a.59.59,0,1,1,.59,1l-12.12,7A.51.51,0,0,1,186.23,206Z" style="fill:#e0e0e0"></path><path d="M186.42,209.52a.58.58,0,0,1-.29-1.09l12.12-7a.59.59,0,0,1,.8.21.59.59,0,0,1-.22.81l-12.11,7A.56.56,0,0,1,186.42,209.52Z" style="fill:#e0e0e0"></path><polygon points="183.58 221.14 179.93 223.25 179.68 218.53 183.32 216.43 183.58 221.14" style="fill:#3472a1"></polygon><polygon points="183.58 221.14 179.93 223.25 179.68 218.53 183.32 216.43 183.58 221.14" style="opacity:0.2"></polygon><path d="M186.75,215.63a.58.58,0,0,1-.29-1.09l12.12-7a.59.59,0,0,1,.58,1l-12.11,7A.56.56,0,0,1,186.75,215.63Z" style="fill:#e0e0e0"></path><path d="M187,219.19a.58.58,0,0,1-.3-1.09l12.12-7a.59.59,0,0,1,.59,1l-12.12,7A.51.51,0,0,1,187,219.19Z" style="fill:#e0e0e0"></path><polygon points="184.1 230.81 180.46 232.92 180.2 228.21 183.85 226.1 184.1 230.81" style="fill:#3472a1"></polygon><polygon points="184.1 230.81 180.46 232.92 180.2 228.21 183.85 226.1 184.1 230.81" style="fill:#fff;opacity:0.5"></polygon><path d="M187.28,225.3a.57.57,0,0,1-.51-.29.59.59,0,0,1,.21-.8l12.12-7a.59.59,0,0,1,.8.22.58.58,0,0,1-.21.8l-12.12,7A.59.59,0,0,1,187.28,225.3Z" style="fill:#e0e0e0"></path><path d="M187.47,228.86a.58.58,0,0,1-.3-1.09l12.12-7a.59.59,0,0,1,.59,1l-12.12,7A.51.51,0,0,1,187.47,228.86Z" style="fill:#e0e0e0"></path><polygon points="184.62 240.49 180.98 242.59 180.73 237.88 184.37 235.77 184.62 240.49" style="fill:#3472a1"></polygon><path d="M187.8,235a.6.6,0,0,1-.51-.3.58.58,0,0,1,.22-.8l12.11-7a.59.59,0,0,1,.8.22.58.58,0,0,1-.21.8l-12.12,7A.6.6,0,0,1,187.8,235Z" style="fill:#e0e0e0"></path><path d="M188,238.53a.58.58,0,0,1-.29-1.09l12.12-7a.58.58,0,0,1,.8.22.59.59,0,0,1-.22.8l-12.11,7A.66.66,0,0,1,188,238.53Z" style="fill:#e0e0e0"></path><path d="M116.07,111.82a2.1,2.1,0,0,1,2-.35c.48.23.75.84.8,1.81a4.65,4.65,0,0,1-.56,2.61,4.92,4.92,0,0,1-1.88,1.88l-1.64.94.16,3a.55.55,0,0,1-.07.3.46.46,0,0,1-.19.22l-.83.48a.18.18,0,0,1-.2,0,.25.25,0,0,1-.09-.2l-.46-8.54a.55.55,0,0,1,.07-.3.58.58,0,0,1,.18-.22Zm-1.41,5.24,1.59-.91a2.73,2.73,0,0,0,.91-.84,2,2,0,0,0,.29-1.24c0-.49-.16-.76-.4-.82a1.39,1.39,0,0,0-1,.25l-1.58.92Z" style="fill:#455a64"></path><path d="M122.4,112.26a2.06,2.06,0,0,0-.87.86,2.56,2.56,0,0,0-.21,1.3l.19,3.44a.65.65,0,0,1-.07.29.47.47,0,0,1-.19.22l-.78.45a.18.18,0,0,1-.2,0,.23.23,0,0,1-.09-.21l-.34-6.16a.72.72,0,0,1,.07-.3.44.44,0,0,1,.19-.21l.78-.45a.17.17,0,0,1,.2,0,.23.23,0,0,1,.09.2l0,.31a4.32,4.32,0,0,1,.54-.82,3.16,3.16,0,0,1,.78-.63l.46-.26a.17.17,0,0,1,.2,0,.23.23,0,0,1,.1.2l0,.88a.65.65,0,0,1-.07.29.47.47,0,0,1-.19.22Z" style="fill:#455a64"></path><path d="M123.94,113.28a5.83,5.83,0,0,1,.1-1.5,6,6,0,0,1,.43-1.42,5.58,5.58,0,0,1,.76-1.22,3.68,3.68,0,0,1,1-.88,2.13,2.13,0,0,1,1-.33,1.31,1.31,0,0,1,.83.27,1.8,1.8,0,0,1,.57.78,3.54,3.54,0,0,1,.24,1.19l0,.59a.66.66,0,0,1-.07.3.52.52,0,0,1-.19.22l-3.41,2a1.06,1.06,0,0,0,.12.48.58.58,0,0,0,.28.24.76.76,0,0,0,.4,0,1.46,1.46,0,0,0,.44-.18,2.16,2.16,0,0,0,.85-.8,1.25,1.25,0,0,1,.18-.25.62.62,0,0,1,.19-.16l.82-.47a.21.21,0,0,1,.2,0c.07,0,.09.11.09.21a1.82,1.82,0,0,1-.13.57,4.81,4.81,0,0,1-.41.82,6.2,6.2,0,0,1-.71.9,4.12,4.12,0,0,1-1,.78,2.26,2.26,0,0,1-1,.34,1.18,1.18,0,0,1-.83-.28,2,2,0,0,1-.56-.84A4.21,4.21,0,0,1,123.94,113.28Zm2.39-3.43a2.2,2.2,0,0,0-.5.4,2.7,2.7,0,0,0-.33.5,2.07,2.07,0,0,0-.2.52,3.08,3.08,0,0,0-.08.47l2.31-1.33a2.62,2.62,0,0,0-.09-.38.61.61,0,0,0-.21-.28.5.5,0,0,0-.35-.1A1.16,1.16,0,0,0,126.33,109.85Z" style="fill:#455a64"></path><path d="M133.05,109.53a.27.27,0,0,0-.09-.2.41.41,0,0,0-.26,0,2.58,2.58,0,0,0-.48.11l-.77.23a2.32,2.32,0,0,1-.77.1.89.89,0,0,1-.5-.19.92.92,0,0,1-.28-.46,2.62,2.62,0,0,1-.11-.69,3,3,0,0,1,.1-.86,3.81,3.81,0,0,1,.38-.92,4.68,4.68,0,0,1,.63-.87,3.73,3.73,0,0,1,.88-.69,2.81,2.81,0,0,1,.9-.37,1.47,1.47,0,0,1,.69,0,.78.78,0,0,1,.46.3,1.08,1.08,0,0,1,.21.53.58.58,0,0,1-.06.3.62.62,0,0,1-.2.22l-.78.45c-.11.06-.18.08-.24.06l-.17-.07a.69.69,0,0,0-.26,0,1.26,1.26,0,0,0-.46.19,2.12,2.12,0,0,0-.54.44.74.74,0,0,0-.21.55.34.34,0,0,0,.07.22.27.27,0,0,0,.22,0,2.93,2.93,0,0,0,.45-.09c.19,0,.44-.12.74-.22a1.49,1.49,0,0,1,1.33.05,1.4,1.4,0,0,1,.44,1.11,2.48,2.48,0,0,1-.11.87,3.78,3.78,0,0,1-.41.93,4.64,4.64,0,0,1-.69.89,4.54,4.54,0,0,1-.94.73,3.27,3.27,0,0,1-1,.38,1.55,1.55,0,0,1-.72,0,.92.92,0,0,1-.47-.34,1.08,1.08,0,0,1-.2-.56.52.52,0,0,1,.06-.29.48.48,0,0,1,.2-.22l.78-.46a.25.25,0,0,1,.24,0l.18.11a.58.58,0,0,0,.28.06,1.48,1.48,0,0,0,.53-.21l.32-.21a3.73,3.73,0,0,0,.3-.26,2,2,0,0,0,.22-.29A.67.67,0,0,0,133.05,109.53Z" style="fill:#455a64"></path><path d="M135.12,106.82a6.93,6.93,0,0,1,.1-1.5,6,6,0,0,1,.44-1.42,5.19,5.19,0,0,1,.75-1.22,3.58,3.58,0,0,1,1-.88,2.13,2.13,0,0,1,1.05-.33,1.37,1.37,0,0,1,.83.27,1.87,1.87,0,0,1,.56.78,3.31,3.31,0,0,1,.25,1.19l0,.59a.54.54,0,0,1-.06.3.52.52,0,0,1-.19.22l-3.42,2a1.05,1.05,0,0,0,.13.48.54.54,0,0,0,.28.24.73.73,0,0,0,.39,0,1.41,1.41,0,0,0,.45-.18,2,2,0,0,0,.52-.39,2,2,0,0,0,.33-.41,1.25,1.25,0,0,1,.18-.25.62.62,0,0,1,.19-.16l.82-.47a.21.21,0,0,1,.2,0,.23.23,0,0,1,.09.21,1.82,1.82,0,0,1-.13.57,4.26,4.26,0,0,1-.42.82,5.5,5.5,0,0,1-.7.9,4.33,4.33,0,0,1-1,.78,2.26,2.26,0,0,1-1,.34,1.21,1.21,0,0,1-.83-.27,2,2,0,0,1-.56-.84A4.62,4.62,0,0,1,135.12,106.82Zm2.4-3.43a2,2,0,0,0-.5.4,2.76,2.76,0,0,0-.34.5,2.5,2.5,0,0,0-.19.52,2.31,2.31,0,0,0-.08.47l2.31-1.33a1.56,1.56,0,0,0-.1-.37.56.56,0,0,0-.2-.29.5.5,0,0,0-.35-.1A1.16,1.16,0,0,0,137.52,103.39Z" style="fill:#455a64"></path><path d="M146.41,103.48a.58.58,0,0,1-.25.51l-.78.45a.21.21,0,0,1-.2,0,.23.23,0,0,1-.09-.21l-.19-3.36a1.61,1.61,0,0,0-.35-1.1q-.31-.32-.9,0a2,2,0,0,0-.83,1,3.29,3.29,0,0,0-.25,1.45l.19,3.36a.72.72,0,0,1-.07.3.49.49,0,0,1-.19.21l-.78.45a.17.17,0,0,1-.2,0,.23.23,0,0,1-.09-.2l-.34-6.17a.65.65,0,0,1,.07-.29.42.42,0,0,1,.19-.22l.78-.45a.18.18,0,0,1,.2,0,.26.26,0,0,1,.09.21l0,.3a5,5,0,0,1,.59-.93,3,3,0,0,1,.84-.71,2.06,2.06,0,0,1,1.06-.35,1,1,0,0,1,.71.28,1.75,1.75,0,0,1,.41.78,5.17,5.17,0,0,1,.17,1.12Z" style="fill:#455a64"></path><path d="M149.4,99.56a.71.71,0,0,0,.2.55c.13.1.34.06.65-.11l.62-.36a.17.17,0,0,1,.2,0,.23.23,0,0,1,.09.2l.05.87a.55.55,0,0,1-.07.3.42.42,0,0,1-.19.22l-.75.44a1.57,1.57,0,0,1-1.51.25c-.37-.2-.57-.72-.62-1.55l-.15-2.84-.68.39a.17.17,0,0,1-.2,0,.23.23,0,0,1-.09-.21l0-.87a.66.66,0,0,1,.07-.3.52.52,0,0,1,.19-.22l.67-.38-.11-2.16a.54.54,0,0,1,.06-.3.6.6,0,0,1,.19-.22l.78-.45a.18.18,0,0,1,.2,0,.26.26,0,0,1,.1.2l.11,2.16,1.32-.76a.17.17,0,0,1,.2,0,.26.26,0,0,1,.1.2l0,.88a.46.46,0,0,1-.07.29.46.46,0,0,1-.18.22l-1.32.77Z" style="fill:#455a64"></path><path d="M152,95.3a3.12,3.12,0,0,1,.16-.7,4.59,4.59,0,0,1,1-1.68,3.77,3.77,0,0,1,.9-.71,2.76,2.76,0,0,1,1-.36,1.22,1.22,0,0,1,.75.1,1.18,1.18,0,0,1,.51.6,3,3,0,0,1,.23,1.1l.21,3.89a.55.55,0,0,1-.07.3.51.51,0,0,1-.18.22l-.78.45a.18.18,0,0,1-.2,0,.24.24,0,0,1-.1-.2l0-.44a4.16,4.16,0,0,1-.58,1,3.36,3.36,0,0,1-1,.87,2.17,2.17,0,0,1-.79.3,1,1,0,0,1-.61-.09,1,1,0,0,1-.4-.45,2,2,0,0,1-.17-.75,3.08,3.08,0,0,1,.42-1.72,5.6,5.6,0,0,1,1.31-1.47l1.64-1.33c0-.37-.12-.57-.32-.61a1,1,0,0,0-.69.17,1.7,1.7,0,0,0-.4.32,3.21,3.21,0,0,0-.26.41,1.57,1.57,0,0,1-.16.25.55.55,0,0,1-.17.13l-.95.55a.17.17,0,0,1-.18,0S151.94,95.4,152,95.3ZM153.86,98a2.4,2.4,0,0,0,.61-.48,2.71,2.71,0,0,0,.44-.6,2.75,2.75,0,0,0,.25-.63,2.14,2.14,0,0,0,.06-.6V95.6l-1.38,1.12a2.76,2.76,0,0,0-.59.62,1,1,0,0,0-.15.59c0,.18.09.28.24.28A1,1,0,0,0,153.86,98Z" style="fill:#455a64"></path><path d="M159.69,93.62a.75.75,0,0,0,.2.56c.12.09.33,0,.64-.12l.63-.36a.17.17,0,0,1,.2,0,.25.25,0,0,1,.09.2l.05.88a.72.72,0,0,1-.07.3.44.44,0,0,1-.19.21l-.76.44A1.56,1.56,0,0,1,159,96c-.36-.2-.57-.72-.61-1.55l-.16-2.84-.67.39a.17.17,0,0,1-.2,0,.26.26,0,0,1-.1-.21l0-.87a.7.7,0,0,1,.06-.3.56.56,0,0,1,.19-.21l.68-.39L158,87.84a.69.69,0,0,1,.07-.3.52.52,0,0,1,.19-.22l.78-.44a.17.17,0,0,1,.2,0,.25.25,0,0,1,.09.2l.12,2.16,1.32-.76a.17.17,0,0,1,.2,0,.23.23,0,0,1,.09.2l.05.88a.59.59,0,0,1-.07.3.44.44,0,0,1-.19.21l-1.32.77Z" style="fill:#455a64"></path><path d="M163.12,84.52a.21.21,0,0,1,.2,0,.26.26,0,0,1,.09.21l.06,1a.66.66,0,0,1-.07.3.52.52,0,0,1-.19.22l-.88.5a.17.17,0,0,1-.2,0,.23.23,0,0,1-.09-.21l-.06-1a.65.65,0,0,1,.07-.29.42.42,0,0,1,.19-.22Zm.71,8.9a.55.55,0,0,1-.07.3.52.52,0,0,1-.19.22l-.77.45a.18.18,0,0,1-.2,0,.26.26,0,0,1-.1-.2L162.17,88a.54.54,0,0,1,.06-.3.6.6,0,0,1,.19-.22l.78-.45a.18.18,0,0,1,.2,0,.24.24,0,0,1,.1.2Z" style="fill:#455a64"></path><path d="M167.22,84.6a2.71,2.71,0,0,1,1-.36,1.38,1.38,0,0,1,.82.17,1.52,1.52,0,0,1,.58.62,2.62,2.62,0,0,1,.3,1,2.36,2.36,0,0,1,0,.3l0,.37c0,.12,0,.24,0,.36s0,.22,0,.31a6.24,6.24,0,0,1-.17,1.27,5.84,5.84,0,0,1-.48,1.22,5.06,5.06,0,0,1-.76,1.07,3.87,3.87,0,0,1-1,.81,2.58,2.58,0,0,1-1,.37,1.46,1.46,0,0,1-.82-.16,1.52,1.52,0,0,1-.58-.62,2.67,2.67,0,0,1-.29-1,1.84,1.84,0,0,1,0-.29c0-.12,0-.24,0-.36s0-.25,0-.37V89a5,5,0,0,1,.17-1.26,6.63,6.63,0,0,1,.48-1.24,5.06,5.06,0,0,1,.76-1.07A4.13,4.13,0,0,1,167.22,84.6Zm1.4,2.26a1.32,1.32,0,0,0-.19-.59.55.55,0,0,0-.31-.26.65.65,0,0,0-.39,0,1.9,1.9,0,0,0-.42.18,2.32,2.32,0,0,0-.42.3,2.29,2.29,0,0,0-.36.44,2.37,2.37,0,0,0-.27.6,2.53,2.53,0,0,0-.11.76,1.3,1.3,0,0,0,0,.28c0,.1,0,.22,0,.33s0,.23,0,.33,0,.2,0,.25a1.57,1.57,0,0,0,.19.6.59.59,0,0,0,.31.26.65.65,0,0,0,.39,0,1.9,1.9,0,0,0,.42-.18,4,4,0,0,0,.42-.3,2.33,2.33,0,0,0,.37-.44,2.36,2.36,0,0,0,.26-.6,2.6,2.6,0,0,0,.11-.77,1.11,1.11,0,0,0,0-.26c0-.11,0-.22,0-.34s0-.22,0-.33S168.63,86.93,168.62,86.86Z" style="fill:#455a64"></path><path d="M176.32,86.21a.66.66,0,0,1-.07.3.52.52,0,0,1-.19.22l-.78.45a.18.18,0,0,1-.2,0A.22.22,0,0,1,175,87l-.19-3.36a1.61,1.61,0,0,0-.35-1.1c-.21-.21-.51-.2-.91,0a2.05,2.05,0,0,0-.83,1,3.15,3.15,0,0,0-.24,1.45l.18,3.36a.46.46,0,0,1-.07.29.41.41,0,0,1-.18.22l-.78.45a.17.17,0,0,1-.2,0,.26.26,0,0,1-.1-.21L171,82.93a.72.72,0,0,1,.07-.3.44.44,0,0,1,.19-.21L172,82a.17.17,0,0,1,.2,0,.24.24,0,0,1,.1.21l0,.3a5,5,0,0,1,.59-.93,2.89,2.89,0,0,1,.84-.71,2.18,2.18,0,0,1,1-.36,1,1,0,0,1,.71.29,1.62,1.62,0,0,1,.42.78,5.17,5.17,0,0,1,.17,1.12Z" style="fill:#455a64"></path></g></g><g id="freepik--Plant--inject-10"><g id="freepik--plant--inject-10"><g id="freepik--Pot--inject-10"><path d="M60.09,430.76c-9.71-10-15.4-35.31-5.94-43.25H102.3c9.46,7.94,3.77,33.23-5.93,43.24-.08.1-.18.19-.26.28l-.34.33a11.42,11.42,0,0,1-.88.79l-.23.18c-.24.19-.47.38-.73.56a11.53,11.53,0,0,1-1.25.81c-8,4.66-20.92,4.66-28.91,0h0a14.82,14.82,0,0,1-1.26-.81c-.24-.17-.46-.35-.68-.52l-.29-.23c-.3-.25-.58-.5-.84-.76l-.39-.38Z" style="fill:#37474f"></path><path d="M98.12,384.32c11,6.41,11,16.81,0,23.22s-28.8,6.42-39.79,0-11-16.81,0-23.22S87.13,377.9,98.12,384.32Z" style="fill:#455a64"></path><path d="M92.83,387.4c8.07,4.71,8.07,12.35,0,17.06s-21.15,4.71-29.21,0-8.07-12.35,0-17.06S84.77,382.69,92.83,387.4Z" style="fill:#263238"></path><path d="M63.62,395.5c8.06-4.71,21.15-4.71,29.21,0A13.41,13.41,0,0,1,97.67,400a13.5,13.5,0,0,1-4.84,4.48c-8.06,4.71-21.15,4.71-29.21,0A13.58,13.58,0,0,1,58.78,400,13.49,13.49,0,0,1,63.62,395.5Z" style="fill:#fff"></path></g><path d="M71.63,349.21c-3.25,4.11-13,5.91-17.88-4.15-4.56-9.43-9.39-18.34-10.84-21.82a3.67,3.67,0,0,1,2-4.92s-.12-5.37,9.21-2.44,16.14,7.94,20.76,16.53S77.6,347.55,71.63,349.21Z" style="fill:#3472a1"></path><g style="opacity:0.5"><path d="M71.63,349.21c-3.25,4.11-13,5.91-17.88-4.15-4.56-9.43-9.39-18.34-10.84-21.82a3.67,3.67,0,0,1,2-4.92s-.12-5.37,9.21-2.44,16.14,7.94,20.76,16.53S77.6,347.55,71.63,349.21Z" style="fill:#fff"></path></g><path d="M76.6,362.62a49.18,49.18,0,0,0-1.2-5.35,74.42,74.42,0,0,0-3.8-10.2,76.93,76.93,0,0,0-12-18.58,66.53,66.53,0,0,0-9-8.72c-.1-.08-.16.13-.09.19a82.58,82.58,0,0,1,14.28,16.87,83.22,83.22,0,0,1,9,19.67c.59,1.93,1.17,3.88,1.68,5.84s.89,4,1.38,6c0,.2.37.3.37,0A38.44,38.44,0,0,0,76.6,362.62Z" style="fill:#3472a1"></path><path d="M76.6,362.62a49.18,49.18,0,0,0-1.2-5.35,74.42,74.42,0,0,0-3.8-10.2,76.93,76.93,0,0,0-12-18.58,66.53,66.53,0,0,0-9-8.72c-.1-.08-.16.13-.09.19a82.58,82.58,0,0,1,14.28,16.87,83.22,83.22,0,0,1,9,19.67c.59,1.93,1.17,3.88,1.68,5.84s.89,4,1.38,6c0,.2.37.3.37,0A38.44,38.44,0,0,0,76.6,362.62Z" style="opacity:0.30000000000000004"></path><path d="M82.22,342c-8.47,2.62-14.77-4-12.59-14.36s13.08-21.89,17.19-18.8c2.57-2.56,8.23-1.64,10.9,6.78S98,345.68,82.22,342Z" style="fill:#3472a1"></path><g style="opacity:0.30000000000000004"><path d="M82.22,342c-8.47,2.62-14.77-4-12.59-14.36s13.08-21.89,17.19-18.8c2.57-2.56,8.23-1.64,10.9,6.78S98,345.68,82.22,342Z" style="fill:#fff"></path></g><path d="M87.19,315.15a114.05,114.05,0,0,0-5.63,18.64,181.29,181.29,0,0,0-3.27,19.51c-1.52,12.67-1.78,12-1.7,24.72q0,5.3.14,10.59c.07,3.62,0,7.3.32,10.92.12,1.38,2.09,1,2.12-.26.12-6.35-.22-12.73-.29-19.08s0,.95.12-5.33a265.69,265.69,0,0,1,3.43-38.19c.6-3.51,1.27-7,2.09-10.5.87-3.65,1.92-7.25,2.88-10.88C87.44,315.15,87.28,315,87.19,315.15Z" style="fill:#3472a1"></path><path d="M87.19,315.15a114.05,114.05,0,0,0-5.63,18.64,181.29,181.29,0,0,0-3.27,19.51c-1.52,12.67-1.78,12-1.7,24.72q0,5.3.14,10.59c.07,3.62,0,7.3.32,10.92.12,1.38,2.09,1,2.12-.26.12-6.35-.22-12.73-.29-19.08s0,.95.12-5.33a265.69,265.69,0,0,1,3.43-38.19c.6-3.51,1.27-7,2.09-10.5.87-3.65,1.92-7.25,2.88-10.88C87.44,315.15,87.28,315,87.19,315.15Z" style="opacity:0.30000000000000004"></path><path d="M62.61,370c-1.08,5.49-8.6,9.44-17.28,5.85s-25.8-26.16-18-28.64c-.43-4.1,23.22-7.46,34.92,7C70.77,364.68,62.61,370,62.61,370Z" style="fill:#3472a1"></path><g style="opacity:0.7000000000000001"><path d="M62.61,370c-1.08,5.49-8.6,9.44-17.28,5.85s-25.8-26.16-18-28.64c-.43-4.1,23.22-7.46,34.92,7C70.77,364.68,62.61,370,62.61,370Z" style="fill:#fff"></path></g><path d="M75,378.18a39.24,39.24,0,0,0-3.52-3.88q-3.81-3.76-8-7.13a107.44,107.44,0,0,0-18.32-11.78,94.86,94.86,0,0,0-11.06-5c-.1,0-.06.16,0,.19,3.16,1.49,6.32,2.94,9.37,4.65a107,107,0,0,1,9.2,5.8,133.18,133.18,0,0,1,16.16,13.23c1.43,1.37,2.79,2.82,4.23,4.17s3.11,2.71,4.54,4.19c.21.21.59.11.36-.2C77,381,76.09,379.55,75,378.18Z" style="fill:#3472a1"></path><path d="M75,378.18a39.24,39.24,0,0,0-3.52-3.88q-3.81-3.76-8-7.13a107.44,107.44,0,0,0-18.32-11.78,94.86,94.86,0,0,0-11.06-5c-.1,0-.06.16,0,.19,3.16,1.49,6.32,2.94,9.37,4.65a107,107,0,0,1,9.2,5.8,133.18,133.18,0,0,1,16.16,13.23c1.43,1.37,2.79,2.82,4.23,4.17s3.11,2.71,4.54,4.19c.21.21.59.11.36-.2C77,381,76.09,379.55,75,378.18Z" style="opacity:0.30000000000000004"></path><path d="M110.67,363.42c-.14-3.09-15.71-2.92-23,2.94S79.51,378,84.05,380c-.79,6.52,9.5,10.82,18.72,2.66S114,364.06,110.67,363.42Z" style="fill:#3472a1"></path><path d="M110.67,363.42c-.14-3.09-15.71-2.92-23,2.94S79.51,378,84.05,380c-.79,6.52,9.5,10.82,18.72,2.66S114,364.06,110.67,363.42Z" style="fill:#fff;opacity:0.30000000000000004"></path><path d="M95.34,371.58a38.36,38.36,0,0,0-17.2,15.11c-.23.38.36,1.11.61.7a44.49,44.49,0,0,1,16.59-15.7S95.4,371.55,95.34,371.58Z" style="fill:#3472a1"></path><path d="M95.34,371.58a38.36,38.36,0,0,0-17.2,15.11c-.23.38.36,1.11.61.7a44.49,44.49,0,0,1,16.59-15.7S95.4,371.55,95.34,371.58Z" style="opacity:0.30000000000000004"></path><path d="M85,390c-5.28,5.18.55,11.59,9.1,14.77s18,1,22.12-1,5-3.09,5-3.09-2-6.8-4.37-10.46a21.91,21.91,0,0,0-21.56-9.91C84.32,381.69,83.43,386.24,85,390Z" style="fill:#3472a1"></path><g style="opacity:0.5"><path d="M85,390c-5.28,5.18.55,11.59,9.1,14.77s18,1,22.12-1,5-3.09,5-3.09-2-6.8-4.37-10.46a21.91,21.91,0,0,0-21.56-9.91C84.32,381.69,83.43,386.24,85,390Z" style="fill:#fff"></path></g><path d="M107.11,393.9a55.13,55.13,0,0,0-13.4-5c-4.59-.89-10.23-.93-13.94,2.34-1.44,1.26-3.35,4-2.18,6,.12.2.7.56.82.17a19.45,19.45,0,0,1,1.18-3.6,7.35,7.35,0,0,1,2.87-2.69,17,17,0,0,1,9.71-1.65c5.22.5,10.13,2.59,14.93,4.56C107.15,394,107.15,393.92,107.11,393.9Z" style="fill:#3472a1"></path><path d="M107.11,393.9a55.13,55.13,0,0,0-13.4-5c-4.59-.89-10.23-.93-13.94,2.34-1.44,1.26-3.35,4-2.18,6,.12.2.7.56.82.17a19.45,19.45,0,0,1,1.18-3.6,7.35,7.35,0,0,1,2.87-2.69,17,17,0,0,1,9.71-1.65c5.22.5,10.13,2.59,14.93,4.56C107.15,394,107.15,393.92,107.11,393.9Z" style="opacity:0.30000000000000004"></path><path d="M86.43,357.39c-1.32,4.63,4.59,8.95,11.95,6.47s15-4.77,21.25-4.85,10.24-4.2,9-7-2.81-9.38-18.78-11.27-23.17,3.75-26.5,8.16S83.77,358.16,86.43,357.39Z" style="fill:#3472a1"></path><g style="opacity:0.7000000000000001"><path d="M86.43,357.39c-1.32,4.63,4.59,8.95,11.95,6.47s15-4.77,21.25-4.85,10.24-4.2,9-7-2.81-9.38-18.78-11.27-23.17,3.75-26.5,8.16S83.77,358.16,86.43,357.39Z" style="fill:#fff"></path></g><path d="M116.1,347.65a20.18,20.18,0,0,0-5.15-.47,33.23,33.23,0,0,0-5,.41,38.54,38.54,0,0,0-9.38,2.92C91,353,85.4,356.25,81.76,361.3a35.67,35.67,0,0,0-4.7,8.8c-.21.6.94.93,1.2.4a67.05,67.05,0,0,1,4-7.66,23.93,23.93,0,0,1,6.12-6.37,48.66,48.66,0,0,1,16.94-7.75,33,33,0,0,1,5.41-.8,49.29,49.29,0,0,1,5.43.21C116.39,348.14,116.27,347.7,116.1,347.65Z" style="fill:#3472a1"></path><path d="M116.1,347.65a20.18,20.18,0,0,0-5.15-.47,33.23,33.23,0,0,0-5,.41,38.54,38.54,0,0,0-9.38,2.92C91,353,85.4,356.25,81.76,361.3a35.67,35.67,0,0,0-4.7,8.8c-.21.6.94.93,1.2.4a67.05,67.05,0,0,1,4-7.66,23.93,23.93,0,0,1,6.12-6.37,48.66,48.66,0,0,1,16.94-7.75,33,33,0,0,1,5.41-.8,49.29,49.29,0,0,1,5.43.21C116.39,348.14,116.27,347.7,116.1,347.65Z" style="opacity:0.30000000000000004"></path><path d="M73.34,383.49c-1.25-4.76-7.29-7.43-15.18-8a20.61,20.61,0,0,0-19.62,10.07c-4.13,7.06-5.85,12.67-3.34,13.6s13.11,2.39,20,3,15.39-.62,21-5.82S79.87,384.59,73.34,383.49Z" style="fill:#3472a1"></path><path d="M73.34,383.49c-1.25-4.76-7.29-7.43-15.18-8a20.61,20.61,0,0,0-19.62,10.07c-4.13,7.06-5.85,12.67-3.34,13.6s13.11,2.39,20,3,15.39-.62,21-5.82S79.87,384.59,73.34,383.49Z" style="fill:#fff;opacity:0.30000000000000004"></path><path d="M73.63,382.86a20.9,20.9,0,0,0-8.52-.4,38.16,38.16,0,0,0-8,1.86,51.34,51.34,0,0,0-8,3.58q-2,1.1-3.94,2.33a29.35,29.35,0,0,0-3.52,2.43s0,.21,0,.17c1.3-.58,2.51-1.4,3.75-2.09s2.67-1.49,4-2.18a56.55,56.55,0,0,1,7.9-3.35,37.4,37.4,0,0,1,8.37-1.79,50.67,50.67,0,0,1,8,.2C74.27,383.66,74,383,73.63,382.86Z" style="fill:#3472a1"></path><path d="M73.63,382.86a20.9,20.9,0,0,0-8.52-.4,38.16,38.16,0,0,0-8,1.86,51.34,51.34,0,0,0-8,3.58q-2,1.1-3.94,2.33a29.35,29.35,0,0,0-3.52,2.43s0,.21,0,.17c1.3-.58,2.51-1.4,3.75-2.09s2.67-1.49,4-2.18a56.55,56.55,0,0,1,7.9-3.35,37.4,37.4,0,0,1,8.37-1.79,50.67,50.67,0,0,1,8,.2C74.27,383.66,74,383,73.63,382.86Z" style="opacity:0.30000000000000004"></path></g></g><g id="freepik--Device--inject-10"><g id="freepik--Table--inject-10"><g id="freepik--table--inject-10"><path d="M418.07,399.56c-11.18-6.45-29.3-6.45-40.47,0-5.59,3.23-8.38,7.46-8.38,11.69,0,.43,0,3.06,0,3.56.09,4.16,2.88,8.31,8.38,11.48,11.17,6.46,29.3,6.46,40.47,0,5.53-3.19,8.32-7.36,8.38-11.54v-3.57C426.42,407,423.63,402.77,418.07,399.56Z" style="fill:#37474f"></path><path d="M377.6,422.93c-11.18-6.45-11.18-16.91,0-23.37s29.3-6.45,40.47,0,11.18,16.92,0,23.37S388.77,429.38,377.6,422.93Z" style="fill:#455a64"></path><path d="M401.18,408.94h0V229.87h-6.73V408.94h0a1.57,1.57,0,0,0,1,1.54,5.25,5.25,0,0,0,4.76,0A1.54,1.54,0,0,0,401.18,408.94Z" style="fill:#37474f"></path><path d="M353.41,204.46c24.55-14.17,64.36-14.17,88.91,0,12.28,7.09,18.4,19.84,18.4,29.13v1.8c0,9.29-6.12,18.58-18.4,25.67-24.55,14.18-64.36,14.18-88.92,0C341.13,254,335,244.68,335,235.39v-1.8C335,224.3,341.13,211.55,353.41,204.46Z" style="fill:#3472a1"></path><path d="M353.41,204.46c24.55-14.17,64.36-14.17,88.91,0,12.28,7.09,18.4,19.84,18.4,29.13v1.8c0,9.29-6.12,18.58-18.4,25.67-24.55,14.18-64.36,14.18-88.92,0C341.13,254,335,244.68,335,235.39v-1.8C335,224.3,341.13,211.55,353.41,204.46Z" style="opacity:0.2"></path><path d="M353.35,199.75c24.55-14.17,64.36-14.17,88.91,0,12.28,7.09,18.41,16.38,18.4,25.67v3.09c0,9.29-6.12,22-18.4,29.13-24.55,14.18-64.36,14.18-88.91,0-12.28-7.09-18.41-21.13-18.4-30.42v-1.8C334.94,216.13,341.07,206.84,353.35,199.75Z" style="fill:#3472a1"></path><path d="M353.35,199.75c24.55-14.17,64.36-14.17,88.91,0,12.28,7.09,18.41,16.38,18.4,25.67v3.09c0,9.29-6.12,22-18.4,29.13-24.55,14.18-64.36,14.18-88.91,0-12.28-7.09-18.41-21.13-18.4-30.42v-1.8C334.94,216.13,341.07,206.84,353.35,199.75Z" style="fill:#fff;opacity:0.4"></path><path d="M353.35,199.75c24.55-14.17,64.36-14.17,88.91,0,12.28,7.09,18.41,16.38,18.4,25.67v3.09c0,9.29-6.12,22-18.4,29.13-24.55,14.18-64.36,14.18-88.91,0-12.28-7.09-18.41-21.13-18.4-30.42v-1.8C334.94,216.13,341.07,206.84,353.35,199.75Z" style="opacity:0.1"></path><path d="M442.26,251.09c24.56-14.18,24.56-37.16,0-51.34s-64.36-14.17-88.91,0-24.55,37.16,0,51.34S417.71,265.26,442.26,251.09Z" style="fill:#3472a1"></path><ellipse cx="397.86" cy="225.42" rx="62.87" ry="36.3" style="fill:#fff;opacity:0.85"></ellipse></g></g><g id="freepik--Laptop--inject-10"><path id="freepik--shadow--inject-10" d="M448.88,213.71,408,190.1a2.35,2.35,0,0,0-2.35,0l-71,41a.52.52,0,0,0,0,.9l41.29,23.84Z" style="fill:#3472a1;opacity:0.2"></path><path d="M444.42,210.81v.9a3.74,3.74,0,0,1-1.86,3.22l-65,37.55a3.74,3.74,0,0,1-3.72,0l-35.45-20.4a3.71,3.71,0,0,1-1.85-3.22V227.6h0a.48.48,0,0,0,.24.41l38.93,22.48Z" style="fill:#37474f"></path><path d="M444.42,210.8l-38.56-22.26a2.2,2.2,0,0,0-2.22,0l-66.9,38.63a.49.49,0,0,0,0,.85l38.93,22.48Z" style="fill:#455a64"></path><polygon points="375.31 247.22 354.51 235.23 415.33 200.12 436.24 212.05 375.31 247.22" style="fill:#37474f"></polygon><polygon points="436.24 212.05 435.44 212.51 415.33 201.03 355.31 235.69 354.51 235.23 415.33 200.12 436.24 212.05" style="fill:#263238"></polygon><polygon points="365.09 213.85 365.47 214.08 375.67 219.96 393.8 209.49 394.17 209.28 383.6 203.17 365.09 213.85" style="fill:#263238"></polygon><polygon points="365.47 214.08 375.67 219.96 393.8 209.49 383.6 203.61 365.47 214.08" style="fill:#37474f"></polygon><path d="M375.67,250.5V253a3.71,3.71,0,0,0,1.85-.49l65-37.55a3.72,3.72,0,0,0,1.86-3.22v-.91Z" style="fill:#263238"></path><path d="M376.71,251.05a4.42,4.42,0,0,0,3.8-.3l64.75-37.38a4.39,4.39,0,0,0,2.14-3.08L454.49,168a4.49,4.49,0,0,0,.06-.73,4.44,4.44,0,0,0-1.3-3.13L386,203a3.26,3.26,0,0,0-1.58,2.28Z" style="fill:#37474f"></path><path d="M375.67,250.5l.44.25c.19.11.4.21.6.3l7.67-45.75A3.26,3.26,0,0,1,386,203l67.29-38.86a4.72,4.72,0,0,0-.9-.68l-67.43,38.93a3.26,3.26,0,0,0-1.58,2.28Z" style="fill:#455a64"></path><path d="M385,203.88l-1-.6a3.27,3.27,0,0,0-.62,1.41l-7.67,45.81.44.25c.19.11.4.21.6.3l7.67-45.75A3.25,3.25,0,0,1,385,203.88Z" style="fill:#263238"></path><path d="M413.18,212c.48-2.83,3.4-6.59,6.53-8.39s5.28-1,4.81,1.85-3.4,6.59-6.53,8.4S412.71,214.85,413.18,212Z" style="fill:#3472a1"></path></g></g><g id="freepik--speech-bubble--inject-10"><g id="freepik--speech-bubble--inject-10"><g id="freepik--speech-bubble--inject-10"><path d="M402.36,64.83a34.19,34.19,0,1,0-21.5,43.32A34.24,34.24,0,0,0,402.36,64.83Zm-61.9,20.84a31.12,31.12,0,1,1,39.42,19.56A31.15,31.15,0,0,1,340.46,85.67Z" style="fill:#455a64"></path><path d="M379.88,105.23a31.12,31.12,0,1,1,19.57-39.42A31.14,31.14,0,0,1,379.88,105.23Z" style="fill:#fff"></path><path d="M328,87.9l9.31-7.75,4,11.81-12.11-.55A2,2,0,0,1,328,87.9Z" style="fill:#455a64"></path></g><g id="freepik--Bulb--inject-10"><path d="M375.18,90.47H364.72a.79.79,0,1,1,0-1.58h10.46a.79.79,0,0,1,0,1.58Z" style="fill:#455a64"></path><path d="M370,98.63a6,6,0,0,1-6-6,.79.79,0,0,1,.79-.79h10.46a.79.79,0,0,1,.79.79A6,6,0,0,1,370,98.63Z" style="fill:#455a64"></path><path d="M381.12,57.32a16,16,0,0,0-12-4.45,16.39,16.39,0,0,0-15.4,15.91,16.17,16.17,0,0,0,8,14.18,4.3,4.3,0,0,1,2.15,3.7.75.75,0,0,0,.2.5.73.73,0,0,0,.5.21h10.75a.71.71,0,0,0,.71-.71A4.34,4.34,0,0,1,378.17,83a16.27,16.27,0,0,0,8-13.93A16.06,16.06,0,0,0,381.12,57.32Z" style="fill:#3472a1"></path><g style="opacity:0.35000000000000003"><path d="M381.12,57.32a16,16,0,0,0-12-4.45,16.39,16.39,0,0,0-15.4,15.91,16.17,16.17,0,0,0,8,14.18,4.3,4.3,0,0,1,2.15,3.7.75.75,0,0,0,.2.5.73.73,0,0,0,.5.21h10.75a.71.71,0,0,0,.71-.71A4.34,4.34,0,0,1,378.17,83a16.27,16.27,0,0,0,8-13.93A16.06,16.06,0,0,0,381.12,57.32Z" style="fill:#fff"></path></g><path d="M361.4,74.07a5,5,0,0,0,3.61.48h0v0a11.48,11.48,0,0,1,.88,2.06,28.35,28.35,0,0,1,.91,9.18V86c0,.47,0,.94,0,1.4v.26h1.34v-.26c0-.52,0-1,0-1.58a29.26,29.26,0,0,0-1-9.58,14,14,0,0,0-.82-2l0,0h0a9.5,9.5,0,0,0,2.41-1.33,10.25,10.25,0,0,0,1.13-1l0,0,0,0a11,11,0,0,0,1.13,1,9.09,9.09,0,0,0,2.4,1.33h0v0a12.42,12.42,0,0,0-.82,2,28.89,28.89,0,0,0-1,9.59c0,.26,0,.53,0,.79v1h1.35v-.26c0-.52,0-1,0-1.62a28.06,28.06,0,0,1,.9-9.13,12.24,12.24,0,0,1,.88-2.06v0h0a5.07,5.07,0,0,0,3.6-.48,1.53,1.53,0,0,0,.67-1.78A1.83,1.83,0,0,0,377.35,71a4.12,4.12,0,0,0-3.09,2v0h0a8,8,0,0,1-2.31-1.24,8.42,8.42,0,0,1-1.07-1l0,0v0a5.1,5.1,0,0,0,1.07-4.25,2.07,2.07,0,0,0-3.9,0,5,5,0,0,0,1.07,4.26v0h0a7.88,7.88,0,0,1-1.08,1A7.73,7.73,0,0,1,365.67,73h0l0,0a4.1,4.1,0,0,0-3.08-2,1.82,1.82,0,0,0-1.81,1.29A1.54,1.54,0,0,0,361.4,74.07Zm14.34-.76,0,0a2.48,2.48,0,0,1,1.57-.91.52.52,0,0,1,.54.36c0,.08,0,.15-.16.25a3,3,0,0,1-1.6.36h-.39Zm-6.47-6.39a.72.72,0,0,1,1.34,0,3.49,3.49,0,0,1-.64,2.67l0,0,0,0A3.59,3.59,0,0,1,369.27,66.92ZM362,72.7a.51.51,0,0,1,.54-.35,2.49,2.49,0,0,1,1.56.91l.05,0h-.42a2.93,2.93,0,0,1-1.56-.35h0C362,72.86,362,72.79,362,72.7Z" style="fill:#fff"></path></g></g></g><g id="freepik--Character--inject-10"><g id="freepik--character--inject-10"><g id="freepik--Bottom--inject-10"><g id="freepik--bottom--inject-10"><polygon points="301.01 391.61 305.41 389.44 301.01 388.33 301.01 391.61" style="fill:#263238"></polygon><path d="M345.19,398.82s-52.79-22-53.38-18.58a4.82,4.82,0,0,0,.06,2.05l-.15-.19,1.08,6.34a15.92,15.92,0,0,0,8.21,3.17v-3.28a26.77,26.77,0,0,1,4.66,2.29c3.4,2.09,5.62,5.81,9.26,10.11,2.65,3.13,7.31,4.54,14.19,5.37,7.4.9,13.89-.56,15.69-2.5C346.25,402.05,345.47,399.26,345.19,398.82Z" style="fill:#263238"></path><path d="M343.73,397.67c-.52-.5-2.42-2.46-5-4.58-2.25-1.86-4.87-4.21-7.67-6.1a29,29,0,0,1-3.81-2.93c-.93-.93-1.82-1.9-2.65-2.91a54.67,54.67,0,0,1-6.5-10.24c-.85-1.72-2.41-5.49-2.1-12.54.47-10.68,1.31-14.54,1.23-21.47l-24.94,3.66c.79,3.83,1.72,12.4,2.17,16.76.7,6.64,1.72,7.25-.86,13.92-.76,2-1.91,3.86-2,5.95-.11,3.4,2.71,6.29,5.84,7.91,2.59,1.34,5.55,1.88,8.07,3.31a25.64,25.64,0,0,1,6.63,6.08c1.8,2.15,3.26,4.7,5.76,6.19,2.77,1.65,5.39,2.14,8.58,2.71a47.87,47.87,0,0,0,11.48.39C343.44,403.28,347.46,401.32,343.73,397.67Z" style="fill:#ffbda7"></path><path d="M340.66,394c-2.29-1.79-5.53-4.37-9.45-7.26a10.21,10.21,0,0,0-8.12.84c-7.72,4.06-8.95,9.67-8.95,9.67a11,11,0,0,0,6.44,5.26c9.06,3.65,25.14,2.21,25.23-1.79C345.87,398.18,343.44,396.18,340.66,394Zm-46.57-24.21s-.5,1.32-1.83,3.91-1.55,5.15.21,7.69c2.31,3.37,5.11,4.37,8,5.05C302.81,378.83,297.25,371.38,294.09,369.79Z" style="fill:#37474f"></path><path d="M252.77,388.64c0,2.6-.69,10.29-.47,16.09.2,5.26,1.25,13.49-.37,19.63s-7.83,12.87-16,6.95c-5.06-3.66-7-8-7.57-15.6-.37-5.27,2.2-12.51,4.42-18.93,2.58-7.51,3.6-11.52,3.6-11.52Z" style="fill:#263238"></path><path d="M236.61,349.53c-.87,12.27-.21,18.87-.3,26.74-.17,3.66-.39,8.78-1.39,12.63-1.3,5-2.81,11.93-3.72,15.17-1.28,4.52-2.24,7.37-.56,12.49a5.9,5.9,0,0,0,.56,1.16c2.42,4.25,8.74,7.53,10.8,7.06a3.78,3.78,0,0,0,3.57,1.15,5.79,5.79,0,0,0,.68-.13,6.2,6.2,0,0,0,.69-.23,6.39,6.39,0,0,0,3.49-3.8,10.15,10.15,0,0,0,.35-1.1,37.94,37.94,0,0,0,1.1-12.36c0-3,.15-7.3.54-11.9s2.91-18,4.56-25c1.47-6.21,2.2-11.47,4.14-17.89Z" style="fill:#ffbda7"></path><path d="M229.82,410c5.08-1.85,20.16-1.6,22.35,4.64-.08,5.84-.59,9.54-4.93,14.55-5.78,6.65-12.94-.63-15.65-5.23S229.06,413.1,229.82,410Z" style="fill:#37474f"></path><path d="M259.47,176.38c-6.71,11-17.08,26.56-17.91,51.48-1.12,33.22-2.87,57.14-3.12,61.15s-1.88,10.51-4.57,30.19,1.38,57.7,1.38,57.7,2.3,4.48,10.16,5.36c7.25.81,10.65-2.45,10.65-2.45s11.48-52.66,14.58-64.48,13.64-63.48,13.64-63.48l3.85,31.82s-2.52,10.83-.79,28.19,7.45,50.85,7.45,50.85,3.29,3.33,11,3c7.06-.27,10.62-4,10.62-4s6.75-66.09,7.31-85.7,0-68.58-5.64-97.78Z" style="fill:#37474f"></path><path d="M290.59,220.46l-6.31,31.39,3.85,31.82.14-30.2,6.26-29.91c5-1,17.75-9.29,18.84-17.26C306.47,216.65,290.59,220.46,290.59,220.46Zm-36.93,118q-3.09,15.29-5.77,30.65,3.93-15.13,7.43-30.32c2.38-10.13,4.61-20.25,6.84-30.45s4.8-33.35,6-43.68,2.13-20.66,2.93-31c-1.64,10.27-3.12,20.55-4.62,30.82s-4.33,33.34-6.44,43.48S255.68,328.24,253.66,338.43Zm60.6-73.59c.09,4.5.24,9,0,13.48s-.64,9-1,13.48l-1.1,13.51q-1.09,13.51-1.88,27.07,2-13.44,3.58-26.92c1-9,2-18,2.58-27,.23-9.14-.33-18.15-.92-27.19s-1.49-18-2.69-27l1,27.09C314,255.82,314.18,260.33,314.26,264.84Z" style="fill:#263238"></path></g></g><g id="freepik--Top--inject-10"><path d="M263.6,57.39c-8.14,2.63-10,10.57-10.31,24.22-.13,5.29,0,10-4.5,13.54-2.42,1.9-5.26,3.29-7.33,5.56-3.42,3.78-3.79,10.33-.05,13.79a8.39,8.39,0,0,0-5.24,6.85,12.39,12.39,0,0,0,2.38,8.55C242.13,135,249.2,137,255.24,136c1.43,4.06,5.71,6.68,10,7s8.54-1.34,12.12-3.73c2.22,4.32,7.88,5.77,12.34,5.12a16.26,16.26,0,0,0,11.34-7.2,1.69,1.69,0,0,1,.62-.7,1.79,1.79,0,0,1,.69-.11c3.07,0,6,0,8.76-1.41a15.12,15.12,0,0,0,6.3-5.11,11.08,11.08,0,0,0,1.77-5.34,8.5,8.5,0,0,0-.74-4.65c2.62-2,2.94-8,2.14-11.27s-2.88-6-5.15-8.4-4.77-4.65-6.69-7.35a11.83,11.83,0,0,1-2.18-7.76c0-1.63-.7-4.61.44-6,0,0,5-6.07,4.79-12.6A20.45,20.45,0,0,0,296,47C286,44.35,267.79,45.18,263.6,57.39Z" style="fill:#263238"></path><g id="freepik--Arm--inject-10"><path d="M365.21,138.13a35.25,35.25,0,0,0,4.17-6.77c2.76-6.18,5-7.37,10.36-11.29l2.77-2a12.93,12.93,0,0,0,1.31-1c.38-.35.72-.64,1.29-.3a1.93,1.93,0,0,1,.76,1.12,5.53,5.53,0,0,1-.85,4.41,27,27,0,0,1-3,3.54c-.78.88.56,1,1.2,1,3.15-.18,7.25-3,9.81-4.8,1.67-1.15,3.13-2.61,5-3.51a6.25,6.25,0,0,1,3.67-.67c.84.14,1.57.55,1.3,1.59a4.38,4.38,0,0,1-1.12,1.63c-.91,1-1.71,2-1.63,3.42a11,11,0,0,1,.11,2.74c-.24,1.14-1.11,2-1.47,3.16.51.4.52,1.46-.23,2.5a29.43,29.43,0,0,1-6.73,7.07,28.62,28.62,0,0,1-9.2,4.5,15.86,15.86,0,0,0-7.54,4.85c-2.92,3.33-5.68,7.31-11.92,15.25-8.82,11.21-11.82,16.14-17.7,17.92-4.36,1.32-7.82-1.8-16.58-9.29a249.88,249.88,0,0,1-25.12-25l7-34.63c5.43,2.83,9.65,9.82,15.78,19.43,11.37,17.85,15.8,23.83,15.8,23.83S363,140.88,365.21,138.13Z" style="fill:#ffbda7"></path><path d="M380.57,128.09c0,7.61-3.76,10.85-6.08,12.95,0,0,4.25-1.3,5.86-4.75A9.66,9.66,0,0,0,380.57,128.09Z" style="fill:#f0997a"></path><path d="M353.51,147.59l3.7-3.12a25.16,25.16,0,0,0,3.32,9.15,16.79,16.79,0,0,0,7,6.35l-3.44,4.26a20.23,20.23,0,0,1-7.25-5.45C354,155.17,353.51,147.59,353.51,147.59Z" style="fill:#f0f0f0"></path><path d="M302.35,111.08c14.44,2,18.38,10.39,22.27,16.5,5.43,8.51,17.84,27.28,17.84,27.28l12.45-8.79a17.25,17.25,0,0,0,3,9.18,23.5,23.5,0,0,0,7.84,7.16S357,174.07,352,179.3s-8,6.74-16.65.69c-10.7-7.49-33.3-32-33.3-32Z" style="fill:#3472a1"></path><path d="M342.46,154.86c-2.5,2.08-5,7.59-5.67,11-.24-3.75,1.16-9.54,4.65-12.57Z" style="opacity:0.15"></path></g><path id="freepik--Chest--inject-10" d="M252.06,189.26c.73-5.27,4.4-6,2.61-18.64-.88-6.24-4-22.37-4-22.37s10.72-8.27,7.28-32.39l11-5.14,6.82-1.72,17.58.73,9,2.48c3.1,2.66,8.76,6.85,13.32,13.29,6.58,9.3,7.76,19.52,1,27.17-.07,1.48.2,24.47,1.93,30.07.69,2.22,1.63,5.25.18,8.23C312.37,201.59,274,212.41,252.06,189.26Z" style="fill:#fafafa"></path><path d="M293.35,109.73l9,1.35c8.65,6.54,18.94,18.33,19.52,27.4a24.48,24.48,0,0,1-4,15.21s-.12,18.45,2,28.2,4.44,35.82,4.44,35.82.19,1.63-7,3.66c-2.22-12.5-7.71-58.36-7.4-69.37S310.33,123.61,293.35,109.73Z" style="fill:#3472a1"></path><path d="M293.35,109.73l9,1.35c8.65,6.54,18.94,18.33,19.52,27.4a24.48,24.48,0,0,1-4,15.21s-.12,18.45,2,28.2,4.44,35.82,4.44,35.82.19,1.63-7,3.66c-2.22-12.5-7.71-58.36-7.4-69.37S310.33,123.61,293.35,109.73Z" style="opacity:0.30000000000000004"></path><path d="M311.17,157.13c.72-2.92,1.5-5.83,2.3-8.73s1.55-5.8,2.27-8.7a34.25,34.25,0,0,0,.83-4.37c.22-1.38-.76-2.53-1.73-3.61a40.75,40.75,0,0,0-6.92-5.58l-.23-.15.05-.27a14.47,14.47,0,0,0,0-4.78,12.41,12.41,0,0,0-1.65-4.49,14.28,14.28,0,0,0-3.39-3.46,22,22,0,0,0-4.25-2.49,20.26,20.26,0,0,1,4.44,2.22,13.49,13.49,0,0,1,3.65,3.42,13.09,13.09,0,0,1,1.92,4.67,14.38,14.38,0,0,1,.09,5.07l-.18-.42a38.4,38.4,0,0,1,7.14,5.66,9.57,9.57,0,0,1,1.42,1.88,4,4,0,0,1,.26.55,2,2,0,0,1,.19.61,3.74,3.74,0,0,1,0,1.24,34.14,34.14,0,0,1-.89,4.48c-.74,2.93-1.66,5.8-2.55,8.67S312.1,154.27,311.17,157.13Z" style="opacity:0.2"></path><path d="M269,110.72s3.7,4.24,8.71,15.69,9.85,21.88,9.76,32.49-3.55,65.49-3.55,65.49-15.22,2.3-29-3.25L256,199.88l-5.21,20.26s-6.6-2.37-9-4.57c3.59-22.1,11.63-32.58,12-40.74.28-5.6-4.48-21.14-5.39-35.14a107.22,107.22,0,0,1,1.67-24.52Z" style="fill:#3472a1"></path><path d="M269,110.72s3.7,4.24,8.71,15.69,9.85,21.88,9.76,32.49-3.55,65.49-3.55,65.49-15.22,2.3-29-3.25L256,199.88l-5.21,20.26s-6.6-2.37-9-4.57c3.59-22.1,11.63-32.58,12-40.74.28-5.6-4.48-21.14-5.39-35.14a107.22,107.22,0,0,1,1.67-24.52Z" style="opacity:0.30000000000000004"></path><path d="M285.42,162.06a24.43,24.43,0,0,0-4.19-7.33,84.5,84.5,0,0,0-5.49-6.47c-.94-1.06-1.91-2.1-2.89-3.13l-1.46-1.56c-.25-.27-.48-.51-.74-.82a1.46,1.46,0,0,1-.19-.25,2.87,2.87,0,0,1-.18-.4,3,3,0,0,1-.08-.71,12.84,12.84,0,0,1,1.49-4.24c.67-1.28,1.4-2.51,2.18-3.73l.07.71-4.35-4.4-2.16-2.21-.54-.56-.26-.28a2.17,2.17,0,0,1-.37-.45,2.2,2.2,0,0,1-.11-1,7.4,7.4,0,0,1,.08-.81,47.29,47.29,0,0,1,1.48-6.08c.61-2,1.24-4,2-5.91-.5,2-1,4-1.46,6a59,59,0,0,0-1.15,6,3.92,3.92,0,0,0,0,1.3c-.07-.11.06.06.15.13l.28.27.57.54L270.3,129l4.45,4.37.32.31-.25.4c-.73,1.18-1.44,2.41-2.07,3.66a12.49,12.49,0,0,0-1.4,3.75,2.92,2.92,0,0,0,0,.33.16.16,0,0,1,0,.09s.09.12.13.18c.19.24.45.51.68.77l1.44,1.57c1,1.06,1.92,2.11,2.85,3.19,1.85,2.18,3.63,4.42,5.26,6.77A35.2,35.2,0,0,1,284,158,15.26,15.26,0,0,1,285.42,162.06Z" style="opacity:0.2"></path><g id="freepik--arm--inject-10"><path d="M169.21,130.48c-2.07-1.35-3.79-2.69-6.36-4.38s-4.67-2.38-5.72-1.24.35,2.92,3.53,5.5c5.07,4.13,8.71,7.11,8.47,7.68-2.9.17-3.69.32-3.79,2.51-.07,1.49,1.75,2.47,1.75,2.47a1.94,1.94,0,0,0-1.72,2,2.74,2.74,0,0,0,1.58,2.42s-1.25.28-.92,1.94a4.58,4.58,0,0,0,2.24,3.1l.26-1.31a3,3,0,0,0,1.31-.05c.73-.2,2.2.27,3.41.63s2.59.93,3.47.14a1.64,1.64,0,0,0,.25-2.41,5.06,5.06,0,0,0-1.31-.78s1.84.46,2.5-1-.58-2.28-1.34-2.85c.83-.56,1.58-1.23,1.25-2.06s-3-2.55-3-2.55l1-2.44s1-2.07-.41-3.05C173.06,133,171.53,132,169.21,130.48Z" style="fill:#ffbda7"></path><path d="M233.33,167.36a11.41,11.41,0,0,0-1.71-1.83C225.75,160.36,218,158,211,154.68c-4.53-2.16-9.14-4.61-13.65-6.86-5.41-2.71-6.24-3-8.31-6.48-1.12-1.86-2.25-3.64-3.52-5.41a10.6,10.6,0,0,0-2-2.29,5.88,5.88,0,0,0-3.43-1.31,13.76,13.76,0,0,0-2.87.07,7.5,7.5,0,0,0-2.31.43,7.8,7.8,0,0,0-1.66,1.12,6.25,6.25,0,0,0-1.64,2.06l.29,5.46a2.22,2.22,0,0,0,2.17.17,2.79,2.79,0,0,0,1.15-1.32s2.53,1.52,2.68,2.39,0,1.37-1.32,1.75c.82.73,2.1,1.8,1.57,2.95s-2.49,1.33-2.49,1.33,2.28,1.8,1.81,2.61-9.46-2.28-9.46-2.28l.26,3.45c2.31,1,10,4.54,14.6,5.36,1.63.29,4.68,1.91,8.85,5,4.75,3.48,8.68,7.77,13.2,11.44A41.86,41.86,0,0,0,219.45,182a10.62,10.62,0,0,0,3.57.56,8.44,8.44,0,0,0,3.6-1.16c2.49-1.4,5.24-4.92,6.95-7.18C235.72,171.32,235.25,170.07,233.33,167.36Z" style="fill:#ffbda7"></path><path d="M175.82,137.58a14.39,14.39,0,0,1-1.27,3.19,1.67,1.67,0,0,1-2.14.68c-.47-.24-.52-5.62-.52-5.62l1.36-1.88c-1.18,1.05-1.45,1.28-1.69,1.81-.33.73,0,4.67.1,5.61s2.48,1.53,3.47-.57c0-.08.06-.14.09-.21l.07,0a5.15,5.15,0,0,1,2,1.74c.3.45.65,1,.22,1.47a1.46,1.46,0,0,1-.76.39,2.26,2.26,0,0,1-.68.08,1.62,1.62,0,0,0-.62.07l0,0s0,.09.06.11c.27.18.56.33.84.5.84.5,1.94,1.56,1.3,2.57a1.74,1.74,0,0,1-1.42.85c-.43,0-.88,0-1.32,0-.07,0-.17.07-.14.14s0,0,.07.06a7,7,0,0,1,1.88,1.18,1.58,1.58,0,0,1,.54,1.27c-.11.55-.9,1-1.41,1.08l-.25.06s0,.05,0,.06,0,0,.08,0a2.92,2.92,0,0,0,.51,0,1.67,1.67,0,0,0,1.59-1.56,1.9,1.9,0,0,0-1-1.84,2.1,2.1,0,0,0,1.83-1.13c.9-1.41-.06-2.3-1.2-3a1.82,1.82,0,0,0,.82-.58,13,13,0,0,0,3.35,5.74,20.84,20.84,0,0,1-2.66-7,18.27,18.27,0,0,1,.05-5.86S176.65,138,175.82,137.58Zm1.67,2.85a1,1,0,0,1-.18.06,1.79,1.79,0,0,1-.69,0,9.78,9.78,0,0,0-1.22-.26c.75-1.62.93-2.15.93-2.15a1.89,1.89,0,0,0,1.13-.21A17.52,17.52,0,0,0,177.49,140.43Z" style="fill:#f0997a"></path><path d="M204.73,151.3l-6.11-3.23s-2.71,1.05-5.81,6.66a17.39,17.39,0,0,0-2.35,7.65l6.75,5.49Z" style="fill:#f0f0f0"></path><path d="M217.26,156.48c4.81-7.54,13.12-20.47,18.51-28,6.9-9.66,7.86-12,17.51-14.11,7.13,19,2,32-.68,35.54S240.43,167.32,236,173.15s-8.12,9.72-12.18,10.32-8.56-1.46-15-5.68c-5-3.3-15.11-12.56-15.11-12.56a22.43,22.43,0,0,1,4.46-10.88,16.18,16.18,0,0,1,4.55-4.38Z" style="fill:#3472a1"></path><path d="M217.26,156.48c2,.93,7.93,5.23,8.91,8.6.23-3.66-4.89-8.49-7.53-10.76Z" style="opacity:0.15"></path></g><g id="freepik--Head--inject-10"><path d="M260.8,80.28c1.77-2.06,5.39-3,7.2-.19,1.12,1.72,1.44,4.61,3.11,4.16,1-.27,1.36-1.49,1-3.7,0,.12,1.32-.69,1.42-.77,1.25-1.09,1-2.72,1.37-4.16.45-1.6,1.73-2.81,2.49-4.25,1.2-2.26.73-5.06.26-7.47-.21-1-.35-2.28.41-3a2.91,2.91,0,0,1,2.16-.62,36.52,36.52,0,0,1,7.14,1.34,12,12,0,0,0,7.16-.15c1-.4,1.82-1,2.75-1.46a4.64,4.64,0,0,1,3-.59,5,5,0,0,1,2.35,1.39c3.13,3,4.14,7.64,4.93,11.75a55.15,55.15,0,0,1,.49,9.35c.26,13.35-2.1,16.64-4.88,19-2.39,2-6.12,3-10.5,3l.06,7.59s6.36,11.92,3.3,18.87c0,0-10.15-4.24-16.32-9.35-7.58-6.27-8.85-10.1-8.85-10.1l-.06-20.23s-3.23,4.64-7.89,1.1C259,88.83,258.17,83.34,260.8,80.28Z" style="fill:#ffbda7"></path><path d="M292.61,103.88c-8.37.05-16.52-3.52-19.54-11.07,0,0,.3,5,3.46,8.09,6.32,6.13,16.1,5.62,16.1,5.62Z" style="fill:#f0997a"></path><path d="M283.37,76.9a2.06,2.06,0,1,0,2.29-1.8A2.07,2.07,0,0,0,283.37,76.9Z" style="fill:#263238"></path><path d="M299.35,77.58A2.06,2.06,0,1,0,300.7,75,2.06,2.06,0,0,0,299.35,77.58Z" style="fill:#263238"></path><path d="M287,68.35,282,70.28a2.78,2.78,0,0,1,1.55-3.52A2.59,2.59,0,0,1,287,68.35Z" style="fill:#263238"></path><path d="M298.82,68.72l5.22.89a2.79,2.79,0,0,0-2.24-3.13A2.58,2.58,0,0,0,298.82,68.72Z" style="fill:#263238"></path><path d="M296.12,90.47l-7.37-2.1a4,4,0,0,0,2.72,4.85A3.74,3.74,0,0,0,296.12,90.47Z" style="fill:#b16668"></path><path d="M293.79,93.12a4.46,4.46,0,0,0-4.57-3.37c-.19,0-.37.06-.56.09a4,4,0,0,0,2.81,3.38A3.66,3.66,0,0,0,293.79,93.12Z" style="fill:#f0997a"></path><path d="M279.55,72.69l-13,6.08a3.84,3.84,0,0,1,1.72,1.82l11.94-5.7Z" style="fill:#263238"></path><path d="M308.79,71,308,70.9c-2.67-.19-6.15-.14-8.24.58-2.63.92-3.55,1.87-5,1.94s-2.56-.83-5.38-1.54c-2.25-.56-6-.34-8.87.06l-.89.14a1.53,1.53,0,0,0-1,1.54,3.15,3.15,0,0,0,.81,1.72,2,2,0,0,1,.27.7c.28,1.21.42,3.57,1,4.87a5.7,5.7,0,0,0,1.11,1.75,4.8,4.8,0,0,0,.59.51l.33.22a4.69,4.69,0,0,0,1,.46l.18.05.26.08.29.06a7.64,7.64,0,0,0,.9.11l.38,0h.48a6.45,6.45,0,0,0,6.21-4c.92-1.9.68-4.51,2.36-4.57h.17l.14,0c1.25.25,1.12,2.66,1.92,4.37a6.88,6.88,0,0,0,1.23,1.87l.29.29.16.13.16.13.15.11.16.1.13.08.09.06a5.24,5.24,0,0,0,1.49.55l.13,0a7.41,7.41,0,0,0,1.81.12,5.27,5.27,0,0,0,5.13-3.66,31.29,31.29,0,0,0,.89-4.93,1.65,1.65,0,0,1,.29-.64,3.31,3.31,0,0,0,.71-1.81A1.46,1.46,0,0,0,308.79,71Zm-17.4,7.52a5.94,5.94,0,0,1-1.29,2.66h0a5.34,5.34,0,0,1-4,1.66A4.24,4.24,0,0,1,282.17,81l-.12-.18-.11-.18-.09-.17-.07-.16a.67.67,0,0,1-.06-.12l-.05-.11a1.46,1.46,0,0,1-.07-.19h0a3.86,3.86,0,0,1-.19-.54h0l-.09-.33c-.05-.18-.08-.36-.12-.52s0-.07,0-.1a.29.29,0,0,1,0-.09c-.26-1.29-.54-3.81.1-4.4s2.32-1.24,5-1.08l.29,0c.41,0,.83.09,1.24.17l.48.1a9.94,9.94,0,0,1,1.2.36l.37.14.4.18.08,0,.15.08a2.33,2.33,0,0,1,.81.64C291.86,75.35,291.7,77,291.39,78.49Zm15.94-1.17c-.18,1-.58,3.24-2.48,4.28a4.59,4.59,0,0,1-2,.54,4.35,4.35,0,0,1-4.15-1.8,0,0,0,0,0,0,0l-.08-.12a1,1,0,0,1-.08-.14.16.16,0,0,1,0-.07,1.28,1.28,0,0,1-.11-.2,2.56,2.56,0,0,1-.11-.24l-.06-.11a.64.64,0,0,0,0-.07.3.3,0,0,1,0-.1l0-.07a6.82,6.82,0,0,1-.27-1c-.3-1.43-.46-3.09,0-3.9s2.49-1.74,4.4-2c.45-.08.86-.12,1.24-.15h1.1c.12,0,.23,0,.34,0a5.43,5.43,0,0,1,.62.09l.15,0h0l.1,0,.15,0,.18,0,.3.11,0,0a2.58,2.58,0,0,1,.68.41C307.81,73.49,307.55,76,307.33,77.32Z" style="fill:#37474f"></path><path d="M292.85,78.72l2.41,8,6.52-3.16c-.26-.38-6.31-7.46-6.79-7.94a1.24,1.24,0,0,0-1.28.47A7.51,7.51,0,0,0,292.85,78.72Z" style="fill:#f0997a"></path></g></g></g></g></svg>