<svg id="visual" viewBox="0 0 2200 50" width="2200" height="50" xmlns="http://www.w3.org/2000/svg" xmlns:xlink="http://www.w3.org/1999/xlink" version="1.1"><path d="M0 8L19.3 12.5C38.7 17 77.3 26 116 31.2C154.7 36.3 193.3 37.7 231.8 37.3C270.3 37 308.7 35 347.2 29.5C385.7 24 424.3 15 463 14.5C501.7 14 540.3 22 579 29C617.7 36 656.3 42 695 44.5C733.7 47 772.3 46 810.8 45.5C849.3 45 887.7 45 926.2 37.5C964.7 30 1003.3 15 1042 12.5C1080.7 10 1119.3 20 1158 27.3C1196.7 34.7 1235.3 39.3 1273.8 37.8C1312.3 36.3 1350.7 28.7 1389.2 26.3C1427.7 24 1466.3 27 1505 29.8C1543.7 32.7 1582.3 35.3 1621 35.5C1659.7 35.7 1698.3 33.3 1737 28.2C1775.7 23 1814.3 15 1852.8 9.8C1891.3 4.7 1929.7 2.3 1968.2 7.2C2006.7 12 2045.3 24 2084 24C2122.7 24 2161.3 12 2180.7 6L2200 0L2200 51L2180.7 51C2161.3 51 2122.7 51 2084 51C2045.3 51 2006.7 51 1968.2 51C1929.7 51 1891.3 51 1852.8 51C1814.3 51 1775.7 51 1737 51C1698.3 51 1659.7 51 1621 51C1582.3 51 1543.7 51 1505 51C1466.3 51 1427.7 51 1389.2 51C1350.7 51 1312.3 51 1273.8 51C1235.3 51 1196.7 51 1158 51C1119.3 51 1080.7 51 1042 51C1003.3 51 964.7 51 926.2 51C887.7 51 849.3 51 810.8 51C772.3 51 733.7 51 695 51C656.3 51 617.7 51 579 51C540.3 51 501.7 51 463 51C424.3 51 385.7 51 347.2 51C308.7 51 270.3 51 231.8 51C193.3 51 154.7 51 116 51C77.3 51 38.7 51 19.3 51L0 51Z" fill="#ffffff" stroke-linecap="round" stroke-linejoin="miter"></path></svg>