<?xml version="1.0" encoding="utf-8"?>
<!-- Generator: Adobe Illustrator 27.1.1, SVG Export Plug-In . SVG Version: 6.00 Build 0)  -->
<svg version="1.1" id="Layer_1" xmlns="http://www.w3.org/2000/svg" xmlns:xlink="http://www.w3.org/1999/xlink" x="0px" y="0px"
	 viewBox="0 0 500 500" style="enable-background:new 0 0 500 500;" xml:space="preserve">
<style type="text/css">
	.st0{fill:#E0E0E0;}
	.st1{fill:#F5F5F5;}
	.st2{fill:#EBEBEB;}
	.st3{fill:#263238;}
	.st4{fill:#3472A1;}
	.st5{fill:#455A64;}
	.st6{fill:#FFFFFF;}
	.st7{fill:#FAFAFA;}
	.st8{fill:#FFBE9D;}
	.st9{fill:#EB996E;}
	.st10{opacity:0.3;}
	.st11{opacity:0.6;}
	.st12{fill:#A86B62;}
</style>
<g id="freepik--background-complete--inject-2">
	<path class="st0" d="M322.5,470.3c0,0-0.1,0.1-0.4,0.3c-0.4,0.2-0.8,0.5-1.3,0.6c-1.8,0.6-3.6,0.8-5.5,0.6
		c-2.9-0.3-5.7-1.2-8.4-2.5c-3.1-1.4-6.5-3.4-10.7-4.4c-2.2-0.5-4.4-0.5-6.6,0c-2.4,0.5-4.6,1.3-6.8,2.4c-2.3,1.1-4.6,2.3-7,3.4
		c-2.5,1.2-5.2,1.9-8,2.2c-2.9,0.1-5.9-0.4-8.6-1.4c-2.8-1-5.5-2.4-8.3-3.6c-2.8-1.4-5.8-2.4-8.8-3.1c-3.2-0.5-6.4-0.4-9.5,0.3
		c-6.4,1.5-12,4.7-17.8,6.9c-2.8,1.1-5.8,1.9-8.8,2.3c-0.7,0.1-1.5,0.1-2.2,0.1c-0.7,0-1.5,0-2.2,0c-1.4-0.1-2.9-0.4-4.3-0.7
		c-5.6-1.4-10.4-3.8-15.2-5.3c-4.5-1.4-9.1-2-13.8-2c-6.8,0.1-13.5,1.6-19.6,4.5c-1.7,0.8-3.3,1.7-4.8,2.7c-0.5,0.3-0.9,0.6-1.2,0.8
		l-0.4,0.2c0,0,0.1-0.1,0.4-0.3l1.2-0.8c1.5-1,3.1-2,4.8-2.8c6.1-3,12.9-4.5,19.7-4.6c4.7-0.1,9.4,0.6,13.9,1.9
		c4.9,1.5,9.7,3.9,15.2,5.2c1.4,0.3,2.8,0.5,4.2,0.7c0.7,0,1.4,0,2.2,0c0.7,0,1.5-0.1,2.2-0.1c3-0.4,5.9-1.2,8.7-2.3
		c5.7-2.2,11.4-5.4,17.8-6.9c3.2-0.8,6.5-0.9,9.7-0.3c3,0.7,6,1.7,8.8,3.1c2.8,1.3,5.5,2.6,8.3,3.6c2.7,1,5.6,1.5,8.4,1.4
		c2.7-0.3,5.4-1,7.9-2.1c2.5-1.1,4.8-2.3,7-3.4c2.2-1.1,4.5-1.9,6.9-2.4c2.2-0.4,4.5-0.4,6.8,0.1c4.2,1,7.6,3,10.7,4.5
		c2.6,1.3,5.4,2.2,8.3,2.5c1.8,0.2,3.7,0.1,5.4-0.5C321.3,470.8,321.9,470.6,322.5,470.3z"/>
	<path class="st0" d="M473,439.1c-0.2,0-0.4-0.1-0.6-0.2l-1.7-0.6c-1.4-0.5-3.5-1.4-6.2-2.1c-3.1-0.9-6.3-1.2-9.5-0.8
		c-1.9,0.3-3.7,0.9-5.4,1.7c-1.9,0.9-3.9,1.5-5.9,1.9c-2.1,0.2-4.2,0-6.2-0.8c-1.9-0.6-3.7-1.4-5.4-1.8c-3.1-0.8-6.4-0.7-9.4,0.4
		c-2.1,0.7-4,1.8-5.6,3.2c-1.2,1-1.7,1.7-1.7,1.6c0.1-0.2,0.2-0.3,0.4-0.5c0.4-0.5,0.8-0.9,1.2-1.3c1.6-1.5,3.5-2.6,5.6-3.4
		c3.1-1.1,6.5-1.3,9.7-0.5c1.8,0.5,3.6,1.2,5.5,1.8c1.9,0.7,3.9,1,5.9,0.8c2-0.4,3.9-1,5.8-1.9c1.8-0.8,3.6-1.3,5.5-1.6
		c3.3-0.4,6.5,0,9.7,1c2.1,0.6,4.1,1.4,6.1,2.3l1.6,0.7C472.6,438.9,472.8,439,473,439.1z"/>
	<path class="st0" d="M443.6,149.2c0,0-0.3-0.1-0.9-0.2c-0.8-0.2-1.5-0.2-2.3-0.1c-1.1,0.2-2.2,0.6-3.1,1.4
		c-1.1,0.9-1.9,2.1-2.2,3.5l0,0l-0.1,0.5l-0.2-0.5c-1-2.4-3.2-4.1-5.8-4.3c-1.1-0.1-2.1,0.1-3.1,0.4c0.2-0.2,0.5-0.3,0.8-0.4
		c0.8-0.2,1.6-0.3,2.4-0.3c1.2,0.1,2.4,0.4,3.4,1.1c1.2,0.8,2.2,2,2.8,3.3h-0.3l0,0c0.3-1.4,1.2-2.7,2.3-3.6
		c1.6-1.3,3.7-1.7,5.7-1.2C443.1,149,443.4,149.1,443.6,149.2z"/>
	<path class="st0" d="M342.3,107.6c-0.2,0.3-0.5,0.6-0.8,0.9c-3,3.5-4.7,7.9-4.7,12.5v0.1h-0.4c-0.5-3.4-2.1-6.6-4.6-9.1
		c-1-1-2.1-1.9-3.3-2.7c0.1,0,0.2,0.1,0.3,0.1c0.3,0.1,0.5,0.3,0.8,0.4c0.9,0.6,1.7,1.2,2.5,2c2.5,2.5,4.2,5.7,4.8,9.2h-0.4V121
		c0-3.6,1-7.1,3-10.1c0.6-0.9,1.3-1.7,2-2.5c0.3-0.3,0.5-0.5,0.6-0.6S342.2,107.6,342.3,107.6z"/>
	<path class="st1" d="M112.1,162.8c0.6-4-5.2-7.4-9.4-7.7c-2.1-0.2-4.2,0.1-6.1-0.5c-4.2-1.5-5.9-6.9-10-8.6
		c-3.1-1.3-6.6-0.1-9.6,1.4s-5.9,3.4-9.2,3.6c-2.9,0.2-6-0.9-8.6,0.5c-1.9,1.1-2.9,3.2-4.6,4.5s-3.9,1.5-6,1.6
		c-2.1-0.1-4.2,0.3-6.2,1c-1.9,0.9-3.5,2.9-3.1,5L112.1,162.8z"/>
	<path class="st1" d="M466.9,224c0.7-4.9-6.2-8.9-11.4-9.3c-2.5-0.2-5,0.2-7.4-0.6c-5-1.8-7.1-8.3-12-10.4
		c-3.7-1.6-7.9-0.2-11.5,1.6s-7.1,4.1-11.1,4.3c-3.5,0.2-7.2-1.1-10.3,0.6c-2.3,1.3-3.5,3.9-5.5,5.4s-4.7,1.8-7.2,2
		s-5.2,0.2-7.5,1.2s-4.2,3.5-3.7,6L466.9,224z"/>
	<path class="st2" d="M302,53.5c0.7-5.1-6.5-9.3-11.9-9.7c-2.6-0.2-5.2,0.2-7.7-0.7c-5.3-1.8-7.4-8.7-12.6-10.9
		c-3.9-1.6-8.3-0.2-12,1.7s-7.4,4.2-11.6,4.5c-3.6,0.2-7.6-1.1-10.8,0.7c-2.4,1.3-3.6,4-5.8,5.7s-4.9,1.9-7.6,2.1s-5.4,0.2-7.8,1.3
		s-4.4,3.7-3.9,6.3L302,53.5z"/>
	<path class="st2" d="M442.8,305.9c0.5-3.9-4.9-7.1-9-7.4c-2-0.1-4,0.1-5.9-0.5c-4-1.4-5.6-6.6-9.5-8.2c-2.9-1.2-6.3-0.1-9.2,1.3
		s-5.7,3.2-8.8,3.4c-2.8,0.2-5.8-0.9-8.2,0.5c-1.8,1-2.8,3.1-4.4,4.3c-1.7,1.1-3.7,1.6-5.8,1.6c-2,0-4,0.3-5.9,1
		c-1.8,0.8-3.4,2.8-3,4.8L442.8,305.9z"/>
</g>
<g id="freepik--Sea--inject-2">
	<path class="st3" d="M473.4,413.9c0,0.1-102.6,0.3-229.1,0.3s-229.1-0.1-229.1-0.3s102.6-0.3,229.1-0.3S473.4,413.8,473.4,413.9z"
		/>
</g>
<g id="freepik--Sun--inject-2">
	<circle class="st4" cx="104.1" cy="86.2" r="17.4"/>
	<path class="st4" d="M101.6,125.2c-0.2-2.4-0.2-4.8-0.2-7.2c-0.1-2.4,0-4.8,0.2-7.2c0.2,2.4,0.3,4.8,0.2,7.2
		C101.9,120.4,101.8,122.8,101.6,125.2z"/>
	<path class="st4" d="M91.6,106.7c0.1,0-1.6,3-3.7,6.7S84,120,84,120s1.6-3,3.7-6.7S91.5,106.7,91.6,106.7z"/>
	<path class="st4" d="M81.3,100.3c-1.3,1.2-2.6,2.4-4.1,3.5c-1.4,1.2-2.8,2.2-4.3,3.2c1.3-1.3,2.6-2.4,4.1-3.5
		C78.4,102.3,79.8,101.3,81.3,100.3z"/>
	<path class="st4" d="M119,118.1c-0.2-0.6-0.4-1.2-0.5-1.8c-0.2-1.1-0.6-2.6-1-4.3s-0.9-3.1-1.2-4.2c-0.2-0.6-0.4-1.2-0.5-1.8
		c0.3,0.5,0.5,1.1,0.7,1.7c0.4,1.1,0.9,2.5,1.3,4.2s0.8,3.2,1,4.3C119,116.9,119,117.5,119,118.1z"/>
	<path class="st4" d="M136.6,105.5c-1.8-1.3-3.5-2.7-5.1-4.3c-1.7-1.4-3.4-2.9-4.9-4.5c1.8,1.3,3.5,2.7,5.1,4.3
		C133.5,102.4,135.1,103.9,136.6,105.5z"/>
	<path class="st4" d="M143.4,88.3c-0.7,0-1.4-0.1-2.1-0.3c-1.3-0.2-3.1-0.5-5.1-0.7s-3.8-0.4-5.1-0.4c-0.7,0-1.4-0.1-2.1-0.2
		c0.7-0.1,1.4-0.1,2.1-0.1c1.3,0,3.1,0.1,5.1,0.3s3.8,0.6,5.1,0.8C142.1,87.9,142.7,88.1,143.4,88.3z"/>
	<path class="st4" d="M143.4,71.4c0,0.1-3.7,1.1-8.4,2.2s-8.5,2-8.5,1.9s3.7-1.1,8.4-2.2S143.4,71.3,143.4,71.4z"/>
	<path class="st4" d="M123.8,51.6c0.1,0.1-1.7,2.9-4,6.4s-4.2,6.3-4.3,6.2s1.7-2.9,4-6.4S123.7,51.6,123.8,51.6z"/>
	<path class="st4" d="M104.2,47.5c0.1,0.8,0.1,1.6,0,2.4c0,1.5,0,3.5,0,5.8s0,4.3,0.1,5.8c0.1,0.8,0.1,1.6,0,2.4
		c-0.1-0.8-0.2-1.6-0.2-2.4c-0.1-1.5-0.2-3.5-0.2-5.8s0.1-4.3,0.2-5.8C104,49.1,104.1,48.3,104.2,47.5z"/>
	<path class="st4" d="M89.4,65.9c-0.1,0-1.9-2.8-4.1-6.3s-3.9-6.5-3.8-6.6s1.9,2.8,4.1,6.4S89.5,65.9,89.4,65.9z"/>
	<path class="st4" d="M80.6,73.4c-0.6,0-1.2-0.1-1.8-0.3c-1.1-0.2-2.7-0.6-4.4-1.1s-3.2-1-4.3-1.4c-0.6-0.2-1.2-0.4-1.7-0.8
		c0.6,0.1,1.2,0.3,1.8,0.5c1.1,0.3,2.6,0.8,4.3,1.3s3.2,0.9,4.3,1.2C79.4,73,80,73.2,80.6,73.4z"/>
	<path class="st4" d="M76.8,86.8c-1.8,0.4-3.7,0.6-5.6,0.7c-1.9,0.2-3.7,0.4-5.6,0.4c1.8-0.4,3.7-0.6,5.6-0.7
		C73,86.9,74.9,86.8,76.8,86.8z"/>
</g>
<g id="freepik--Birds--inject-2">
	<path class="st3" d="M279.1,60.3c0,0-0.6-0.2-1.7-0.4c-1.6-0.3-3.2-0.4-4.8-0.2c-2.4,0.3-4.6,1.3-6.4,2.8c-2.3,1.8-3.9,4.4-4.5,7.2
		v0.1l-0.1,0.5l-0.2-0.5c-1.1-2.7-3-5-5.5-6.6c-2-1.3-4.3-2.1-6.7-2.2c-1.6-0.1-3.2,0-4.8,0.4c-1.1,0.3-1.7,0.5-1.7,0.5
		c0.1-0.1,0.3-0.1,0.4-0.2c0.4-0.2,0.8-0.3,1.2-0.4c3.9-1.2,8.2-0.6,11.6,1.6c2.5,1.6,4.5,4,5.6,6.7h-0.3v-0.1
		c0.7-2.9,2.4-5.5,4.7-7.4c3.2-2.6,7.5-3.5,11.5-2.5c0.4,0.1,0.9,0.2,1.3,0.4C278.9,60.2,279,60.3,279.1,60.3z"/>
	<path class="st3" d="M351.7,72.7c0,0-0.3-0.1-1-0.2c-0.9-0.2-1.7-0.2-2.6-0.1c-1.3,0.2-2.5,0.7-3.5,1.5c-1.2,1-2.1,2.4-2.5,3.9v0.1
		l-0.1,0.5l-0.2-0.5c-0.6-1.5-1.7-2.7-3-3.6c-1.1-0.7-2.3-1.1-3.6-1.2c-0.9-0.1-1.8,0-2.6,0.2c-0.6,0.2-0.9,0.3-0.9,0.3
		s0.1-0.1,0.2-0.1c0.2-0.1,0.4-0.2,0.7-0.3c2.2-0.7,4.5-0.3,6.4,0.9c1.4,0.9,2.5,2.2,3.1,3.7h-0.3l0,0c0.4-1.6,1.3-3.1,2.6-4.1
		c1.1-0.8,2.3-1.4,3.7-1.5c0.9-0.1,1.8,0,2.7,0.2c0.2,0.1,0.5,0.1,0.7,0.2C351.6,72.6,351.7,72.6,351.7,72.7z"/>
	<path class="st3" d="M317.1,21.6c0,0-0.3,0.4-0.9,1c-0.8,0.9-1.6,1.9-2.2,3c-2.2,3.5-3.4,7.6-3.3,11.8v0.2h-0.4
		c-0.3-2.2-1.1-4.4-2.1-6.4c-0.9-1.6-2-3.1-3.3-4.4c-0.9-0.9-1.8-1.7-2.9-2.4c-0.7-0.5-1.1-0.8-1.1-0.8c0.1,0,0.2,0.1,0.3,0.2
		c0.3,0.2,0.6,0.3,0.9,0.5c1.1,0.7,2.1,1.5,2.9,2.4c3,2.9,5,6.8,5.6,10.9h-0.4v-0.2c0-4.2,1.2-8.4,3.5-11.9c0.7-1.1,1.5-2.1,2.4-3
		c0.3-0.3,0.6-0.6,0.7-0.7S317.1,21.5,317.1,21.6z"/>
</g>
<g id="freepik--Buoy--inject-2">
	
		<rect x="447.8" y="351.3" transform="matrix(0.9038 -0.428 0.428 0.9038 -114.7584 228.3177)" class="st5" width="5.3" height="36.3"/>
	<path class="st3" d="M445,351.7c0.1-0.1,2.9,5.4,6.2,12.3s5.8,12.4,5.7,12.5s-2.8-5.5-6.1-12.3S444.9,351.8,445,351.7z"/>
	<path class="st3" d="M443.4,360.7c0.1-0.1,2.9,5.4,6.1,12.3s5.7,12.4,5.6,12.5s-2.8-5.4-6.1-12.3S443.3,360.7,443.4,360.7z"/>
	
		<rect x="431.1" y="367" transform="matrix(0.7139 -0.7003 0.7003 0.7139 -130.2914 420.3252)" class="st5" width="36.3" height="5.3"/>
	<path class="st3" d="M460.4,354.8c0.1,0.1-4.2,4.5-9.6,9.8s-9.9,9.5-10,9.4s4.2-4.5,9.7-9.8S460.3,354.7,460.4,354.8z"/>
	<path class="st3" d="M458.8,363.8c0.1,0.1-4.2,4.5-9.5,9.8s-9.8,9.5-9.9,9.4s4.2-4.5,9.6-9.8S458.7,363.7,458.8,363.8z"/>
	<path class="st5" d="M453.1,322.4l10.2,1.8c3,0.5,5,3.4,4.5,6.4l0,0l-3,17c-0.3,1.6-1.8,2.6-3.3,2.3l-15.4-2.7
		c-1.6-0.3-2.6-1.8-2.3-3.3l3-17C447.3,323.9,450.1,321.9,453.1,322.4L453.1,322.4L453.1,322.4z"/>
	
		<rect x="453.4" y="328.3" transform="matrix(0.1754 -0.9845 0.9845 0.1754 41.7994 727.898)" class="st6" width="3.9" height="21.3"/>
	
		<rect x="454.7" y="321" transform="matrix(0.1754 -0.9845 0.9845 0.1754 50.1432 723.1073)" class="st6" width="3.9" height="21.3"/>
	<path class="st3" d="M461.4,350c0.3,0,0.6,0,0.9,0c0.8-0.1,1.6-0.6,2-1.3c0.3-0.5,0.4-1.1,0.5-1.7c0.1-0.7,0.2-1.4,0.4-2.1
		c0.3-1.5,0.6-3.3,0.9-5.2s0.7-4.1,1.1-6.3l0.3-1.7c0.1-0.6,0.2-1.2,0.2-1.8c0-1.2-0.4-2.4-1.2-3.4c-1.6-2.1-4.6-2-7.3-2.6l-4.2-0.8
		c-0.7-0.1-1.5-0.3-2.1-0.4c-0.7-0.1-1.4,0-2.1,0.2c-1.4,0.4-2.5,1.4-3.1,2.7c-0.3,0.6-0.5,1.3-0.6,2l-0.4,2.1l-1.4,8
		c-0.2,1.3-0.5,2.5-0.7,3.7c-0.1,0.6-0.2,1.2-0.3,1.8c-0.1,0.5-0.2,1.1-0.1,1.7c0.2,1.1,1,1.9,2,2.2l3,0.6l9.1,1.7l2.5,0.5
		C460.8,349.9,461.1,349.9,461.4,350c-0.3,0-0.5,0-0.8-0.1l-2.5-0.4l-9.2-1.5l-3-0.5c-1.2-0.3-2.1-1.3-2.3-2.5
		c-0.1-0.6,0-1.2,0.1-1.8c0.1-0.6,0.2-1.2,0.3-1.8c0.2-1.2,0.4-2.5,0.7-3.7l1.4-8c0.1-0.7,0.2-1.4,0.4-2.1c0.1-0.7,0.3-1.5,0.6-2.1
		c0.7-1.4,1.9-2.5,3.4-2.9c0.7-0.2,1.5-0.3,2.3-0.2c0.8,0.1,1.5,0.2,2.2,0.4l4.2,0.8l4.1,0.7c1.4,0.2,2.6,1,3.5,2.1
		c0.8,1,1.3,2.3,1.3,3.7c0,0.6-0.1,1.2-0.2,1.8c-0.1,0.6-0.2,1.2-0.3,1.7c-0.4,2.3-0.8,4.4-1.2,6.3s-0.7,3.7-1,5.2
		c-0.1,0.8-0.3,1.5-0.4,2.1c-0.1,0.6-0.3,1.2-0.6,1.8c-0.5,0.7-1.3,1.2-2.1,1.3C462,350.1,461.7,350.1,461.4,350z"/>
	
		<rect x="441.8" y="366.4" transform="matrix(0.1754 -0.9845 0.9845 0.1754 16.5648 757.8571)" class="st5" width="37.7" height="5.3"/>
	
		<rect x="420.9" y="363.6" transform="matrix(0.1754 -0.9845 0.9845 0.1754 2.0725 734.8415)" class="st5" width="37.7" height="5.3"/>
	<path class="st5" d="M437.5,343l33.3,5.9c1.7,0.3,2.9,1.9,2.6,3.7l-0.1,0.4c-0.3,1.7-1.9,2.9-3.7,2.6l-33.3-5.9
		c-1.7-0.3-2.9-1.9-2.6-3.7l0.1-0.4C434.2,343.8,435.8,342.7,437.5,343z"/>
	<path class="st3" d="M470,355.6c0,0.1-7.6-1.1-17-2.8s-17-3.1-17-3.3s7.6,1.1,17,2.8S470.1,355.5,470,355.6z"/>
	<path class="st3" d="M471.2,349c0,0.1-7.7-1.1-17-2.8s-17-3.1-17-3.3s7.6,1.1,17,2.8S471.2,348.9,471.2,349z"/>
	<path class="st3" d="M439,385.2c-0.1,0,1.1-7.6,2.8-17s3.1-16.9,3.3-16.9s-1.1,7.6-2.8,17S439.1,385.2,439,385.2z"/>
	<path class="st3" d="M454.6,388c-0.1,0,1.1-7.6,2.8-17s3.1-16.9,3.3-16.9s-1.1,7.6-2.8,17S454.8,388,454.6,388z"/>
	<path class="st5" d="M467.9,388.6l-41.4-7.4c-2.7-0.5-5.3,1.3-5.8,4l-5.1,28.5l52.9-0.1l3.4-19.3
		C472.4,391.7,470.6,389.1,467.9,388.6z"/>
	<polygon class="st3" points="468.5,413.7 415.5,413.7 419.1,393.7 470.4,402.8 	"/>
	<path class="st3" d="M466.9,388.5c0,0.1-8.8-1.3-19.6-3.2s-19.6-3.6-19.5-3.8s8.8,1.3,19.6,3.2S466.9,388.4,466.9,388.5z"/>
	<path class="st6" d="M387,414.8c4.9-6.2,13.2-8.5,20.6-5.8c3,1.2,5.9,3.2,9.1,3s6.2-2.6,9.5-3.6c3.8-1.2,7.8-0.2,11.7,0.7
		c11.6,2.6,33.7,5.3,48.1,5.7"/>
	<path class="st3" d="M485.9,414.8c-0.1,0-0.2,0-0.3,0h-0.8c-0.7,0-1.7,0-3-0.1c-2.6-0.1-6.4-0.3-11-0.7s-10.2-1-16.3-1.8
		s-12.8-1.9-19.8-3.5c-1.7-0.4-3.4-0.5-5.2-0.5c-1.7,0-3.3,0.4-4.9,1.1c-1.5,0.7-2.9,1.5-4.4,2.2c-1.5,0.7-3.1,1-4.7,0.9
		c-1.5-0.2-3-0.7-4.4-1.4c-1.3-0.6-2.6-1.3-3.9-1.7c-2.4-0.9-4.9-1.2-7.4-1c-3.7,0.3-7.2,1.6-10.1,3.9c-0.8,0.6-1.5,1.3-2.2,2
		l-0.5,0.6c-0.1,0.1-0.2,0.2-0.2,0.2l0.1-0.2l0.5-0.6c0.6-0.8,1.4-1.5,2.1-2.1c2.9-2.4,6.4-3.8,10.2-4.1c2.6-0.2,5.2,0.1,7.6,1
		c2.6,0.9,5.1,2.7,8.1,3c1.5,0.1,3.1-0.2,4.5-0.9c1.5-0.6,2.9-1.5,4.4-2.2c1.6-0.7,3.3-1.1,5.1-1.1c1.8,0,3.6,0.2,5.3,0.6
		c6.9,1.6,13.6,2.7,19.7,3.6s11.6,1.5,16.3,1.9s8.4,0.7,11,0.9l3,0.2h0.8L485.9,414.8z"/>
	<circle class="st7" cx="406.8" cy="397.2" r="2.8"/>
	<path class="st3" d="M409.5,397.2c-0.1-0.2-0.1-0.4-0.2-0.6c-0.2-0.6-0.5-1-1-1.4c-0.7-0.5-1.6-0.6-2.4-0.3c-1.3,0.5-2,1.9-1.5,3.2
		c0.3,0.7,0.8,1.2,1.5,1.5c0.8,0.3,1.7,0.2,2.4-0.3c0.5-0.3,0.8-0.8,1-1.4C409.4,397.6,409.5,397.4,409.5,397.2c0,0,0.1,0.2,0,0.7
		c-0.1,0.6-0.5,1.2-1,1.6c-0.8,0.6-1.8,0.8-2.8,0.5c-1.6-0.6-2.3-2.3-1.8-3.9c0.3-0.8,0.9-1.5,1.8-1.8c1-0.3,2-0.2,2.8,0.5
		c0.5,0.4,0.9,1,1,1.6C409.6,397,409.6,397.2,409.5,397.2z"/>
</g>
<g id="freepik--Character--inject-2">
	<path class="st1" d="M220.1,121.5c0,0,8.6,146.3,86.6,227.9l-90.4-2.7L220.1,121.5z"/>
	<path class="st3" d="M220.1,121.5c0,2.5-1.5,96.8-3.6,225.2l-0.2-0.3l56.6,1.7l33.8,1l-0.2,0.4c-11.6-12.4-21.9-26-30.7-40.5
		c-8.1-13.4-15.2-27.4-21.2-41.9c-10.1-24.3-18-49.4-23.7-75c-3.9-17.1-6.9-34.3-9-51.7c-0.7-6.1-1.2-10.9-1.5-14.1
		c-0.1-1.6-0.2-2.8-0.3-3.7c0-0.4,0-0.7-0.1-0.9L220.1,121.5c0,0.3,0.2,1.8,0.5,4.9s0.8,8,1.6,14.1c1.6,12.2,4.2,29.9,9.2,51.6
		c5.7,25.6,13.6,50.7,23.7,74.9c6,14.4,13.1,28.4,21.2,41.8c8.8,14.5,19,28,30.6,40.4l0.4,0.5h-0.6l-33.8-1l-56.6-1.7H216v-0.2
		C218.3,218.3,220,124,220.1,121.5z"/>
	<path class="st6" d="M270.5,300.2c-3.1,12.2-19.5,6.2-27.3-0.3c-3.8-3.2-6.6-7.4-10-11.1s-7.7-6.9-12.7-7l-0.5,34.5
		c0,0,6.7-5.5,18.7,6.4s25.1,13.6,33,7.6s9.8-12.1,9.8-12.1L270.5,300.2z"/>
	<path class="st1" d="M56,341.2c0,0,23.3-177.7,160.9-220.5l-0.1,17.6c0,0-42.7,94.9-0.6,209.8L56,341.2z"/>
	<path class="st3" d="M128.2,204.3c0.1,0.1-3.4,5.3-7.8,11.7s-8.1,11.5-8.2,11.4s3.4-5.3,7.8-11.7S128.1,204.2,128.2,204.3z"/>
	<path class="st6" d="M64.7,302c9.7,6.9,23.9,6.8,34.7,1.7s19.3-13.8,27.6-22.5s16.6-17.5,27.2-23c13.4-6.8,29-7.7,43-2.4l0.7,0.4
		c0,0,0-25.2,0.2-28.6c0,0-14.6-5.1-24.5-6.6c-11.1-1.6-31.4,1.2-49.3,20c-15.6,16.5-30.7,38.3-49,28.9
		C71.4,281.1,67.8,291.9,64.7,302z"/>
	<path class="st3" d="M56,341.2l160.2,6.6l-0.2,0.3c-20.7-56.6-24.2-118.1-10.1-176.6c2.7-11.4,6.2-22.5,10.6-33.3v0.1
		c0-5.9,0.1-11.8,0.1-17.6l0.3,0.2c-18.8,5.9-36.6,14.7-52.8,26.1c-14.8,10.5-28.2,23-39.8,36.9c-10.4,12.5-19.7,25.9-27.7,40.1
		c-6.9,12.3-13,25-18.3,38c-7.6,18.7-13.7,38-18.3,57.6c-1.6,6.9-2.6,12.3-3.3,16c-0.3,1.8-0.5,3.2-0.7,4.2S56.1,341.3,56,341.2
		c0,0.1,0.1-0.4,0.2-1.4s0.3-2.3,0.7-4.2c0.6-3.7,1.6-9.1,3.2-16c4.5-19.7,10.6-39,18.1-57.7c5.3-13.1,11.4-25.8,18.3-38.1
		c8-14.2,17.2-27.7,27.7-40.2c11.6-14,25-26.4,39.8-37c16.1-11.4,34-20.2,52.8-26.2l0.3-0.1v0.3c0,5.8-0.1,11.6-0.1,17.6v0.1l0,0
		c-4.4,10.8-7.9,21.9-10.6,33.2c-14.2,58.5-10.7,119.9,10,176.4l0.1,0.3h-0.3L56,341.2z"/>
	<path class="st3" d="M173.6,148.5l-0.4,0.3l-1.1,0.9L168,153l-3,2.4c-1.1,0.9-2.2,1.9-3.4,3c-2.4,2.2-5.3,4.5-8.2,7.4l-4.6,4.4
		c-1.6,1.6-3.2,3.3-4.9,5c-3.4,3.4-6.7,7.3-10.3,11.4c-15.2,17.9-28,37.8-37.9,59.1c-2.2,4.9-4.4,9.6-6.1,14.1
		c-0.9,2.2-1.8,4.4-2.5,6.5s-1.4,4.1-2.1,6.1c-1.4,3.9-2.4,7.4-3.3,10.5c-0.5,1.6-0.9,3-1.3,4.4s-0.7,2.6-0.9,3.7
		c-0.6,2.2-1,3.9-1.3,5.1l-0.3,1.3c-0.1,0.3-0.1,0.5-0.1,0.5s0-0.2,0.1-0.5s0.2-0.8,0.3-1.3c0.3-1.2,0.7-2.9,1.2-5.1
		c0.3-1.1,0.6-2.4,0.9-3.7s0.8-2.8,1.2-4.4c0.9-3.1,1.9-6.7,3.3-10.6c0.7-1.9,1.4-4,2.1-6.1s1.7-4.2,2.5-6.5c1.7-4.5,3.8-9.2,6-14.2
		c9.9-21.4,22.7-41.3,38-59.2c3.6-4.1,6.9-8,10.4-11.4c1.7-1.7,3.3-3.4,4.9-5l4.7-4.4c2.9-2.9,5.8-5.2,8.2-7.4
		c1.2-1.1,2.4-2.1,3.4-3l3-2.4l4.2-3.2l1.1-0.8C173.2,148.6,173.4,148.5,173.6,148.5z"/>
	<path class="st8" d="M208.1,208.8c0,0,2.3-2.5,3-2.6s7.9,2.1,7.9,2.1c0.8,0.2,1.6,0.5,2.3,1.1c0.6,0.8,7,7.9,7,7.9l4.6,2.2
		l-4.2,10.6l-7.5-5.3c0,0-9.3-1.7-10.1-2.6s-1.5-2.5-0.9-3c-0.4-0.7-0.6-1.5-0.5-2.3c0.1-0.6,0.3-1.1,0.5-1.6c0,0-1.4-1-1.4-1.7
		c0-0.4-0.1-0.7-0.3-1.1l-0.3-0.5L208.1,208.8z"/>
	<path class="st9" d="M211.4,210.3c0,0,0,0.2-0.1,0.6c-0.2,0.5-0.5,0.9-0.9,1.2c-0.4,0.3-1,0.4-1.5,0.3c-0.4-0.1-0.6-0.3-0.5-0.3
		s0.2,0.1,0.6,0.1c0.4,0,0.9-0.1,1.2-0.4c0.3-0.3,0.6-0.6,0.9-1C211.2,210.5,211.3,210.3,211.4,210.3z"/>
	<path class="st8" d="M224.4,214.3l-13.4-7.4c0,0-1.4,1.5,0.5,3.5c1.5,1.5,3.1,2.8,4.8,4l3.7,6.6L224.4,214.3z"/>
	<path class="st4" d="M314.9,202.3h9.6l8.5-2.1c0,0,5.2,23.7,7.7,32.8s29.1,39,29.9,41.2s0.3,11.8-11.2,14.5s-17.8-1.9-20.9,3.6
		c-1.6,3-3.5,6-5.5,8.8l-59.5,5.2l8.1-43.4l3-54.1l10.2-12.6L314.9,202.3z"/>
	<g class="st10">
		<path d="M314.9,202.3h9.6l8.5-2.1c0,0,5.2,23.7,7.7,32.8s29.1,39,29.9,41.2s0.3,11.8-11.2,14.5s-17.8-1.9-20.9,3.6
			c-1.6,3-3.5,6-5.5,8.8l-59.5,5.2l8.1-43.4l3-54.1l10.2-12.6L314.9,202.3z"/>
	</g>
	<path class="st8" d="M381.4,128.6l-3.7,10.3l-1.3,1.7c0,0-1.2,5.7-1.3,7s1.4,7.7,1.4,7.7l-3.7,5.6l9.8,4c0,0,2.8-5.2,3.5-5.8
		c0.8-1,1.4-2.1,1.5-3.4c0.2-1.1,1.8-7.9,1.8-7.9s4.5-7.4,2.7-7.8c-0.5-0.1-0.9-0.1-1.4,0c0,0-2.7,4.9-3.5,5l-1-0.6
		c0,0,2.2-7.5,2.3-8.9s-0.1-2.4-1.2-2.6c0,0-0.8,0.3-0.9,0.7s-2.3,8.7-2.8,8.6s-0.2-0.9-0.2-0.9s3-10.1,2.8-10.7
		c0-0.8-0.7-1.5-1.6-1.5l-2.2,5.6c0,0,1.1-4.7,0.3-5.6C382.6,128.5,382,128.4,381.4,128.6z"/>
	<path class="st9" d="M383.1,151.6c-0.1,0,0-0.9-0.3-2.3c-0.4-1.9-1.5-3.6-3-4.8l-0.1-0.1v-0.2c0.2-0.7,0.4-1.5,0.6-2.3v-0.1l0,0
		c0.2-0.3,0.4-0.5,0.5-0.8c0.6-0.9,1-1.9,1.2-3c0.1-0.5,0.1-0.9,0-1.4c-0.1-0.4-0.4-0.7-0.7-0.8l0.2-0.1c-1.2,1.1-2.2,2-2.9,2.6
		c-0.4,0.4-0.7,0.7-1.2,0.9c0.3-0.4,0.6-0.8,1-1.1c0.7-0.7,1.6-1.6,2.8-2.8l0.1-0.1h0.1c0.6,0.1,1,0.5,1.2,1.1
		c0.1,0.5,0.1,1.1,0,1.6c-0.2,1.1-0.6,2.2-1.2,3.1c-0.2,0.3-0.4,0.6-0.6,0.9V142c-0.2,0.8-0.4,1.6-0.6,2.3l-0.1-0.3
		c1.6,1.3,2.6,3.1,3,5.2c0.1,0.6,0.1,1.2,0.1,1.7C383.1,151.3,383.1,151.6,383.1,151.6z"/>
	<path class="st9" d="M383.2,143.2c1.1,0.2,2.2,0.7,3.1,1.4c1,0.6,1.8,1.4,2.4,2.4c-0.9-0.6-1.9-1.3-2.7-2
		C385.1,144.5,384.1,143.8,383.2,143.2z"/>
	<path class="st4" d="M318.3,411.8l-11.8,12c0,0,8.2,16,6.3,18.4l-24.1-22l17.6-19.5L318.3,411.8z"/>
	<g class="st10">
		<path d="M318.3,411.8l-11.8,12c0,0,8.2,16,6.3,18.4l-24.1-22l17.6-19.5L318.3,411.8z"/>
	</g>
	<path class="st0" d="M300.1,415.9c-0.6-0.3-1.3-0.1-1.7,0.5c-0.3,0.6-0.1,1.3,0.5,1.7c0.7,0.3,1.4,0.1,1.8-0.5
		c0.3-0.7,0-1.4-0.7-1.7"/>
	<g class="st11">
		<path class="st6" d="M288.8,420.2l1.9-1.9l22.4,21.8c0,0,0.6,1.4-0.2,2.1L288.8,420.2z"/>
	</g>
	<path class="st3" d="M307.1,424c-0.1,0.1-0.7-0.4-1.7-0.5s-1.7,0.1-1.8-0.1s0.7-0.7,1.9-0.5S307.2,423.9,307.1,424z"/>
	<path class="st3" d="M308.7,427.3c-0.1,0.1-0.8-0.1-1.6,0s-1.5,0.6-1.6,0.5s0.4-0.9,1.5-1S308.8,427.2,308.7,427.3z"/>
	<path class="st3" d="M307.3,431.7c-0.1-0.1,0.2-0.8,1.1-1.2s1.7-0.1,1.6,0s-0.7,0.2-1.4,0.5S307.5,431.8,307.3,431.7z"/>
	<path class="st3" d="M309.5,421c-0.1,0.1-0.5-0.6-1.2-1.2s-1.4-0.8-1.4-1s0.9-0.1,1.7,0.5S309.6,420.9,309.5,421z"/>
	<path class="st3" d="M311.8,418.5c0,0-0.6-0.3-1.2-1.1c-0.4-0.5-0.7-1-0.9-1.5c-0.1-0.3-0.3-0.7-0.4-1c-0.1-0.2-0.1-0.4-0.1-0.6
		c0-0.3,0.2-0.6,0.5-0.7c0.3-0.1,0.6,0,0.8,0.2c0.2,0.1,0.3,0.3,0.4,0.5c0.2,0.3,0.4,0.6,0.5,0.9c0.2,0.6,0.4,1.1,0.5,1.8
		c0.1,0.5,0,1.1-0.2,1.6c-0.1,0,0-0.6-0.2-1.6c-0.1-0.5-0.3-1.1-0.5-1.6c-0.1-0.3-0.3-0.6-0.5-0.8c-0.2-0.3-0.4-0.5-0.6-0.5
		s-0.1,0-0.1,0.2c0,0.2,0,0.3,0.1,0.5c0.1,0.3,0.2,0.6,0.3,1c0.2,0.5,0.5,1,0.8,1.5C311.2,417.6,311.5,418,311.8,418.5z"/>
	<path class="st3" d="M311.5,418.5c-0.1,0,0.1-0.7,0.8-1.5c0.4-0.5,0.8-0.9,1.4-1.2c0.3-0.2,0.7-0.3,1-0.5c0.4-0.2,0.9-0.2,1.3,0.1
		c0.2,0.2,0.3,0.5,0.2,0.8c-0.1,0.2-0.2,0.4-0.3,0.5c-0.2,0.3-0.5,0.6-0.7,0.8c-0.5,0.4-1,0.7-1.6,0.8c-1,0.2-1.7-0.1-1.6-0.2
		c0.5,0,1-0.1,1.5-0.2c0.5-0.2,1-0.4,1.4-0.8c0.2-0.2,0.4-0.5,0.6-0.7c0.2-0.3,0.3-0.6,0.2-0.6c-0.2-0.1-0.5-0.1-0.8,0
		c-0.3,0.1-0.6,0.2-0.9,0.4c-0.5,0.3-0.9,0.6-1.3,1C311.8,418,311.6,418.6,311.5,418.5z"/>
	<path class="st4" d="M315.3,414.2l-0.1,16.8c0,0,17,5.7,17.3,8.9l-32.6,1l-0.9-26.2L315.3,414.2z"/>
	<path class="st0" d="M305.1,429.9c-0.6,0.2-1,0.9-0.9,1.5c0.2,0.7,0.9,1,1.5,0.9c0.7-0.2,1.1-0.9,0.9-1.6c-0.3-0.7-1-1-1.7-0.7"/>
	<g class="st11">
		<path class="st6" d="M299.9,440.8v-2.6h31.2c0,0,1.5,0.6,1.3,1.6L299.9,440.8z"/>
	</g>
	<path class="st3" d="M315.7,430.8c0,0.2-0.8,0.3-1.6,0.8s-1.2,1.2-1.3,1.2s0.1-1,1-1.6S315.7,430.6,315.7,430.8z"/>
	<path class="st3" d="M319.2,432.1c0,0.2-0.6,0.5-1.2,1.1s-0.6,1.4-0.8,1.4s-0.3-0.9,0.4-1.7S319.2,432,319.2,432.1z"/>
	<path class="st3" d="M321.2,436.1c-0.1,0-0.4-0.8,0-1.6s1.1-1.2,1.2-1.1s-0.4,0.6-0.7,1.3S321.4,436.1,321.2,436.1z"/>
	<path class="st3" d="M315.3,427c-0.1,0.1-0.8,0-1.7,0s-1.6,0.4-1.7,0.3s0.6-0.7,1.6-0.8S315.4,426.8,315.3,427z"/>
	<path class="st3" d="M315.3,423.6c-0.5,0.1-1.1,0.1-1.6,0c-0.9-0.1-1.8-0.5-2.7-0.9c-0.2-0.1-0.4-0.2-0.5-0.4
		c-0.2-0.2-0.3-0.6-0.1-0.8c0.2-0.2,0.4-0.4,0.7-0.4c0.2,0,0.4,0,0.6,0.1c0.3,0.1,0.7,0.2,1,0.3c0.6,0.2,1.1,0.5,1.5,0.9
		C314.9,423,315.2,423.6,315.3,423.6c-0.1,0.1-0.5-0.3-1.3-0.9c-0.5-0.3-1-0.6-1.5-0.8c-0.3-0.1-0.6-0.2-0.9-0.3
		c-0.4-0.1-0.6-0.1-0.7,0.1s0,0.1,0,0.2c0.1,0.1,0.2,0.2,0.4,0.3c0.3,0.2,0.6,0.3,0.9,0.5c0.5,0.2,1.1,0.4,1.6,0.6
		C314.2,423.3,314.7,423.4,315.3,423.6z"/>
	<path class="st3" d="M315,423.8c-0.3-0.5-0.5-1-0.5-1.6c-0.1-0.6,0-1.2,0.2-1.8c0.1-0.3,0.2-0.7,0.4-1c0.2-0.4,0.5-0.8,1-0.9
		c0.3,0,0.6,0.2,0.7,0.4c0.1,0.2,0.2,0.4,0.2,0.6c0.1,0.4,0.1,0.7,0,1.1c-0.1,0.6-0.3,1.2-0.6,1.7c-0.6,0.9-1.3,1.1-1.3,1
		c0.3-0.4,0.7-0.8,1-1.2c0.3-0.5,0.4-1,0.5-1.5c0-0.3,0-0.6,0-1c-0.1-0.3-0.2-0.6-0.3-0.6s-0.4,0.3-0.6,0.5
		c-0.2,0.3-0.3,0.6-0.4,0.9c-0.2,0.5-0.2,1.1-0.3,1.6C315,423.2,315.1,423.8,315,423.8z"/>
	<path class="st3" d="M333.5,275.5l28.2,68.1c2.6,6,3.6,11.9,1.9,18.1c-1.2,4-3.3,7.6-6.2,10.6L316,420.6l-12.5-18.8l32-44
		l-16.3-33.5l3.6-48.8L333.5,275.5z"/>
	<path class="st3" d="M317.9,426.5l5.9-136.1v-14.7l-32.2-3.8c0,0-7.3,12.9-9.4,21.6s9,59.2,9,59.2l0.2,24.2l4.3,50L317.9,426.5z"/>
	<path class="st5" d="M317.9,426.5c-0.1,0,1.1-31,2.7-69.2s3-69.2,3.1-69.2s-1.1,31-2.7,69.2S318,426.5,317.9,426.5z"/>
	<path class="st5" d="M312,275c0,0.2-0.1,0.5-0.2,0.7c-0.2,0.6-0.5,1.2-0.9,1.8c-1.2,1.9-2.8,3.4-4.7,4.5c-1.9,1.1-4.1,1.7-6.2,1.7
		c-0.7,0-1.3,0-2-0.1c-0.2,0-0.5-0.1-0.7-0.2c0-0.1,1,0.1,2.7,0c4.3-0.2,8.3-2.5,10.7-6.1C311.5,276,311.9,275,312,275z"/>
	<path class="st5" d="M343.2,356.5c0,0.1-1.7,0.3-3.8,0.7s-3.8,0.9-3.8,0.8c1.2-0.6,2.4-1,3.7-1.2
		C340.5,356.4,341.9,356.3,343.2,356.5z"/>
	<path class="st4" d="M314.7,196.9l0.2,5.3c0,0,8.7,17.2,11.7,21.8c4.3,6.5,9.2,15.2,14.8,23c2.7,3.8,19.9,18.2,26.4,24.4
		c2.4,2.2,3.3,5.5,2.3,8.6c-0.2,0.5-2.6,4-2.9,4.4c0,0,8-7.2,6.2-13.2s-19.7-23.7-23.8-31.3c-4.4-8.1-9.8-20.8-12.6-26.2
		s-4.6-14.7-4.6-14.7l-12.3,3L314.7,196.9z"/>
	<path class="st8" d="M330.8,232.2c-0.5,0.6-3.8,19.3-3.8,19.3l6.4,24c0,0-1.3,2.4-10.6,0.9c-7.6-1.2-35.9-3.4-35.9-3.4l-1.6-38
		l7.8-33.6l21.7,0.9L330.8,232.2z"/>
	<path class="st7" d="M292,206.2l16.2,21.6c1.8,2.3,5,2.8,7.4,1c0.7-0.5,1.3-1.3,1.6-2.1c0,0,0-0.1,0-0.1c1.2-3.1,3.5-13.1,3.5-13.1
		l10.4,18l7.2,30.2c0,0-16.8,3.6-25.3,4.9l-24.7,3.6l-3.1-35.1l4.2-20.2L292,206.2z"/>
	<path class="st4" d="M332.2,199.4l23.8-17.6l15.7-22.2l14.4,5.3l-0.8,6.1l-2.1-0.3c-5.5,9.8-14.2,22.9-15.6,25.1
		c-2.2,3.6-28.5,28-28.5,28L332.2,199.4z"/>
	<g class="st10">
		<path d="M290.9,213.7c0.3,3.8,0.3,7.7-0.1,11.5c-1.6,25.9,13.8,45.1,13.4,68.9c-5.4-12.1-12-23.4-15.9-36
			C283.8,243.5,284.7,227.7,290.9,213.7z"/>
	</g>
	<path class="st4" d="M281.9,202.1l5.5-0.1l6.5-4.5l-1.7,9.9c0,0-3,16-3.1,24.3c-0.2,17.7,16.9,54.8,15.7,65.2
		c0,0-10.8-4.8-19.5-5.7c-8.4-0.9-11.7,15.2-11.7,15.2s-1.4-22.1,0.1-28.3c1.4-5.2,3.2-10.3,5.2-15.2l-2.6-28.8
		c0.2,2.2-0.2-1.5-0.2-1.5s-13.3,16.5-17.3,15.9c-4.5-0.6-27.1-16.1-27.1-16.1l-2,3l-4.3-6.1l6-13.9l24.3,11l16.4-18.9
		c0,0,4.2-5.1,9.5-5.3"/>
	<path class="st3" d="M272.6,214.9c0.4,1,0.7,2,0.9,3c0.5,1.9,1.1,4.5,1.6,7.4s0.9,5.6,1.1,7.5c0.2,1,0.2,2.1,0.2,3.1
		c-0.3-1-0.4-2-0.6-3.1c-0.3-1.9-0.7-4.6-1.3-7.4l-1.4-7.4C272.9,217,272.7,216,272.6,214.9z"/>
	<g class="st10">
		<path d="M337.6,212.2c2,3,3.4,6.6,3.2,10.2c0,0-9-15.2-10.9-17.5C333,206.7,335.6,209.2,337.6,212.2z"/>
	</g>
	<path class="st3" d="M332.8,209.1c0.3,0.4,0.6,0.8,0.9,1.2c0.5,0.8,1.3,1.9,2.2,3.3c1.8,2.8,4.2,6.8,6.7,11.3s4.6,8.6,6,11.7
		c0.7,1.5,1.2,2.8,1.5,3.7c0.2,0.4,0.3,0.9,0.4,1.4c-0.3-0.4-0.5-0.9-0.6-1.3c-0.4-0.9-0.9-2.1-1.6-3.6c-1.4-3-3.6-7.1-6.1-11.6
		s-4.9-8.5-6.6-11.3l-2-3.4C333.3,210,333,209.6,332.8,209.1z"/>
	<path class="st3" d="M288,202c-0.1,1.1-0.2,2.2-0.4,3.2c-0.3,2-0.8,4.7-1.4,7.7l-0.3,1.4l-0.4-0.2c1.9-1.7,3.6-3.3,4.9-4.4l0.2-0.2
		l0.1,0.3c0.3,1,0.5,2,0.6,3.1c-0.4-1-0.7-2-0.9-3l0.3,0.1c-1.2,1.2-2.9,2.7-4.8,4.5l-0.6,0.5l0.1-0.8l0.3-1.4
		c0.6-3,1.1-5.7,1.6-7.7C287.4,204.1,287.6,203,288,202z"/>
	<path class="st3" d="M320.1,202.2c0.5,0.6,0.9,1.3,1.3,2.1c0.8,1.3,1.9,3.2,3,5.3l0.6,1l-0.9-0.6c-0.6-0.4-1.2-0.9-1.9-1.4
		c-1.1-0.8-2.2-1.7-3.2-2.7l0.4-0.2c0.4,1.9,0.8,3.6,1,4.7c0.2,0.6,0.3,1.2,0.3,1.9c-0.3-0.6-0.4-1.2-0.6-1.8
		c-0.3-1.1-0.7-2.8-1.2-4.7l-0.2-0.8l0.6,0.6c1,0.9,2.1,1.8,3.2,2.6l1.9,1.4l-0.4,0.3c-1.2-2.1-2.2-4.1-2.9-5.4
		C320.7,203.7,320.4,202.9,320.1,202.2z"/>
	<path class="st3" d="M315,202.6c0.1,0.2,0.3,0.4,0.4,0.6l1.1,1.9l3.9,7c3.3,5.9,8,14.1,13.3,22.9c2.5,4.2,5.2,8.2,8.1,12.1
		c2.5,3,5.3,5.9,8.2,8.6c2.5,2.3,4.6,4.1,6,5.3l1.6,1.5c0.2,0.2,0.4,0.3,0.5,0.5c-0.2-0.1-0.4-0.3-0.6-0.5l-1.7-1.4
		c-1.5-1.2-3.6-3-6.1-5.2c-3-2.6-5.8-5.5-8.4-8.5c-3-3.9-5.7-7.9-8.2-12.1c-5.3-8.9-10-17.1-13.2-23c-1.6-3-2.9-5.4-3.8-7.1
		c-0.4-0.8-0.7-1.5-1-2C315.2,203,315.1,202.8,315,202.6z"/>
	<g class="st10">
		<path d="M324.5,209.8c-1.2-2.3-2.6-4.1-3.7-6.4l-0.3-0.6c2.3,2.6,4.4,6.2,6.4,9.4c-2.2-0.7-4.1-1.9-5.9-3.4
			c-0.2,1.1-0.3,2.1-0.3,3.2c-0.5-2-0.9-4.1-1.4-6.1C319.3,205.9,322.8,208.7,324.5,209.8z"/>
	</g>
	<g class="st10">
		<path d="M291.2,212.8l-0.9-1.3l-6,5.9c-0.1-0.8,0-1.6,0.3-2.4c0.6-2.3,1.6-5.1,2.2-7.5c-0.3,2.1-0.9,4.7-1.2,6.8
			c1.6-1.6,3.2-3,4.9-4.6L291.2,212.8z"/>
	</g>
	<g class="st10">
		<path d="M272.6,215.4c1.2,4.2,3.2,12.8,3.4,17.2l0,0C273.8,228.4,272,220.1,272.6,215.4z"/>
	</g>
	<path class="st3" d="M290.3,219.2c0,0.3,0,0.5-0.1,0.8c-0.1,0.5-0.2,1.3-0.3,2.3c-0.2,2-0.4,4.9-0.5,8.5s-0.1,7.9,1.2,12.5
		c1.2,4.6,2.8,9.6,4.4,14.9s3.3,10.2,4.8,14.8s2.6,8.7,3.5,12.2c0.7,2.8,1.2,5.6,1.6,8.4c0.1,1,0.2,1.8,0.2,2.3c0,0.3,0,0.5,0,0.8
		c-0.1-0.3-0.1-0.5-0.1-0.8c-0.1-0.5-0.2-1.3-0.3-2.3c-0.3-2-0.9-4.9-1.7-8.4s-2.1-7.6-3.6-12.1s-3.2-9.5-4.8-14.8
		s-3.1-10.3-4.3-14.9c-0.3-1.2-0.6-2.3-0.8-3.4c-0.2-1.1-0.3-2.2-0.4-3.3c-0.1-2.1-0.1-4.1,0-5.9c0.1-3.6,0.4-6.5,0.6-8.5
		c0.1-1,0.3-1.8,0.4-2.3C290.1,219.8,290.2,219.5,290.3,219.2z"/>
	<path class="st3" d="M279.5,263c1.3,0,2.5,0.1,3.8,0.4c1.3,0.1,2.5,0.3,3.7,0.7c-1.3,0.2-2.5,0.1-3.8-0.2
		C281.9,263.8,280.7,263.5,279.5,263z"/>
	<path class="st3" d="M238.7,218.7c-1.3,2.9-2.7,5.7-4.3,8.5c-1.4,2.8-3,5.6-4.7,8.2c1.3-2.9,2.7-5.7,4.3-8.5
		C235.4,224.2,237,221.4,238.7,218.7z"/>
	<path class="st3" d="M367.4,165.7c0.9,0.2,1.8,0.5,2.6,0.8c1.6,0.6,3.8,1.3,6.3,2.1s4.8,1.4,6.4,1.8c0.9,0.2,1.8,0.4,2.6,0.8
		c-0.9-0.1-1.8-0.2-2.7-0.4c-1.7-0.4-4-0.9-6.5-1.7s-4.7-1.6-6.3-2.2C369.1,166.6,368.2,166.2,367.4,165.7z"/>
	<path class="st3" d="M302.2,249.3c0.6-0.6,1.3-1.2,2.1-1.7c1.3-1,3.1-2.5,5-4.2s3.6-3.3,4.7-4.5c0.6-0.7,1.3-1.3,2-1.9
		c-0.5,0.8-1.1,1.5-1.7,2.1c-3,3.2-6.2,6.1-9.8,8.7C303.9,248.4,303.1,248.9,302.2,249.3z"/>
	<g class="st10">
		<path d="M297,253.2c3.4-2.8,10.4-6.6,15-11.9l0.5,0.1c-3.8,5.5-7.9,11.3-14,14.1c-0.8,0.4-1.8,0.6-2.3-0.1S296.4,253.7,297,253.2z
			"/>
	</g>
	<path class="st3" d="M325.1,163.9c0,0,0.4,8.4,6.2,13.7c2.5,2.2,7.4,3.1,8.7,6.2l0.4,1.5c0,0-21,13.4-28.5,13.9l-6.3-15.4
		L325.1,163.9z"/>
	<path class="st3" d="M284.2,171.2c1.7-7.4,2.4-16,8.5-20.8c4.5-3.6,9.7-4.6,15.5-4.3c3,0.3,5.9,1.3,8.5,2.8
		c3.4,1.9,4.8,5.8,6.5,9.4c3.3,7.1,2.9,16.7,0.6,19.4l-29.7,15.7c-5.9-3.1-9.6-4.3-10.6-12.2C283.2,177.8,283.4,174.4,284.2,171.2z"
		/>
	<path class="st8" d="M297.7,154.1l14.3-3.4c6-0.9,10.3,6.4,10.9,12.4c0.7,6.7,1.3,14.9,0.7,20c-1.2,10.2-8.9,11.8-8.9,11.8
		s0,0.1,0,3.2l0.3,4.9c0.1,2-0.5,3.9-1.6,5.5c-2.8,3.6-7.8,4-13.7,1.9c-3.4-1.3-4.9-5.8-5.1-9.2l-2.8-41.2
		C291.6,158,295.9,154.4,297.7,154.1z"/>
	<path class="st3" d="M320.9,172.9c0,0.7-0.5,1.3-1.2,1.4c-0.7,0.1-1.3-0.4-1.4-1.1c0,0,0,0,0,0c0-0.7,0.5-1.3,1.2-1.4
		C320.2,171.6,320.8,172.1,320.9,172.9C320.9,172.8,320.9,172.8,320.9,172.9z"/>
	<path class="st3" d="M321.4,169.3c-0.1,0.2-1.2-0.5-2.5-0.4s-2.4,0.8-2.5,0.6s0.1-0.4,0.5-0.7c0.6-0.4,1.3-0.7,2-0.7
		c0.7,0,1.4,0.2,2,0.6C321.3,168.9,321.5,169.2,321.4,169.3z"/>
	<path class="st3" d="M308.4,172.9c0,0.7-0.5,1.3-1.2,1.4c-0.7,0.1-1.3-0.4-1.4-1.1c0,0,0,0,0,0c0-0.7,0.5-1.3,1.2-1.4
		C307.7,171.6,308.3,172.1,308.4,172.9C308.4,172.8,308.4,172.8,308.4,172.9z"/>
	<path class="st3" d="M308.6,169.3c-0.1,0.2-1.2-0.5-2.6-0.4s-2.4,0.8-2.5,0.6s0.1-0.4,0.5-0.7c0.6-0.4,1.3-0.7,2-0.7
		c0.7,0,1.4,0.2,2,0.6C308.5,168.9,308.6,169.2,308.6,169.3z"/>
	<path class="st3" d="M313.1,178.5c0.7-0.3,1.5-0.4,2.2-0.5c0.4,0,0.7-0.1,0.7-0.4c0-0.4-0.1-0.7-0.3-1l-1.2-2.7
		c-1.6-3.8-2.8-6.9-2.6-7c1.2,2.2,2.3,4.4,3.2,6.8c0.4,0.9,0.8,1.8,1.1,2.7c0.2,0.4,0.3,0.9,0.2,1.4c-0.1,0.3-0.3,0.5-0.6,0.5
		c-0.2,0.1-0.4,0.1-0.6,0.1C314.6,178.6,313.9,178.6,313.1,178.5z"/>
	<path class="st9" d="M314.7,195c-4.8,0.3-9.5-0.8-13.7-3.1c0,0,3.6,6.9,13.7,5.6L314.7,195z"/>
	<path class="st9" d="M308.5,181.6c0.3-0.6,0.9-0.9,1.6-0.9c0.9-0.1,1.8,0.3,2.3,1c0.2,0.3,0.2,0.7,0.1,1.1c-0.1,0.2,0,0.1-0.2,0.2
		c-0.5,0.5-1.1,0.9-1.7,1.2c-0.7,0.2-1.5,0-2-0.6C308.3,182.9,308.2,182.2,308.5,181.6z"/>
	<path class="st3" d="M308.8,179.7c0.2,0,0.3,1.5,1.6,2.5s2.9,0.8,3,1s-0.3,0.3-1,0.4c-0.9,0-1.8-0.2-2.5-0.7
		c-0.7-0.5-1.1-1.3-1.3-2.1C308.5,180.1,308.7,179.7,308.8,179.7z"/>
	<path class="st3" d="M308.2,164.4c-0.1,0.4-1.5,0.4-3.1,0.7s-2.9,0.9-3.1,0.6c-0.1-0.1,0.1-0.5,0.6-0.9c1.3-1.1,3.1-1.4,4.8-1
		C307.9,163.9,308.2,164.2,308.2,164.4z"/>
	<path class="st3" d="M321.3,165.6c-0.3,0.3-1.3-0.2-2.6-0.4s-2.4-0.1-2.6-0.5c-0.1-0.2,0.1-0.5,0.6-0.7c0.7-0.3,1.5-0.3,2.2-0.2
		c0.7,0.1,1.4,0.4,2,0.9C321.3,165.1,321.4,165.4,321.3,165.6z"/>
	<path class="st3" d="M311.7,149.7c0,0.1,0,0.1,0,0.2l0,0L311.7,149.7z"/>
	<path class="st3" d="M309.6,193.3c-0.3-2.8-6.4-9.1-8.5-11c-3.7-3.3-5.6-5.6-3.7-12.7c2.6-0.4,4.9-1.8,6.6-3.8
		c1.9-2.5,3.4-5.2,4.4-8.2c-0.1,2.8-1,5.6-2.8,7.9c1.1,0.2,2.3-0.2,3.1-1c0.8-0.8,1.4-1.8,1.9-2.9c1.1-2.6,1.7-5.3,1.8-8.1
		c0.4,4-0.1,8-1.3,11.8c0.7-0.1,1.5-0.1,2.2,0.1c0.7,0.2,1.5,0,2.1-0.4c0.3-0.4,0.5-0.9,0.6-1.4c0.7-3.4,0.8-6.9,0.3-10.3
		c1,1.8,1.7,3.7,2.3,5.7c0.6,2,0.6,4.1,0,6.1c0.3,0.3,0.9,0.3,1.3,0c0.3-0.4,0.5-0.8,0.5-1.3c0.2-1.7,0.1-3.4-0.3-5.1
		c0.9,1.8,1.5,3.8,2,5.8c0.6,1.9,1.9,3.5,3.6,4.6c0.3-3-0.3-4.4-0.7-7.2c-0.5-2.1-1.2-4.2-2.3-6.1c-1-2.1-2.4-4.1-4.1-5.7
		c-3-2.6-4.2-1.5-6.1-0.5l-0.2,0.1c0,0,0-0.1,0-0.1l-0.1-0.4c-5-1.1-10.2-0.9-15,0.7c-4.1,1.6-7.5,4.4-9.8,8.1
		c0,0.1-0.1,0.1-0.1,0.2c-9,17-4.6,27.1,0.5,40.6l10.2-1.9l-3.3-6.8l4.2,6.9L309.6,193.3z"/>
	<path class="st3" d="M311.7,192c-0.1-1.4-0.5-2.8-1.3-4c-0.9-1.3-2-2.4-3.2-3.2c-1.4-1-3.1-1.9-4.8-3.1c-1.6-1.1-3-2.6-3.9-4.3
		c-0.7-1.4-1.1-3-1.2-4.6c-0.1-1.1,0.1-2.1,0.3-3.2c0.1-0.3,0.2-0.6,0.3-0.8c0.1-0.2,0.1-0.3,0.1-0.3c-0.3,1.4-0.5,2.8-0.4,4.2
		c0.2,3.5,2.1,6.6,5,8.5c1.6,1.2,3.4,2.1,4.8,3.1c1.3,0.9,2.4,2.1,3.3,3.4c0.5,0.9,0.9,1.9,1,3C311.8,191.2,311.8,191.6,311.7,192z"
		/>
	<path class="st4" d="M212,75c0,2.9,0,5.8,0,8.8c0,7.9,0,15.8-0.1,23.7c-0.1,11.8-0.1,23.5-0.2,35.2l-0.2,42.7l-0.2,47.1
		c-0.1,15.7-0.1,31.5-0.2,47.2c-0.1,14.8-0.1,29.5-0.2,44.3l-0.2,37.2l-0.1,26.9c0,4.2-0.1,8.5-0.1,12.7v0.6c0,2.8,2.2,5,5,5
		s5-2.2,5-5c0-2.9,0-5.9,0-8.8c0-7.9,0-15.8,0.1-23.7l0.1-35.2c0.1-14.2,0.1-28.5,0.2-42.7c0.1-15.7,0.1-31.4,0.2-47.1l0.2-47.2
		c0.1-14.8,0.1-29.6,0.2-44.3l0.2-37.2l0.1-27c0-4.2,0.1-8.4,0.1-12.7c0-0.2,0-0.4,0-0.6c0-2.8-2.2-5-5-5S212,72.2,212,75z"/>
	<g class="st11">
		<path d="M212,75c0,2.9,0,5.8,0,8.8c0,7.9,0,15.8-0.1,23.7c-0.1,11.8-0.1,23.5-0.2,35.2l-0.2,42.7l-0.2,47.1
			c-0.1,15.7-0.1,31.5-0.2,47.2c-0.1,14.8-0.1,29.5-0.2,44.3l-0.2,37.2l-0.1,26.9c0,4.2-0.1,8.5-0.1,12.7v0.6c0,2.8,2.2,5,5,5
			s5-2.2,5-5c0-2.9,0-5.9,0-8.8c0-7.9,0-15.8,0.1-23.7l0.1-35.2c0.1-14.2,0.1-28.5,0.2-42.7c0.1-15.7,0.1-31.4,0.2-47.1l0.2-47.2
			c0.1-14.8,0.1-29.6,0.2-44.3l0.2-37.2l0.1-27c0-4.2,0.1-8.4,0.1-12.7c0-0.2,0-0.4,0-0.6c0-2.8-2.2-5-5-5S212,72.2,212,75z"/>
	</g>
	<path class="st4" d="M211.9,88c10-1.6,18.3-2.3,27.6,1c4.6,1.7,9.7,5.9,14.7,6.2c4.6,0.3,9-1.4,13.5-2c7.2-0.9,14.7,1.3,19.6,5.7
		c0,0-11.4-3.6-21.3,3.1s-13.1,13-26.2,8.9c-8.3-2.6-23.9-1.4-28.2,3.5L211.9,88z"/>
	<path class="st3" d="M211.9,88c0,0.2,0,0.3,0,0.5c0,0.3,0,0.8,0,1.4v5.3c0,4.6,0,11.1-0.1,19.3l-0.3-0.1c1.6-1.6,3.6-2.7,5.8-3.3
		c2.3-0.7,4.7-1.2,7.1-1.4c2.6-0.3,5.2-0.3,7.8-0.2c2.8,0.1,5.5,0.6,8.1,1.4c2.7,0.9,5.6,1.3,8.4,1.1c3-0.4,5.8-1.5,8.2-3.3
		c2.5-1.8,4.9-3.8,7.5-5.7c1.3-1,2.7-1.8,4.1-2.6l1.1-0.5l1.1-0.4c0.8-0.3,1.6-0.6,2.4-0.8c4.7-1.2,9.6-1.2,14.3,0.1l-0.2,0.4
		c-4.1-3.5-9.2-5.5-14.6-5.8c-2.5-0.1-5,0.1-7.5,0.7c-2.4,0.5-4.8,1.1-7.2,1.4c-1.2,0.1-2.4,0.2-3.5,0.1c-1.2-0.1-2.3-0.4-3.4-0.7
		c-2-0.8-4-1.7-5.9-2.8c-1.7-1-3.5-1.9-5.4-2.7c-4.7-1.7-9.7-2.6-14.7-2.5c-2.8,0-5.1,0.2-7.1,0.5s-3.4,0.4-4.4,0.5l-1.1,0.2
		L211.9,88l0.4-0.1l1.1-0.2c1-0.2,2.5-0.4,4.4-0.6c2.4-0.3,4.7-0.5,7.1-0.5c3.2-0.1,6.3,0.2,9.5,0.8c1.8,0.4,3.6,0.9,5.4,1.5
		c1.9,0.8,3.7,1.6,5.4,2.7c1.9,1.1,3.8,2,5.8,2.8c1.1,0.4,2.1,0.6,3.3,0.7c1.2,0.1,2.3,0,3.5-0.1c2.3-0.3,4.7-0.9,7.1-1.4
		c2.5-0.6,5.1-0.8,7.6-0.6c5.5,0.2,10.8,2.3,14.9,5.9l0.8,0.7l-1.1-0.3c-4.6-1.2-9.4-1.3-14-0.1c-0.8,0.2-1.5,0.5-2.3,0.7l-1.1,0.4
		l-1.1,0.5c-1.4,0.7-2.7,1.6-4,2.5c-2.6,1.8-5,3.9-7.5,5.7c-2.4,1.9-5.3,3.1-8.4,3.4c-2.9,0.2-5.9-0.2-8.6-1.2
		c-2.6-0.8-5.3-1.3-8-1.4c-2.6-0.2-5.1-0.1-7.7,0.2c-2.4,0.2-4.7,0.7-7,1.4c-2.1,0.6-4,1.6-5.6,3.1l-0.3,0.3v-0.5
		c0.1-8.2,0.2-14.8,0.3-19.4c0-2.2,0.1-4,0.1-5.2c0-0.6,0-1,0-1.3S211.9,88,211.9,88z"/>
	<path class="st3" d="M262,98c0,0.1-1.1,0.5-2.6,1.7c-0.9,0.7-1.8,1.5-2.6,2.3c-0.9,0.9-1.9,1.9-3.1,2.9c-1.1,1-2.2,1.8-3.5,2.4
		c-1.1,0.5-2.2,0.8-3.4,0.9c-0.8,0-1.6-0.1-2.4-0.3c-0.3-0.1-0.5-0.2-0.8-0.4c1,0.3,2,0.4,3.1,0.3c1.1-0.1,2.2-0.4,3.2-0.9
		c1.2-0.6,2.4-1.4,3.4-2.4c1.1-1,2.1-2,3.1-2.9c0.8-0.8,1.7-1.5,2.7-2.2c0.6-0.5,1.3-0.8,2-1.2C261.4,98.1,261.7,98,262,98z"/>
	<g class="st10">
		<path d="M243.7,108.4c-3.6-1.6-6.4-3.3-10-4.9c-1.6-0.5-3-1.5-4.1-2.8c-1.2-1.8-1-4.3,0.4-5.9c1.8-1.9,4.9-1.9,7.3-1
			s4.4,2.7,6.5,4.2s4.7,2.7,7.2,2.3c2-0.3,3.8-1.5,5.5-2.6s3.8-2,5.8-1.7c0.5,0.1,1.6,0.3,1.8,0.8s-0.5,0.6-1.2,0.8
			c-0.6,0.1-1.1,0.3-1.6,0.6c-1.9,0.9-3.5,2.2-4.9,3.7c-1.7,1.9-3.6,3.6-5.8,5C248.6,108.2,246.1,108.8,243.7,108.4"/>
	</g>
	<path class="st3" d="M340.8,179.6c-0.5,0-1-0.1-1.5-0.2c-1.4-0.2-2.7-0.6-4-1c-2-0.6-3.8-1.6-5.3-3c-0.9-0.9-1.6-1.9-2.1-3
		c-0.5-1.2-0.9-2.4-1.2-3.7c-0.5-2.4-1.2-4.8-2-7.1c-0.7-1.9-1.6-3.7-2.6-5.5c-0.7-1.2-1.4-2.3-2.2-3.4c-0.3-0.4-0.6-0.8-0.8-1.2
		c0,0,0.1,0.1,0.3,0.3c0.3,0.3,0.5,0.6,0.7,0.9c0.9,1.1,1.6,2.2,2.4,3.4c1.1,1.7,2,3.6,2.7,5.5c0.9,2.3,1.6,4.7,2.1,7.2
		c0.4,2.4,1.5,4.7,3.1,6.5c1.4,1.4,3.2,2.4,5.1,3.1c1.3,0.4,2.6,0.8,3.9,1.1C339.8,179.3,340.3,179.4,340.8,179.6z"/>
	<path class="st8" d="M224.2,214.3l-3.8-2.3l-9.6-5.1c0,0-1.9,1.9,1.3,4.5l4,3.2c0,0,3.6,6.5,4.3,7c1.3,0.9,4,0.6,4,0.6"/>
	<path class="st9" d="M224.4,222.1c-0.3,0.1-0.6,0.1-0.9,0.1c-0.9,0.1-1.7,0-2.6-0.3c-0.3-0.1-0.6-0.3-0.8-0.5
		c-0.2-0.2-0.4-0.5-0.6-0.8c-0.4-0.5-0.8-1.1-1.1-1.8c-0.8-1.3-1.6-2.7-2.5-4.3l0.1,0.1l-2.6-2c-1-0.7-1.9-1.5-2.6-2.4
		c-0.4-0.5-0.7-1.2-0.8-1.8c-0.1-0.7,0.2-1.4,0.6-1.9l0.1-0.1l0.2,0.1c3.9,2.1,7.2,3.9,9.6,5.2l0,0l2.7,1.8c0.3,0.2,0.7,0.4,0.9,0.7
		c-0.3-0.2-0.7-0.3-1-0.5l-2.8-1.7l0,0c-2.4-1.2-5.8-3-9.7-5h0.3c-0.4,0.4-0.5,0.9-0.5,1.5c0.1,0.6,0.3,1.1,0.7,1.6
		c0.8,0.9,1.6,1.6,2.5,2.3l2.5,2l0,0l0,0c0.9,1.6,1.7,3,2.4,4.3c0.4,0.6,0.7,1.2,1.1,1.8c0.2,0.3,0.3,0.5,0.5,0.7
		c0.2,0.2,0.4,0.3,0.6,0.4c0.8,0.3,1.6,0.4,2.4,0.4C223.8,222,224.1,222.1,224.4,222.1z"/>
	<path class="st5" d="M373.9,403.7c0,0-6.9,22.5-16.4,41.5H104.3l-2.6-2.8c-17.6-18.5-30.8-40.7-38.5-65c-1.5-4.7-2.3-8.1-2-8.8
		L373.9,403.7z"/>
	<path class="st3" d="M57,382.4L375.9,404c4.3,0.3,8.1-3,8.4-7.3l0,0c0.3-4.3-3-8.1-7.3-8.4L58.1,366.7c-4.3-0.3-8.1,3-8.4,7.3
		c0,0,0,0,0,0l0,0C49.4,378.4,52.7,382.1,57,382.4C57,382.4,57,382.4,57,382.4z"/>
	<path class="st12" d="M62.2,382.5l314.4,21.7"/>
	<path class="st3" d="M376.6,404.2c0,0.1-70.4-4.6-157.2-10.6S62.2,382.7,62.2,382.5s70.4,4.6,157.2,10.6S376.7,404,376.6,404.2z"/>
	<path class="st0" d="M369.4,416.9c0,0.1-66.4-3.2-148.3-7.5s-148.3-7.9-148.3-8s66.4,3.2,148.3,7.5S369.4,416.8,369.4,416.9z"/>
	<path class="st0" d="M362.8,433.8c0,0.1-62.1-2.3-138.7-5.4s-138.7-5.8-138.7-6s62.1,2.3,138.7,5.4S362.8,433.7,362.8,433.8z"/>
	<path class="st0" d="M125.6,404.4c-0.3-2.9-0.3-5.8-0.3-8.6c-0.1-2.9,0-5.8,0.3-8.6c0.3,2.9,0.4,5.8,0.3,8.6
		C126,398.6,125.9,401.5,125.6,404.4z"/>
	<path class="st0" d="M192.9,445.2c-0.3-3-0.4-6-0.3-9c-0.1-3,0-6,0.3-9c0.3,3,0.3,6,0.3,9C193.2,439.2,193.1,442.2,192.9,445.2z"/>
	<path class="st0" d="M289.8,412.8c-0.3-4.9-0.3-9.7,0-14.6C290.1,403,290.1,407.9,289.8,412.8z"/>
	<path class="st0" d="M243.6,428.9c-0.3-3.1-0.4-6.2-0.3-9.2c-0.1-3.1,0-6.2,0.3-9.2c0.3,3.1,0.3,6.2,0.3,9.2
		C244,422.8,243.9,425.8,243.6,428.9z"/>
	<path class="st6" d="M59,455.5c11.2-13.4,21.3-20.3,37-25.8c15.9-5.5,33.3-4.8,48.7,1.8c9.6,4.2,19,10.8,29.5,10.2
		c10.9-0.7,19.9-9.1,30.6-11.5c20.2-4.5,40.3,13.4,60.6,9.4c9.5-1.9,17.8-8.5,27.5-9.2c13.8-1,25.9,10,39.7,10.9
		c11.3,0.7,22.3-5.4,33.5-4.1c9.5,1.1,17.4,7.2,26,11.3s9,4.8,26.7,6.5"/>
	<path class="st3" d="M418.7,454.9l-1-0.1l-2.9-0.3c-3.7-0.3-7.4-0.8-11.1-1.5c-2.6-0.5-5.2-1.4-7.6-2.6c-2.7-1.2-5.6-2.6-8.6-4.2
		s-6.2-3.5-9.7-5.2c-3.7-1.9-7.6-3.1-11.7-3.7c-2.2-0.2-4.4-0.2-6.6,0c-2.3,0.2-4.6,0.6-6.8,1.1c-4.6,1-9.4,2.3-14.5,2.9
		c-2.6,0.3-5.2,0.3-7.8-0.1c-2.7-0.4-5.3-1-7.8-1.9c-5.1-1.8-10.2-4.3-15.5-6.2s-11.2-3.3-17.1-2.2s-11.3,4.1-17.1,6.5
		c-2.9,1.2-6,2.1-9.1,2.6c-3.2,0.4-6.4,0.4-9.6,0c-6.4-0.8-12.7-2.9-18.9-5s-12.5-4.2-18.8-5c-3.1-0.4-6.3-0.4-9.5,0
		c-3.1,0.5-6.1,1.4-8.9,2.7c-5.7,2.5-10.9,5.8-16.7,7.7c-2.8,1-5.8,1.5-8.8,1.5c-2.9,0-5.8-0.5-8.6-1.5c-5.5-1.8-10.4-4.5-15.3-6.9
		c-2.4-1.2-4.9-2.3-7.3-3.2c-1.2-0.4-2.4-0.9-3.7-1.2l-1.9-0.5l-1.9-0.5c-13.2-3.3-27.1-2.4-39.9,2.4c-3.4,1.3-6.8,2.7-10.1,4.4
		c-2.8,1.4-5.6,3.1-8.2,4.9c-2.2,1.6-4.3,3.2-6.3,5c-2.8,2.5-5.4,5.1-7.9,7.9c-0.9,0.9-1.5,1.7-1.9,2.2s-0.7,0.7-0.7,0.7
		s0.2-0.3,0.6-0.8s1-1.2,1.9-2.2c2.5-2.8,5.1-5.5,7.8-7.9c2-1.8,4.1-3.4,6.3-5c2.6-1.8,5.4-3.5,8.2-5c3.3-1.7,6.7-3.2,10.1-4.5
		c3.9-1.5,7.9-2.6,11.9-3.3c9.4-1.7,19-1.4,28.2,0.8l1.9,0.5l1.9,0.5c1.2,0.4,2.5,0.8,3.7,1.2c2.5,0.9,4.9,2,7.4,3.2
		c4.9,2.4,9.8,5.1,15.2,6.8c2.7,0.9,5.6,1.4,8.5,1.4c2.9,0,5.9-0.5,8.6-1.5c5.7-1.9,10.9-5.2,16.6-7.7c2.9-1.3,5.9-2.2,9.1-2.7
		c3.2-0.4,6.4-0.4,9.6,0c6.4,0.8,12.7,3,18.9,5.1s12.5,4.2,18.8,5c3.1,0.4,6.3,0.4,9.5,0c3.1-0.5,6.1-1.4,9-2.6
		c5.8-2.3,11.2-5.4,17.2-6.5c2.9-0.5,6-0.6,8.9-0.1c2.9,0.5,5.7,1.2,8.4,2.3c5.4,2,10.4,4.5,15.5,6.2c2.5,0.9,5.1,1.5,7.7,1.9
		c2.6,0.3,5.1,0.4,7.7,0.1c5-0.5,9.8-1.9,14.4-2.9c2.3-0.5,4.6-0.9,6.9-1.1c2.2-0.2,4.5-0.2,6.7,0c4.1,0.6,8.1,1.9,11.8,3.8
		c3.5,1.7,6.7,3.6,9.7,5.2s5.9,3,8.6,4.3c2.4,1.2,5,2,7.6,2.6c4.7,1,8.5,1.3,11,1.6l2.9,0.3L418.7,454.9z"/>
	<path class="st7" d="M82,426.6c-5.3-4.5-11.9-7.2-18.8-7.9c-2.3-0.3-4.6-0.1-6.8,0.5c-2.2,0.7-4,2.3-5,4.4
		c-0.9,2.2-0.4,4.7,1.4,6.2c1.5,1,3.3,1.4,5,1c1.7-0.4,3.4-0.9,5-1.6c6.1-2.3,12.5-3.3,19-3"/>
	<path class="st3" d="M81.6,426.2c-0.2,0-0.5,0-0.7,0c-0.5,0-1.2,0-2.1,0c-4.3,0.1-8.5,0.8-12.6,2c-1.8,0.5-3.7,1.2-5.7,2
		c-1,0.4-2.1,0.7-3.2,0.8c-1.2,0.2-2.4,0-3.5-0.4c-1.2-0.5-2.1-1.3-2.6-2.5c-0.5-1.2-0.7-2.5-0.4-3.7c0.3-1.2,0.9-2.4,1.8-3.3
		c0.9-0.9,1.9-1.5,3-2c2.1-0.8,4.4-1.1,6.7-0.9c3.8,0.3,7.5,1.2,11,2.6c2.3,1,4.6,2.3,6.6,3.8c0.7,0.5,1.3,1,1.6,1.3
		s0.5,0.5,0.5,0.5c-0.2-0.1-0.4-0.3-0.6-0.4c-0.4-0.3-0.9-0.7-1.7-1.2c-2.1-1.4-4.3-2.6-6.7-3.6c-3.5-1.4-7.1-2.3-10.9-2.5
		c-2.2-0.2-4.4,0.1-6.4,0.9c-2.2,0.8-3.8,2.7-4.5,4.9c-0.2,1.1-0.1,2.3,0.4,3.4c0.4,1,1.3,1.8,2.3,2.3c1,0.4,2.1,0.5,3.2,0.4
		c1.1-0.2,2.1-0.4,3.1-0.8c2-0.8,3.9-1.5,5.7-2c1.7-0.5,3.4-0.9,5.2-1.2c2.5-0.4,5.1-0.6,7.6-0.6c0.9,0,1.6,0,2.1,0.1
		C81.1,426.1,81.4,426.1,81.6,426.2z"/>
	<circle class="st7" cx="165.6" cy="427.1" r="5.6"/>
	<path class="st3" d="M171.3,427.1c-0.1,0,0-0.5-0.3-1.4c-0.3-1.2-1.1-2.3-2.1-3c-1.5-1.1-3.4-1.4-5.1-0.7c-2.8,1-4.2,4.2-3.2,7
		c1,2.8,4.2,4.2,7,3.2c0.5-0.2,1-0.4,1.4-0.7c1-0.7,1.7-1.8,2.1-3C171.2,427.6,171.2,427.1,171.3,427.1c0.1,0,0,0.1,0,0.3
		c0,0.3,0,0.7-0.1,1c-0.3,1.3-1,2.4-2,3.2c-1.6,1.2-3.7,1.6-5.5,0.9c-1.1-0.4-2.1-1.1-2.8-2c-0.7-1-1.1-2.2-1.1-3.5
		c0-1.3,0.4-2.5,1.2-3.5c0.7-0.9,1.6-1.6,2.7-2c1.9-0.7,4-0.3,5.5,0.9c1,0.8,1.7,2,2,3.2c0.1,0.3,0.1,0.7,0.1,1
		C171.3,427,171.3,427.1,171.3,427.1z"/>
</g>
<g>
	<path class="st5" d="M437.5,16.4l-3.4,15.1H431l-2-8c-0.1-0.5-0.2-1-0.3-1.6h0l-0.3,1.6l-1.9,8h-3.2l-3.4-15.1h3.5l1.6,8.8
		c0.1,0.5,0.2,1.1,0.2,1.7h0c0-0.3,0.1-0.9,0.3-1.7l2-8.8h2.6l2,8.8c0.1,0.5,0.2,1.1,0.3,1.7h0c0-0.3,0.1-0.9,0.2-1.7l1.7-8.8H437.5
		z"/>
	<path class="st5" d="M442.8,16.3c0,0.5-0.2,0.8-0.5,1.1c-0.4,0.3-0.8,0.5-1.3,0.5c-0.5,0-0.9-0.2-1.3-0.5c-0.4-0.3-0.5-0.7-0.5-1.1
		c0-0.4,0.2-0.8,0.5-1.1s0.8-0.5,1.3-0.5c0.5,0,0.9,0.2,1.3,0.5C442.7,15.5,442.8,15.8,442.8,16.3z M442.7,31.5h-3.4V19.7h3.4V31.5z
		"/>
	<path class="st5" d="M448.9,31.5h-3.4V14.2h3.4V31.5z"/>
	<path class="st5" d="M455.1,31.5h-3.4V14.2h3.4V31.5z"/>
	<path class="st5" d="M474.1,25.3c0,2.1-0.5,3.7-1.6,4.8s-2.5,1.7-4.5,1.7c-1.9,0-3.4-0.3-4.3-0.9V14.2h3.4V20
		c0.6-0.3,1.4-0.4,2.2-0.4c1.4,0,2.6,0.5,3.4,1.6C473.6,22.1,474.1,23.5,474.1,25.3z M470.6,25.5c0-2.7-0.8-4-2.3-4
		c-0.5,0-0.9,0.1-1.2,0.3v7.8c0.3,0.1,0.6,0.2,1.1,0.2C469.8,29.7,470.6,28.3,470.6,25.5z"/>
	<path class="st5" d="M486.2,25.8l-7.1,1c0.2,1.7,1.2,2.6,2.9,2.6c1.2,0,2.3-0.2,3.1-0.7l0.8,2.1c-1.1,0.6-2.6,0.9-4.2,0.9
		c-1.8,0-3.2-0.6-4.2-1.7c-1-1.1-1.5-2.6-1.5-4.5c0-1.9,0.5-3.4,1.4-4.5c0.9-1.1,2.3-1.6,3.9-1.6c1.7,0,3,0.6,3.8,1.7
		C485.9,22.2,486.3,23.8,486.2,25.8z M483,24.5c0-2-0.7-3-2-3c-0.7,0-1.3,0.3-1.7,0.9c-0.4,0.6-0.6,1.6-0.5,2.8L483,24.5z"/>
</g>
<g>
	<path class="st5" d="M390.1,483.7c0,1.4-0.5,2.5-1.4,3.4s-2.2,1.3-3.7,1.3c-1.7,0-3.1-0.3-4-0.9l0.8-2.5c0.7,0.5,1.5,0.7,2.4,0.7
		c0.6,0,1.1-0.2,1.5-0.5s0.5-0.8,0.5-1.3c0-0.5-0.2-0.9-0.5-1.2s-0.9-0.7-1.6-1c-2-0.9-3-2.3-3-4.2c0-1.3,0.4-2.4,1.3-3.3
		c0.9-0.9,2-1.3,3.5-1.3c1.5,0,2.7,0.3,3.5,0.9l-0.7,2.2c-0.7-0.4-1.5-0.7-2.3-0.7c-1.2,0-1.8,0.6-1.8,1.7c0,0.5,0.2,0.9,0.5,1.3
		c0.3,0.3,0.8,0.6,1.5,0.9c1.3,0.6,2.3,1.3,2.8,2.2C389.9,482,390.1,482.8,390.1,483.7z"/>
	<path class="st5" d="M398.1,488.1c-0.5,0.2-1,0.3-1.7,0.3c-1.2,0-2.1-0.3-2.7-1c-0.6-0.6-0.9-1.4-0.9-2.4v-6.4h-1.3v-2.2h1.3v-2.5
		l3.4-0.9v3.4h1.8v2.2h-1.8v6.1c0,0.9,0.4,1.4,1.1,1.4c0.2,0,0.5,0,0.7-0.1V488.1z"/>
	<path class="st5" d="M409.4,487.5c-1.1,0.6-2.6,0.9-4.6,0.9c-3.5,0-5.2-1.2-5.2-3.7c0-1.4,0.7-2.5,2-3.2c1-0.6,2.6-0.9,4.6-1.1
		v-0.6c0-1.1-0.7-1.6-2.1-1.6c-1,0-2,0.2-3.1,0.7l-0.7-2c1.4-0.6,2.9-0.9,4.5-0.9c3.1,0,4.7,1.4,4.7,4.3V487.5z M406.2,486.3V482
		c-1.1,0.1-2,0.3-2.5,0.7c-0.6,0.4-0.9,1-0.9,1.9c0,1.3,0.7,2,2.2,2C405.5,486.5,405.9,486.5,406.2,486.3z"/>
	<path class="st5" d="M421.6,476.4l-5.3,16.6h-3.6l1.9-4.7l-3.9-11.9h3.6l1.6,6.9c0.1,0.6,0.2,1.3,0.2,1.9h0
		c0.1-0.5,0.2-1.1,0.3-1.9l1.8-6.9H421.6z"/>
	<path class="st5" d="M437.3,475.5h-2.6v12.7h-3.6v-12.7h-2.6v-2.4h8.8V475.5z"/>
	<path class="st5" d="M448.4,487.5c-1.2,0.6-2.9,0.9-5,0.9c-3.3,0-5-1.4-5-4.1v-8h3.4v8.2c0,1,0.5,1.6,1.7,1.6
		c0.6,0,1.1-0.1,1.5-0.3v-9.5h3.4V487.5z"/>
	<path class="st5" d="M461.1,488.2h-3.4v-8.3c0-1.1-0.6-1.7-1.8-1.7c-0.5,0-1,0.1-1.5,0.2v9.7H451V477c1.3-0.6,3-0.9,5-0.9
		c3.4,0,5.1,1.3,5.1,3.8V488.2z"/>
	<path class="st5" d="M473.6,482.5l-7.1,1c0.2,1.7,1.2,2.6,2.9,2.6c1.2,0,2.3-0.2,3.1-0.7l0.8,2.1c-1.1,0.6-2.6,0.9-4.2,0.9
		c-1.8,0-3.2-0.6-4.2-1.7s-1.5-2.6-1.5-4.5c0-1.9,0.5-3.4,1.4-4.5c0.9-1.1,2.3-1.6,3.9-1.6c1.7,0,3,0.6,3.8,1.7
		C473.3,478.9,473.7,480.5,473.6,482.5z M470.5,481.2c0-2-0.7-3-2-3c-0.7,0-1.3,0.3-1.7,0.9c-0.4,0.6-0.6,1.6-0.5,2.8L470.5,481.2z"
		/>
	<path class="st5" d="M485.8,487.5c-1.1,0.6-2.6,0.9-4.5,0.9c-1.8,0-3.2-0.5-4.3-1.6c-1-1-1.6-2.5-1.6-4.5c0-1.9,0.5-3.4,1.4-4.5
		c1-1.1,2.2-1.7,3.8-1.7c0.6,0,1.2,0.1,1.7,0.2v-5.5h3.4V487.5z M482.4,486.1v-7.8c-0.3-0.1-0.6-0.1-0.9-0.1c-1.7,0-2.6,1.4-2.6,4.1
		c0,2.7,0.8,4,2.5,4C481.8,486.3,482.2,486.2,482.4,486.1z"/>
</g>
<g>
	<path class="st4" d="M363.6,49.5c0,2.1-0.6,3.7-1.9,5c-1.4,1.4-3.4,2.1-6,2.1c-0.5,0-0.9,0-1.4-0.1l-0.7-0.1v8.3h-5.1V43.8
		c1.7-0.9,4-1.3,6.7-1.3c2.9,0,5.1,0.7,6.5,2C363,45.8,363.6,47.4,363.6,49.5z M358.7,49.5c0-1.4-0.3-2.4-0.8-3.1
		c-0.6-0.7-1.5-1-2.7-1c-0.7,0-1.2,0.1-1.6,0.3v7.9h0.7c1.6,0.1,2.7-0.2,3.4-0.9C358.3,52,358.7,51,358.7,49.5z"/>
	<path class="st4" d="M381,63.8c-1.8,0.9-4.2,1.3-7.2,1.3c-4.8,0-7.2-2-7.2-6V47.6h5v11.9c0,1.5,0.8,2.3,2.4,2.3
		c0.9,0,1.6-0.1,2.1-0.4V47.6h5V63.8z"/>
	<path class="st4" d="M399.9,55.7c0,3-0.8,5.4-2.3,7s-3.7,2.4-6.5,2.4c-2.8,0-4.9-0.4-6.2-1.3V39.7h5V48c0.9-0.4,2-0.6,3.2-0.6
		c2.1,0,3.7,0.8,5,2.3C399.3,51.2,399.9,53.2,399.9,55.7z M394.9,56c0-3.9-1.1-5.8-3.4-5.8c-0.7,0-1.3,0.1-1.8,0.4v11.3
		c0.4,0.2,0.9,0.3,1.5,0.3C393.7,62.1,394.9,60.1,394.9,56z"/>
	<path class="st4" d="M408.1,64.8h-5V39.7h5V64.8z"/>
	<path class="st4" d="M417.3,42.6c0,0.7-0.3,1.2-0.8,1.7c-0.5,0.4-1.1,0.7-1.9,0.7c-0.7,0-1.4-0.2-1.9-0.7c-0.5-0.4-0.8-1-0.8-1.7
		c0-0.6,0.3-1.2,0.8-1.6c0.5-0.5,1.1-0.7,1.9-0.7c0.7,0,1.3,0.2,1.9,0.7C417,41.4,417.3,42,417.3,42.6z M417.1,64.8h-5V47.6h5V64.8z
		"/>
	<path class="st4" d="M431.6,59.7c0,1.6-0.6,2.8-1.7,3.8c-1.2,1.1-2.8,1.6-4.8,1.6c-2.1,0-3.8-0.4-5.1-1.2l1.3-3.2
		c0.8,0.7,1.9,1,3.1,1c0.6,0,1.2-0.2,1.6-0.5s0.6-0.8,0.6-1.4c0-1-0.7-1.9-2.2-2.4c-2.6-1-3.9-2.6-3.9-4.8c0-1.5,0.5-2.8,1.6-3.8
		c1.1-1,2.5-1.5,4.2-1.5c2,0,3.6,0.4,5,1.2l-1.2,2.8c-0.7-0.6-1.6-0.9-2.6-0.9c-1.3,0-2,0.6-2,1.8c0,1,0.7,1.7,2.2,2.4
		c1.6,0.7,2.7,1.4,3.3,2.3C431.3,57.6,431.6,58.6,431.6,59.7z"/>
	<path class="st4" d="M449.3,64.8h-5v-12c0-1.6-0.9-2.4-2.6-2.4c-0.8,0-1.5,0.2-2.1,0.5v14h-5V39.7h5v8.5c1.2-0.5,2.4-0.8,3.7-0.8
		c2,0,3.6,0.5,4.6,1.6c0.9,0.9,1.3,2.2,1.3,3.8V64.8z"/>
	<path class="st4" d="M467.5,56.5L457.2,58c0.3,2.5,1.7,3.8,4.2,3.8c1.8,0,3.3-0.3,4.5-1l1.1,3.1c-1.7,0.8-3.7,1.2-6.2,1.2
		c-2.6,0-4.7-0.8-6.1-2.4c-1.5-1.6-2.2-3.8-2.2-6.6c0-2.7,0.7-4.9,2-6.5s3.3-2.4,5.7-2.4c2.5,0,4.3,0.8,5.6,2.4
		S467.6,53.5,467.5,56.5z M462.9,54.6c0-2.9-0.9-4.4-2.8-4.4c-1,0-1.8,0.4-2.4,1.3c-0.6,0.9-0.9,2.3-0.8,4L462.9,54.6z"/>
	<path class="st4" d="M485.2,63.9c-1.6,0.9-3.8,1.3-6.6,1.3c-2.6,0-4.7-0.8-6.2-2.3c-1.5-1.5-2.3-3.7-2.3-6.5c0-2.7,0.7-4.9,2.1-6.5
		c1.4-1.6,3.2-2.4,5.5-2.4c0.9,0,1.8,0.1,2.5,0.3v-8h5V63.9z M480.2,61.7V50.4c-0.4-0.1-0.9-0.2-1.4-0.2c-2.5,0-3.8,2-3.8,5.9
		c0,3.9,1.2,5.9,3.6,5.9C479.4,62,479.9,61.9,480.2,61.7z"/>
	<path class="st4" d="M431.7,96.6c0,2-0.7,3.7-2.1,5s-3.2,2-5.3,2c-2.5,0-4.4-0.4-5.8-1.3l1.2-3.6c1,0.7,2.2,1,3.6,1
		c0.9,0,1.6-0.2,2.1-0.7c0.5-0.5,0.8-1.1,0.8-1.9c0-0.7-0.2-1.3-0.7-1.8s-1.3-1-2.4-1.5c-2.9-1.3-4.4-3.3-4.4-6.1
		c0-1.9,0.6-3.5,1.9-4.8s3-2,5.1-2c2.2,0,3.9,0.4,5.2,1.3l-1.1,3.2c-1-0.6-2.1-1-3.3-1c-1.8,0-2.7,0.8-2.7,2.5
		c0,0.7,0.3,1.4,0.8,1.9c0.4,0.4,1.2,0.9,2.2,1.3c1.9,0.9,3.3,1.9,4,3.1C431.5,94.2,431.7,95.3,431.7,96.6z"/>
	<path class="st4" d="M449.6,94.6c0,2.7-0.6,4.8-1.9,6.4c-1.4,1.7-3.3,2.6-5.7,2.6c-2.4,0-4.3-0.9-5.7-2.6c-1.3-1.6-2-3.7-2-6.4
		c0-2.7,0.6-4.8,1.9-6.4c1.4-1.7,3.3-2.5,5.7-2.5c2.4,0,4.3,0.8,5.7,2.5C448.9,89.8,449.6,91.9,449.6,94.6z M444.6,94.5
		c0-3.8-0.9-5.8-2.7-5.8c-1.8,0-2.7,1.9-2.7,5.8c0,3.8,0.9,5.6,2.7,5.6C443.7,100.1,444.6,98.3,444.6,94.5z"/>
	<path class="st4" d="M467.3,94.6c0,2.7-0.6,4.8-1.9,6.4c-1.4,1.7-3.3,2.6-5.7,2.6c-2.4,0-4.3-0.9-5.7-2.6c-1.3-1.6-2-3.7-2-6.4
		c0-2.7,0.6-4.8,1.9-6.4c1.4-1.7,3.3-2.5,5.7-2.5c2.4,0,4.3,0.8,5.7,2.5C466.7,89.8,467.3,91.9,467.3,94.6z M462.4,94.5
		c0-3.8-0.9-5.8-2.7-5.8c-1.8,0-2.7,1.9-2.7,5.8c0,3.8,0.9,5.6,2.7,5.6C461.5,100.1,462.4,98.3,462.4,94.5z"/>
	<path class="st4" d="M485.2,103.2h-5V91.2c0-1.6-0.9-2.4-2.6-2.4c-0.7,0-1.4,0.1-2.1,0.4v14.1h-5V86.9c1.9-0.9,4.3-1.3,7.2-1.3
		c4.9,0,7.4,1.8,7.4,5.5V103.2z"/>
</g>
</svg>
