<svg id="visual" viewBox="0 0 2200 60" width="2200" height="60" xmlns="http://www.w3.org/2000/svg" xmlns:xlink="http://www.w3.org/1999/xlink" version="1.1"><path d="M0 55L16 55.3C32 55.7 64 56.3 95.8 51.3C127.7 46.3 159.3 35.7 191.2 31C223 26.3 255 27.7 287 29.2C319 30.7 351 32.3 382.8 31.8C414.7 31.3 446.3 28.7 478.2 30C510 31.3 542 36.7 574 39C606 41.3 638 40.7 669.8 38.5C701.7 36.3 733.3 32.7 765.2 31.5C797 30.3 829 31.7 861 34.7C893 37.7 925 42.3 956.8 44.7C988.7 47 1020.3 47 1052.2 47.5C1084 48 1116 49 1147.8 45.8C1179.7 42.7 1211.3 35.3 1243.2 32.5C1275 29.7 1307 31.3 1339 35.8C1371 40.3 1403 47.7 1434.8 48C1466.7 48.3 1498.3 41.7 1530.2 40.2C1562 38.7 1594 42.3 1626 46C1658 49.7 1690 53.3 1721.8 54.8C1753.7 56.3 1785.3 55.7 1817.2 50.2C1849 44.7 1881 34.3 1913 29.5C1945 24.7 1977 25.3 2008.8 30C2040.7 34.7 2072.3 43.3 2104.2 46.5C2136 49.7 2168 47.3 2184 46.2L2200 45L2200 0L2184 0C2168 0 2136 0 2104.2 0C2072.3 0 2040.7 0 2008.8 0C1977 0 1945 0 1913 0C1881 0 1849 0 1817.2 0C1785.3 0 1753.7 0 1721.8 0C1690 0 1658 0 1626 0C1594 0 1562 0 1530.2 0C1498.3 0 1466.7 0 1434.8 0C1403 0 1371 0 1339 0C1307 0 1275 0 1243.2 0C1211.3 0 1179.7 0 1147.8 0C1116 0 1084 0 1052.2 0C1020.3 0 988.7 0 956.8 0C925 0 893 0 861 0C829 0 797 0 765.2 0C733.3 0 701.7 0 669.8 0C638 0 606 0 574 0C542 0 510 0 478.2 0C446.3 0 414.7 0 382.8 0C351 0 319 0 287 0C255 0 223 0 191.2 0C159.3 0 127.7 0 95.8 0C64 0 32 0 16 0L0 0Z" fill="#3472a1"></path><path d="M0 22L16 22.7C32 23.3 64 24.7 95.8 26.3C127.7 28 159.3 30 191.2 31.8C223 33.7 255 35.3 287 34.2C319 33 351 29 382.8 29.5C414.7 30 446.3 35 478.2 36C510 37 542 34 574 32.7C606 31.3 638 31.7 669.8 34.2C701.7 36.7 733.3 41.3 765.2 41.8C797 42.3 829 38.7 861 38.5C893 38.3 925 41.7 956.8 41.2C988.7 40.7 1020.3 36.3 1052.2 33.3C1084 30.3 1116 28.7 1147.8 30.2C1179.7 31.7 1211.3 36.3 1243.2 34.2C1275 32 1307 23 1339 19.3C1371 15.7 1403 17.3 1434.8 17.5C1466.7 17.7 1498.3 16.3 1530.2 18.3C1562 20.3 1594 25.7 1626 28C1658 30.3 1690 29.7 1721.8 30C1753.7 30.3 1785.3 31.7 1817.2 30.2C1849 28.7 1881 24.3 1913 22.5C1945 20.7 1977 21.3 2008.8 24C2040.7 26.7 2072.3 31.3 2104.2 33.3C2136 35.3 2168 34.7 2184 34.3L2200 34L2200 0L2184 0C2168 0 2136 0 2104.2 0C2072.3 0 2040.7 0 2008.8 0C1977 0 1945 0 1913 0C1881 0 1849 0 1817.2 0C1785.3 0 1753.7 0 1721.8 0C1690 0 1658 0 1626 0C1594 0 1562 0 1530.2 0C1498.3 0 1466.7 0 1434.8 0C1403 0 1371 0 1339 0C1307 0 1275 0 1243.2 0C1211.3 0 1179.7 0 1147.8 0C1116 0 1084 0 1052.2 0C1020.3 0 988.7 0 956.8 0C925 0 893 0 861 0C829 0 797 0 765.2 0C733.3 0 701.7 0 669.8 0C638 0 606 0 574 0C542 0 510 0 478.2 0C446.3 0 414.7 0 382.8 0C351 0 319 0 287 0C255 0 223 0 191.2 0C159.3 0 127.7 0 95.8 0C64 0 32 0 16 0L0 0Z" fill="#365577"></path><path d="M0 17L16 18.3C32 19.7 64 22.3 95.8 20.8C127.7 19.3 159.3 13.7 191.2 13.7C223 13.7 255 19.3 287 22.2C319 25 351 25 382.8 22.2C414.7 19.3 446.3 13.7 478.2 10.8C510 8 542 8 574 8.5C606 9 638 10 669.8 13C701.7 16 733.3 21 765.2 23.5C797 26 829 26 861 24.5C893 23 925 20 956.8 18.7C988.7 17.3 1020.3 17.7 1052.2 17C1084 16.3 1116 14.7 1147.8 16.8C1179.7 19 1211.3 25 1243.2 27.5C1275 30 1307 29 1339 29.2C1371 29.3 1403 30.7 1434.8 28C1466.7 25.3 1498.3 18.7 1530.2 18.5C1562 18.3 1594 24.7 1626 24.3C1658 24 1690 17 1721.8 12.8C1753.7 8.7 1785.3 7.3 1817.2 9.2C1849 11 1881 16 1913 17.5C1945 19 1977 17 2008.8 14.8C2040.7 12.7 2072.3 10.3 2104.2 13.3C2136 16.3 2168 24.7 2184 28.8L2200 33L2200 0L2184 0C2168 0 2136 0 2104.2 0C2072.3 0 2040.7 0 2008.8 0C1977 0 1945 0 1913 0C1881 0 1849 0 1817.2 0C1785.3 0 1753.7 0 1721.8 0C1690 0 1658 0 1626 0C1594 0 1562 0 1530.2 0C1498.3 0 1466.7 0 1434.8 0C1403 0 1371 0 1339 0C1307 0 1275 0 1243.2 0C1211.3 0 1179.7 0 1147.8 0C1116 0 1084 0 1052.2 0C1020.3 0 988.7 0 956.8 0C925 0 893 0 861 0C829 0 797 0 765.2 0C733.3 0 701.7 0 669.8 0C638 0 606 0 574 0C542 0 510 0 478.2 0C446.3 0 414.7 0 382.8 0C351 0 319 0 287 0C255 0 223 0 191.2 0C159.3 0 127.7 0 95.8 0C64 0 32 0 16 0L0 0Z" fill="#2e3b50"></path><path d="M0 17L16 16C32 15 64 13 95.8 12.5C127.7 12 159.3 13 191.2 11.2C223 9.3 255 4.7 287 4.3C319 4 351 8 382.8 8.8C414.7 9.7 446.3 7.3 478.2 6.2C510 5 542 5 574 4.7C606 4.3 638 3.7 669.8 5.2C701.7 6.7 733.3 10.3 765.2 11.2C797 12 829 10 861 9.2C893 8.3 925 8.7 956.8 7.8C988.7 7 1020.3 5 1052.2 7.2C1084 9.3 1116 15.7 1147.8 15.5C1179.7 15.3 1211.3 8.7 1243.2 5.2C1275 1.7 1307 1.3 1339 2.5C1371 3.7 1403 6.3 1434.8 7.2C1466.7 8 1498.3 7 1530.2 8.5C1562 10 1594 14 1626 13.2C1658 12.3 1690 6.7 1721.8 4.7C1753.7 2.7 1785.3 4.3 1817.2 4.8C1849 5.3 1881 4.7 1913 5.3C1945 6 1977 8 2008.8 7.8C2040.7 7.7 2072.3 5.3 2104.2 5.2C2136 5 2168 7 2184 8L2200 9L2200 0L2184 0C2168 0 2136 0 2104.2 0C2072.3 0 2040.7 0 2008.8 0C1977 0 1945 0 1913 0C1881 0 1849 0 1817.2 0C1785.3 0 1753.7 0 1721.8 0C1690 0 1658 0 1626 0C1594 0 1562 0 1530.2 0C1498.3 0 1466.7 0 1434.8 0C1403 0 1371 0 1339 0C1307 0 1275 0 1243.2 0C1211.3 0 1179.7 0 1147.8 0C1116 0 1084 0 1052.2 0C1020.3 0 988.7 0 956.8 0C925 0 893 0 861 0C829 0 797 0 765.2 0C733.3 0 701.7 0 669.8 0C638 0 606 0 574 0C542 0 510 0 478.2 0C446.3 0 414.7 0 382.8 0C351 0 319 0 287 0C255 0 223 0 191.2 0C159.3 0 127.7 0 95.8 0C64 0 32 0 16 0L0 0Z" fill="#21242b"></path></svg>